<?xml version="1.0" encoding="UTF-8" standalone="no"?>
<!-- Created with Inkscape (http://www.inkscape.org/) -->

<svg
   xmlns:dc="http://purl.org/dc/elements/1.1/"
   xmlns:cc="http://creativecommons.org/ns#"
   xmlns:rdf="http://www.w3.org/1999/02/22-rdf-syntax-ns#"
   xmlns:svg="http://www.w3.org/2000/svg"
   xmlns="http://www.w3.org/2000/svg"
   xmlns:sodipodi="http://sodipodi.sourceforge.net/DTD/sodipodi-0.dtd"
   xmlns:inkscape="http://www.inkscape.org/namespaces/inkscape"
   width="62.369473mm"
   height="79.995773mm"
   viewBox="0 0 62.369472 79.995774"
   version="1.1"
   id="svg3151"
   inkscape:version="0.92.4 (5da689c313, 2019-01-14)"
   sodipodi:docname="bird6.svg">
  <defs
     id="defs3145" />
  <sodipodi:namedview
     id="base"
     pagecolor="#ffffff"
     bordercolor="#666666"
     borderopacity="1.0"
     inkscape:pageopacity="0.0"
     inkscape:pageshadow="2"
     inkscape:zoom="0.35"
     inkscape:cx="-175.30323"
     inkscape:cy="-253.2294"
     inkscape:document-units="mm"
     inkscape:current-layer="layer1"
     showgrid="false"
     fit-margin-top="0"
     fit-margin-left="0"
     fit-margin-right="0"
     fit-margin-bottom="0"
     inkscape:window-width="1920"
     inkscape:window-height="1017"
     inkscape:window-x="-8"
     inkscape:window-y="-8"
     inkscape:window-maximized="1" />
  <metadata
     id="metadata3148">
    <rdf:RDF>
      <cc:Work
         rdf:about="">
        <dc:format>image/svg+xml</dc:format>
        <dc:type
           rdf:resource="http://purl.org/dc/dcmitype/StillImage" />
        <dc:title></dc:title>
      </cc:Work>
    </rdf:RDF>
  </metadata>
  <g
     inkscape:label="Layer 1"
     inkscape:groupmode="layer"
     id="layer1"
     transform="translate(-1.4031472,-1.8372841)">
    <g
       transform="matrix(0.26458333,0,0,0.26458333,-121.88607,-133.48486)"
       id="g244">
      <path
         style="fill:#ab954d"
         inkscape:connector-curvature="0"
         id="path226"
         d="m 577.9,805.6 -20.4,-5.2 1.4,-51.8 c 0.1,-1.9 -1.5,-3.6 -3.4,-3.6 -1.9,-0.1 -3.6,1.5 -3.6,3.4 l -1.4,51.9 -7.4,1.9 c -1.6,0.4 -2.5,2 -2.1,3.6 0.4,1.6 2,2.5 3.6,2.1 l 9.5,-2.4 c 0,0 0,0 0,0 0,0 0,0 0,0 l 22.5,5.8 c 0.2,0.1 0.5,0.1 0.7,0.1 1.3,0 2.5,-0.9 2.8,-2.2 0.3,-1.6 -0.6,-3.2 -2.2,-3.6 z" />
      <path
         style="fill:#e6e7e9"
         inkscape:connector-curvature="0"
         id="path228"
         d="m 602.7,514.9 c -19.4,10.9 -24.1,45 -13.8,69.7 10.3,24.7 14,28.4 7.4,54.1 0,0 -106.1,5.6 -87.6,124 0,0 155.9,-13.1 107.6,-176.6 0,0 49.4,-0.6 41.2,-33.5 -8.4,-33 -35.4,-48.6 -54.8,-37.7 z" />
      <path
         style="fill:#c4c5c7"
         inkscape:connector-curvature="0"
         id="path230"
         d="m 534.3,711.3 c -15.8,14.5 -24.2,33.5 -24.3,51.2 10.2,-1.2 74.3,-10.6 102.3,-62.5 -21.1,-14.9 -54.1,-10.7 -78,11.3 z" />
      <path
         style="fill:#d6d7d9"
         inkscape:connector-curvature="0"
         id="path232"
         d="m 470.3,733.1 c -6.7,31.8 -3.9,60.5 -2.8,56.7 116.5,-50.7 128.7,-151.1 128.7,-151.1 0,0 -100.9,-24.1 -125.9,94.4 z" />
      <path
         style="fill:#d9bd62"
         inkscape:connector-curvature="0"
         id="path234"
         d="m 646.6,554.2 c -4.3,1.2 -9.1,3.8 -12.1,9.1 -2.2,3.9 -6.4,6.2 -10.9,5.7 -5.9,-0.7 -12.8,-0.8 -13.1,2.7 0,0 14.7,56.8 90.3,83.8 0,0 10.7,0 -41.6,-96 -2.4,-4.5 -7.6,-6.7 -12.6,-5.3 z" />
      <path
         style="fill:#8c7a3f"
         inkscape:connector-curvature="0"
         id="path236"
         d="m 634.6,563.3 c -2.2,3.9 -6.4,6.2 -10.9,5.7 -5.9,-0.7 -12.8,-0.8 -13.1,2.7 0,0 14.6,56.4 89.7,83.6 -16.4,-22.1 -48,-70.6 -63.7,-94.8 -0.7,0.8 -1.4,1.7 -2,2.8 z" />
      <circle
         style="fill:#d9bd62"
         id="circle238"
         r="6.5"
         cy="545.40002"
         cx="636.09998" />
      <circle
         id="circle240"
         r="3.8"
         cy="545.40002"
         cx="636.09998" />
      <path
         style="fill:#d9bd62"
         inkscape:connector-curvature="0"
         id="path242"
         d="M 558,808 537.6,802.8 539,751 c 0.1,-1.9 -1.5,-3.6 -3.4,-3.6 -1.9,0 -3.6,1.5 -3.6,3.4 l -1.4,51.9 -7.4,1.9 c -1.6,0.4 -2.5,2 -2.1,3.6 0.4,1.6 2,2.5 3.6,2.1 l 9.5,-2.4 c 0,0 0,0 0,0 0,0 0,0 0,0 l 22.5,5.8 c 0.2,0.1 0.5,0.1 0.7,0.1 1.3,0 2.5,-0.9 2.8,-2.2 0.3,-1.6 -0.7,-3.2 -2.2,-3.6 z" />
    </g>
  </g>
</svg>
