<?xml version="1.0" encoding="UTF-8" standalone="no"?>
<!-- Created with Inkscape (http://www.inkscape.org/) -->

<svg
   xmlns:dc="http://purl.org/dc/elements/1.1/"
   xmlns:cc="http://creativecommons.org/ns#"
   xmlns:rdf="http://www.w3.org/1999/02/22-rdf-syntax-ns#"
   xmlns:svg="http://www.w3.org/2000/svg"
   xmlns="http://www.w3.org/2000/svg"
   xmlns:sodipodi="http://sodipodi.sourceforge.net/DTD/sodipodi-0.dtd"
   xmlns:inkscape="http://www.inkscape.org/namespaces/inkscape"
   width="45.758476mm"
   height="47.28104mm"
   viewBox="0 0 45.758476 47.281041"
   version="1.1"
   id="svg3151"
   inkscape:version="0.92.4 (5da689c313, 2019-01-14)"
   sodipodi:docname="bird7.svg">
  <defs
     id="defs3145" />
  <sodipodi:namedview
     id="base"
     pagecolor="#ffffff"
     bordercolor="#666666"
     borderopacity="1.0"
     inkscape:pageopacity="0.0"
     inkscape:pageshadow="2"
     inkscape:zoom="0.35"
     inkscape:cx="-183.11624"
     inkscape:cy="-321.02227"
     inkscape:document-units="mm"
     inkscape:current-layer="layer1"
     showgrid="false"
     fit-margin-top="0"
     fit-margin-left="0"
     fit-margin-right="0"
     fit-margin-bottom="0"
     inkscape:window-width="1920"
     inkscape:window-height="1017"
     inkscape:window-x="-8"
     inkscape:window-y="-8"
     inkscape:window-maximized="1" />
  <metadata
     id="metadata3148">
    <rdf:RDF>
      <cc:Work
         rdf:about="">
        <dc:format>image/svg+xml</dc:format>
        <dc:type
           rdf:resource="http://purl.org/dc/dcmitype/StillImage" />
        <dc:title></dc:title>
      </cc:Work>
    </rdf:RDF>
  </metadata>
  <g
     inkscape:label="Layer 1"
     inkscape:groupmode="layer"
     id="layer1"
     transform="translate(-3.4703376,-16.615151)">
    <g
       transform="matrix(0.26458333,0,0,0.26458333,-207.52285,-151.44818)"
       id="g224">
      <path
         style="fill:#c27241"
         inkscape:connector-curvature="0"
         id="path200"
         d="m 880.1,800.3 v -16.9 c 0,-3 -1.5,-5.5 -4.5,-5.5 -3,0 -4.5,2.5 -4.5,5.5 v 16.9 c -3.9,1.4 -6.3,4.2 -6.5,4.4 -0.9,1.1 -0.8,2.7 0.3,3.7 1.1,0.9 2.7,0.8 3.7,-0.2 0,0 2.9,-3.3 6.8,-3.4 2.5,-0.1 4.9,1.1 7.3,3.5 0.5,0.5 1.2,0.8 1.8,0.8 0.6,0 1.3,-0.3 1.8,-0.8 1,-1 1,-2.7 0,-3.7 -1.9,-2.1 -4,-3.5 -6.2,-4.3 z" />
      <path
         style="fill:#e2854c"
         inkscape:connector-curvature="0"
         id="path202"
         d="m 862,805.1 v -16.9 c 0,-3 -1.5,-5.5 -4.5,-5.5 -3,0 -4.5,2.5 -4.5,5.5 v 16.9 c -3.9,1.4 -6.3,4.2 -6.5,4.4 -0.9,1.1 -0.8,2.7 0.3,3.7 1.1,0.9 2.7,0.8 3.7,-0.2 0,0 2.9,-3.3 6.8,-3.4 2.5,-0.1 4.9,1.1 7.3,3.5 0.5,0.5 1.2,0.8 1.8,0.8 0.6,0 1.3,-0.3 1.8,-0.8 1,-1 1,-2.7 0,-3.7 -1.9,-2.1 -4,-3.5 -6.2,-4.3 z" />
      <path
         style="fill:#356178"
         inkscape:connector-curvature="0"
         id="path204"
         d="m 868.4,694.9 c -13.9,32.3 -28.3,65.8 -65.4,65.8 -2.6,0 -4.8,1.8 -5.4,4.3 -0.6,2.5 0.7,5.1 3.1,6.2 28.8,13.3 55.9,20.3 78.2,20.3 23,0 40.2,-7.7 49.9,-22.3 13.6,-20.5 15.3,-47.1 16.8,-70.5 1.4,-21.5 2.6,-40.1 13,-42.9 2.2,-0.6 9.5,-2.5 11.7,-2.5 -11.3,-9 -29.3,-18.1 -45.1,-18.1 -30.8,0 -44.2,30.3 -56.8,59.7 z" />
      <path
         style="fill:#4681a0"
         inkscape:connector-curvature="0"
         id="path206"
         d="m 942.4,694.8 c -4.5,-1.5 -9.2,-2.3 -14,-2.3 -22.7,0 -43.5,16.6 -50.5,40.3 -5.5,18.6 -2.3,38 8.8,53.1 0.3,0.4 0.6,0.7 0.9,1 l 4.3,3.5 c 16.5,-2.4 29.2,-9.6 36.9,-21.3 13.6,-20.5 15.3,-47.1 16.8,-70.5 0,-0.5 0.1,-1 0.1,-1.5 l -1.1,-1.1 c -0.6,-0.5 -1.3,-0.9 -2.2,-1.2 z" />
      <path
         style="fill:#90b3c6"
         inkscape:connector-curvature="0"
         id="path208"
         d="m 942.4,694.8 c -4.5,-1.5 -9.2,-2.3 -14,-2.3 -22.7,0 -43.5,16.6 -50.5,40.3 -5.5,18.6 -2.3,38 8.8,53.1 0.3,0.4 0.6,0.7 0.9,1 l 1.9,1.6 c -8.4,-14.3 -10.5,-31.5 -5.6,-48.2 7,-23.7 27.8,-40.3 50.5,-40.3 3.8,0 7.4,0.6 11,1.5 0.1,-0.9 0.1,-1.9 0.2,-2.9 0,-0.5 0.1,-1 0.1,-1.5 l -1.1,-1.1 c -0.6,-0.5 -1.3,-0.9 -2.2,-1.2 z" />
      <path
         style="fill:#86a6b8"
         inkscape:connector-curvature="0"
         id="path210"
         d="m 879.1,771.9 c 1.9,4.9 4.4,9.7 7.6,14 0.3,0.4 0.6,0.7 0.9,1 l 1.9,1.6 c -3.4,-5.7 -5.7,-11.9 -7,-18.4 -1.1,0.7 -2.3,1.3 -3.4,1.8 z" />
      <path
         style="fill:#86a6b8"
         inkscape:connector-curvature="0"
         id="path212"
         d="m 942.4,694.8 c -3.7,-1.2 -7.6,-1.9 -11.5,-2.2 -0.9,2.6 -1.8,5.2 -2.8,7.9 2.1,-0.3 4.1,-0.5 6.2,-0.5 3.8,0 7.4,0.6 11,1.5 0.1,-0.9 0.1,-1.9 0.2,-2.9 0,-0.5 0.1,-1 0.1,-1.5 l -1.1,-1.1 c -0.5,-0.5 -1.2,-0.9 -2.1,-1.2 z" />
      <path
         style="fill:#f5f5f5"
         inkscape:connector-curvature="0"
         id="path214"
         d="m 924.2,650.4 c -6.1,0 -11,4.9 -11,11 0,6.1 4.9,11 11,11 6.1,0 11,-4.9 11,-11 0,-6 -4.9,-11 -11,-11 z" />
      <circle
         style="fill:#242424"
         id="circle216"
         r="5.5"
         cy="661.5"
         cx="924.20001" />
      <path
         style="fill:#e78244"
         inkscape:connector-curvature="0"
         id="path218"
         d="m 947.8,653.2 c 0,4.1 0.9,8 2.6,11.5 1.8,-4.7 4.4,-7.9 8.3,-8.9 2.2,-0.6 9.5,-2.5 11.7,-2.5 -5.4,-4.3 -12.3,-8.6 -19.8,-11.9 -1.8,3.5 -2.8,7.5 -2.8,11.8 z" />
      <path
         style="fill:#d97a40"
         inkscape:connector-curvature="0"
         id="path220"
         d="m 950.4,664.7 c 0,0 0,-0.1 0,0 0.3,-0.7 0.5,-1.2 0.8,-1.8 0.1,-0.3 0.3,-0.6 0.4,-0.8 0.2,-0.3 0.4,-0.7 0.6,-1 0.2,-0.2 0.3,-0.5 0.5,-0.7 0.3,-0.4 0.5,-0.7 0.8,-1.1 0.1,-0.1 0.2,-0.3 0.3,-0.4 0.4,-0.4 0.8,-0.8 1.3,-1.2 0.1,-0.1 0.3,-0.2 0.5,-0.3 0.3,-0.3 0.7,-0.5 1.1,-0.7 0.2,-0.1 0.3,-0.2 0.5,-0.3 0.5,-0.3 1.1,-0.5 1.7,-0.6 0.2,0 0.3,-0.1 0.5,-0.2 -4.1,-0.1 -7.5,1.3 -10.6,3.8 0.2,1.8 0.8,3.6 1.6,5.3 z" />
      <path
         style="opacity:0.1;fill:#14252e"
         inkscape:connector-curvature="0"
         id="path222"
         d="m 926.9,704.1 c -0.3,0.7 -0.5,1.5 -0.8,2.2 0,0.1 -0.1,0.1 -0.1,0.2 -0.3,0.9 -0.6,1.7 -0.9,2.6 0,0 0,0.1 0,0.1 -9,24.5 -21,50.8 -46,62.7 0,0 0,0 0,0 -18.5,8.9 -44.2,9.9 -81.1,-3.5 0.5,1.2 1.4,2.2 2.7,2.7 28.8,13.3 55.9,20.3 78.2,20.3 18.4,0 33.1,-4.9 43.2,-14.4 0,0 0,0 0,0 0,0 0,0 0,0 0.5,-0.5 0.9,-0.9 1.4,-1.4 0.2,-0.2 0.3,-0.3 0.5,-0.5 1.2,-1.2 2.3,-2.5 3.3,-3.9 0.5,-0.7 1,-1.3 1.5,-2 0,0 0,0 0,0 13.6,-20.5 15.3,-47.1 16.8,-70.5 1.4,-21.5 2.6,-40.1 13,-42.9 0.2,0 0.3,-0.1 0.5,-0.2 -16.3,-0.4 -22.9,22.4 -32.2,48.5 z" />
    </g>
  </g>
</svg>
