<?xml version="1.0" encoding="UTF-8" standalone="no"?>
<!-- Created with Inkscape (http://www.inkscape.org/) -->

<svg
   xmlns:dc="http://purl.org/dc/elements/1.1/"
   xmlns:cc="http://creativecommons.org/ns#"
   xmlns:rdf="http://www.w3.org/1999/02/22-rdf-syntax-ns#"
   xmlns:svg="http://www.w3.org/2000/svg"
   xmlns="http://www.w3.org/2000/svg"
   xmlns:sodipodi="http://sodipodi.sourceforge.net/DTD/sodipodi-0.dtd"
   xmlns:inkscape="http://www.inkscape.org/namespaces/inkscape"
   width="72.522179mm"
   height="63.505074mm"
   viewBox="0 0 72.522179 63.505073"
   version="1.1"
   id="svg1241"
   inkscape:version="0.92.4 (5da689c313, 2019-01-14)"
   sodipodi:docname="bird2.svg">
  <defs
     id="defs1235" />
  <sodipodi:namedview
     id="base"
     pagecolor="#ffffff"
     bordercolor="#666666"
     borderopacity="1.0"
     inkscape:pageopacity="0.0"
     inkscape:pageshadow="2"
     inkscape:zoom="0.35"
     inkscape:cx="-364.91782"
     inkscape:cy="-7.3571721"
     inkscape:document-units="mm"
     inkscape:current-layer="layer1"
     showgrid="false"
     fit-margin-top="0"
     fit-margin-left="0"
     fit-margin-right="0"
     fit-margin-bottom="0"
     inkscape:window-width="1920"
     inkscape:window-height="1017"
     inkscape:window-x="-8"
     inkscape:window-y="-8"
     inkscape:window-maximized="1" />
  <metadata
     id="metadata1238">
    <rdf:RDF>
      <cc:Work
         rdf:about="">
        <dc:format>image/svg+xml</dc:format>
        <dc:type
           rdf:resource="http://purl.org/dc/dcmitype/StillImage" />
        <dc:title></dc:title>
      </cc:Work>
    </rdf:RDF>
  </metadata>
  <g
     inkscape:label="Layer 1"
     inkscape:groupmode="layer"
     id="layer1"
     transform="translate(-51.572008,-83.381676)">
    <g
       transform="matrix(0.26458333,0,0,0.26458333,-66.670392,37.397093)"
       id="g198">
      <path
         style="fill:#d4b364"
         inkscape:connector-curvature="0"
         id="path180"
         d="m 629.5,404.7 c -6.4,-3.3 -15.4,-7.7 -21.2,-9.6 v -52.9 c 0,-2.1 -1.7,-3.8 -3.8,-3.8 -2.1,0 -3.8,1.7 -3.8,3.8 v 53.1 c -3.7,1.8 -9.6,5.3 -14.7,8.5 -2.1,1.3 -1,4.6 1.5,4.3 9.2,-1.2 23.4,-2.1 41.1,-0.3 1.8,0.1 2.5,-2.3 0.9,-3.1 z" />
      <path
         style="fill:#fbd476"
         inkscape:connector-curvature="0"
         id="path182"
         d="m 616.6,410.4 c -6.4,-3.3 -15.4,-7.7 -21.2,-9.6 v -52.9 c 0,-2.1 -1.7,-3.8 -3.8,-3.8 -2.1,0 -3.8,1.7 -3.8,3.8 V 401 c -3.7,1.8 -9.6,5.3 -14.7,8.5 -2.1,1.3 -1,4.6 1.5,4.3 9.2,-1.2 23.4,-2.1 41.1,-0.3 1.8,0.1 2.5,-2.3 0.9,-3.1 z" />
      <path
         style="fill:#fcb344"
         inkscape:connector-curvature="0"
         id="path184"
         d="m 708.2,192.7 h -27 v 12.8 H 721 c 0,-7 -5.8,-12.8 -12.8,-12.8 z" />
      <path
         style="fill:#e6e3e6"
         inkscape:connector-curvature="0"
         id="path186"
         d="m 660,173.8 v 0 c -13.3,0 -24.1,10.8 -24.1,24.1 v 38.3 c 0,0 -113.9,33.2 -162.7,116.5 H 615 c 0,0 69,-15.3 69,-71.7 v -83.1 c 0.1,-13.4 -10.7,-24.1 -24,-24.1 z" />
      <path
         style="fill:#7e7275"
         inkscape:connector-curvature="0"
         id="path188"
         d="m 448.8,347.7 c -4.3,4.6 -0.8,12.2 5.5,11.9 75.6,-2.8 160.1,4.4 184.9,-50.6 16.2,-35.9 5.6,-61.4 -3.3,-74.4 -6.5,1.9 -115.1,35.3 -187.1,113.1 z" />
      <circle
         style="fill:#ffffff"
         id="circle190"
         r="6"
         cy="189.8"
         cx="663.90002" />
      <circle
         id="circle192"
         r="2.9000001"
         cy="189.8"
         cx="663.90002" />
      <path
         style="fill:#695f61"
         inkscape:connector-curvature="0"
         id="path194"
         d="m 574.8,333.4 c -6.4,-1.2 -11.5,-4.3 -12.7,-7.3 0,0 0,0 0,0 0,0 0,0 0,0 -2.3,2.4 -8.1,3.4 -14.5,2.2 -6.4,-1.2 -11.5,-4.3 -12.7,-7.3 0,0 0,0 0,0 0,0 0,0 0,0 -2.3,2.4 -8.1,3.4 -14.5,2.2 -6.4,-1.2 -11.5,-4.3 -12.7,-7.3 -0.5,0.5 -0.8,1.1 -1,1.8 -0.7,3.7 5.1,7.9 12.9,9.4 6.4,1.2 12.2,0.2 14.5,-2.2 1.2,3.1 6.3,6.2 12.7,7.4 6.4,1.2 12.2,0.2 14.5,-2.2 1.2,3.1 6.3,6.2 12.7,7.4 7.8,1.5 14.8,-0.3 15.5,-4 0.1,-0.7 0,-1.4 -0.2,-2.1 -2.2,2.2 -8,3.2 -14.5,2 z" />
      <path
         style="fill:#695f61"
         inkscape:connector-curvature="0"
         id="path196"
         d="m 582.1,299.6 c -6.5,-0.5 -11.9,-2.9 -13.4,-5.9 0,0 0,0 0,0 0,0 0,0 0,0 -2,2.7 -7.6,4.3 -14.2,3.8 -6.5,-0.5 -11.9,-2.9 -13.4,-5.9 -0.4,0.6 -0.7,1.2 -0.8,1.9 -0.3,3.8 5.9,7.3 13.9,7.9 6.5,0.5 12.2,-1.2 14.2,-3.8 1.6,2.9 6.9,5.4 13.5,5.9 8,0.6 14.6,-2 14.9,-5.7 0.1,-0.7 -0.1,-1.4 -0.5,-2 -2,2.6 -7.7,4.2 -14.2,3.8 z" />
    </g>
  </g>
</svg>
