<?xml version="1.0" encoding="UTF-8" standalone="no"?>
<!-- Created with Inkscape (http://www.inkscape.org/) -->

<svg
   xmlns:dc="http://purl.org/dc/elements/1.1/"
   xmlns:cc="http://creativecommons.org/ns#"
   xmlns:rdf="http://www.w3.org/1999/02/22-rdf-syntax-ns#"
   xmlns:svg="http://www.w3.org/2000/svg"
   xmlns="http://www.w3.org/2000/svg"
   xmlns:sodipodi="http://sodipodi.sourceforge.net/DTD/sodipodi-0.dtd"
   xmlns:inkscape="http://www.inkscape.org/namespaces/inkscape"
   width="67.871849mm"
   height="61.170338mm"
   viewBox="0 0 67.871849 61.170338"
   version="1.1"
   id="svg3151"
   inkscape:version="0.92.4 (5da689c313, 2019-01-14)"
   sodipodi:docname="bird5.svg">
  <defs
     id="defs3145" />
  <sodipodi:namedview
     id="base"
     pagecolor="#ffffff"
     bordercolor="#666666"
     borderopacity="1.0"
     inkscape:pageopacity="0.0"
     inkscape:pageshadow="2"
     inkscape:zoom="0.35"
     inkscape:cx="-464.59538"
     inkscape:cy="-90.116795"
     inkscape:document-units="mm"
     inkscape:current-layer="layer1"
     showgrid="false"
     fit-margin-top="0"
     fit-margin-left="0"
     fit-margin-right="0"
     fit-margin-bottom="0"
     inkscape:window-width="1920"
     inkscape:window-height="1017"
     inkscape:window-x="-8"
     inkscape:window-y="-8"
     inkscape:window-maximized="1" />
  <metadata
     id="metadata3148">
    <rdf:RDF>
      <cc:Work
         rdf:about="">
        <dc:format>image/svg+xml</dc:format>
        <dc:type
           rdf:resource="http://purl.org/dc/dcmitype/StillImage" />
        <dc:title></dc:title>
      </cc:Work>
    </rdf:RDF>
  </metadata>
  <g
     inkscape:label="Layer 1"
     inkscape:groupmode="layer"
     id="layer1"
     transform="translate(-77.945028,-63.819592)">
    <g
       transform="matrix(0.26458333,0,0,0.26458333,56.395843,-90.33721)"
       id="g260">
      <path
         style="fill:#b8560d"
         inkscape:connector-curvature="0"
         id="path246"
         d="m 147.6,806.1 c -0.8,5.8 5.6,9.8 10.5,6.6 47.7,-31.7 51.5,-96.6 51.5,-96.6 -46.3,14.1 -58.7,65.4 -62,90 z" />
      <path
         style="fill:#e86d11"
         inkscape:connector-curvature="0"
         id="path248"
         d="m 227.1,664.1 c 0,0 -53.3,46.1 -30.7,102 0,0 82.5,-18.9 82.3,-75.6 -0.2,-53.2 9.1,-66.4 13.5,-73.6 0,0 -66.7,-17.1 -65.1,47.2 z" />
      <path
         style="fill:#2c2c2c"
         inkscape:connector-curvature="0"
         id="path250"
         d="m 336.9,582.7 c -13.7,7.2 -51.3,27.6 -52.8,34.1 -1.9,7.9 0,7.5 0,7.5 0,0 3.5,1.7 9.3,-3.2 1.3,-1.1 29.7,-24.4 44.4,-37.4 0.5,-0.4 -0.2,-1.3 -0.9,-1 z" />
      <path
         style="fill:#c95f0f"
         inkscape:connector-curvature="0"
         id="path252"
         d="m 270.7,688.1 c -19.5,0 -35.3,15.8 -35.3,35.3 0,8.6 3,16.4 8.1,22.5 18.4,-11.9 35.2,-29.8 35.1,-55.5 0,-0.5 0,-1 0,-1.4 -2.5,-0.6 -5.1,-0.9 -7.9,-0.9 z" />
      <path
         style="fill:#e87f31"
         inkscape:connector-curvature="0"
         id="path254"
         d="m 160.1,763.7 c 0,0 59,-23.8 50.7,-64.9 0,0 -39.9,19.7 -50.7,64.9 z" />
      <path
         style="fill:#90512c"
         inkscape:connector-curvature="0"
         id="path256"
         d="M 247.4,673.8 C 219,656.6 134.5,608.2 86.1,612.6 c -4.2,0.4 -6.1,5.3 -3.4,8.5 5.6,6.6 15.6,16.1 29.4,20.2 0,0 0.4,21.8 35,29.2 0,0 2.1,14 24.7,20 0,0 7.4,14.7 19.4,17.3 0,0 38.4,9.9 59.4,-17.1 4.1,-5.4 2.6,-13.3 -3.2,-16.9 z" />
      <circle
         style="fill:#381a04"
         id="circle258"
         r="5.5999999"
         cy="624.40002"
         cx="265.20001" />
    </g>
  </g>
</svg>
