<?xml version="1.0" encoding="UTF-8" standalone="no"?>
<!-- Created with Inkscape (http://www.inkscape.org/) -->

<svg
   xmlns:dc="http://purl.org/dc/elements/1.1/"
   xmlns:cc="http://creativecommons.org/ns#"
   xmlns:rdf="http://www.w3.org/1999/02/22-rdf-syntax-ns#"
   xmlns:svg="http://www.w3.org/2000/svg"
   xmlns="http://www.w3.org/2000/svg"
   xmlns:sodipodi="http://sodipodi.sourceforge.net/DTD/sodipodi-0.dtd"
   xmlns:inkscape="http://www.inkscape.org/namespaces/inkscape"
   width="58.102501mm"
   height="46.516491mm"
   viewBox="0 0 58.102501 46.516492"
   version="1.1"
   id="svg3151"
   inkscape:version="0.92.4 (5da689c313, 2019-01-14)"
   sodipodi:docname="bird8.svg">
  <defs
     id="defs3145" />
  <sodipodi:namedview
     id="base"
     pagecolor="#ffffff"
     bordercolor="#666666"
     borderopacity="1.0"
     inkscape:pageopacity="0.0"
     inkscape:pageshadow="2"
     inkscape:zoom="0.35"
     inkscape:cx="-219.03053"
     inkscape:cy="-353.11709"
     inkscape:document-units="mm"
     inkscape:current-layer="layer1"
     showgrid="false"
     fit-margin-top="0"
     fit-margin-left="0"
     fit-margin-right="0"
     fit-margin-bottom="0"
     inkscape:window-width="1920"
     inkscape:window-height="1017"
     inkscape:window-x="-8"
     inkscape:window-y="-8"
     inkscape:window-maximized="1" />
  <metadata
     id="metadata3148">
    <rdf:RDF>
      <cc:Work
         rdf:about="">
        <dc:format>image/svg+xml</dc:format>
        <dc:type
           rdf:resource="http://purl.org/dc/dcmitype/StillImage" />
        <dc:title></dc:title>
      </cc:Work>
    </rdf:RDF>
  </metadata>
  <g
     inkscape:label="Layer 1"
     inkscape:groupmode="layer"
     id="layer1"
     transform="translate(-12.972661,-8.8879458)">
    <g
       transform="matrix(0.26458333,0,0,0.26458333,-275.23796,-159.91806)"
       id="g116">
      <path
         style="fill:#f7a14c"
         inkscape:connector-curvature="0"
         id="path84"
         d="m 1214.2,768.6 c -2.1,0 -3.9,1.7 -3.9,3.9 v 32.8 c 0,2.1 1.7,3.9 3.9,3.9 2.1,0 3.9,-1.7 3.9,-3.9 v -32.8 c 0,-2.2 -1.8,-3.9 -3.9,-3.9 z" />
      <path
         style="fill:#fbc447"
         inkscape:connector-curvature="0"
         id="path86"
         d="m 1272.6,643.3 c -1.5,-0.9 -3,-1.7 -4.6,-2.4 -10.7,-4.6 -22.3,-3.3 -31.3,2.3 -2.2,1.4 -9.6,8.8 -18.6,18.8 -1,1.1 -14.4,16 -37.5,35.4 -21.2,17.8 -50.7,39.5 -86.4,57.7 l -4.9,2.4 37.5,1.3 1.9,0.1 c 1.9,0.1 3.7,0.2 5.5,0.3 19.1,1.3 37.7,5.8 55.4,13.1 0.4,0.2 0.9,0.3 1.3,0.5 27.7,10.6 58.4,-3 69.4,-30.5 4.4,-10.9 4.9,-22.4 2.2,-33 3.7,-3.1 14.3,-11.9 16.2,-13.9 4,-4.1 7,-9.2 8.5,-15.2 3.7,-14.4 -2.4,-29.2 -14.6,-36.9 z" />
      <path
         style="fill:#e3ab39"
         inkscape:connector-curvature="0"
         id="path88"
         d="m 1236.7,643.1 c -2.2,1.4 -9.6,8.8 -18.6,18.8 -1,1.1 -14.4,16 -37.5,35.4 17.4,5.9 34,5.2 41.9,-12.9 20.4,-46.3 50.1,-41.2 50.1,-41.2 -1.5,-0.9 -3,-1.7 -4.6,-2.4 -10.7,-4.6 -22.3,-3.3 -31.3,2.3 z" />
      <path
         style="fill:#eab03b"
         inkscape:connector-curvature="0"
         id="path90"
         d="m 1227.7,757.3 c 0,5.3 0.8,10.4 2.4,15.2 13.3,-5.3 24.4,-15.8 30.2,-30.2 4.2,-10.6 4.8,-21.7 2.5,-32.1 -20.3,6.1 -35.1,24.9 -35.1,47.1 z" />
      <path
         style="fill:#8a6c27"
         inkscape:connector-curvature="0"
         id="path92"
         d="m 1286.9,665 c -5.8,7.6 -7.6,17.5 -4.8,26.7 l 26.7,-9.1 -21.2,-18.6 z" />
      <path
         style="fill:#705820"
         inkscape:connector-curvature="0"
         id="path94"
         d="m 1281.4,688.6 c 0.2,1 0.4,2.1 0.8,3.1 l 26.7,-9.1 -2.7,-2.4 z" />
      <path
         style="fill:#fbc447"
         inkscape:connector-curvature="0"
         id="path96"
         d="m 1218.1,661.9 c -2,2.2 -49.4,55 -123.9,93.2 l -4.9,2.4 15.9,-0.3 c 33.1,-0.7 65.6,-7.7 95.9,-20.5 0.1,0 0.2,-0.1 0.3,-0.1 16.9,-7.2 26.4,-25.4 22.8,-43.4 z" />
      <path
         style="fill:#e3ab39"
         inkscape:connector-curvature="0"
         id="path98"
         d="m 1183.5,743.3 v 0 c -18.3,6.2 -37.2,10.4 -56.5,12.4 l -2.6,2.9 2.3,0.1 1.9,0.1 c 1.9,0.1 3.7,0.2 5.5,0.3 19.1,1.3 37.7,5.8 55.4,13.1 -16.3,-16.4 -6,-28.9 -6,-28.9 z" />
      <path
         style="fill:#eab03b"
         inkscape:connector-curvature="0"
         id="path100"
         d="m 1094.2,755.1 -4.9,2.4 37.5,1.3 c 4.4,-1.3 9.2,-2.9 14.2,-4.8 44.7,-16.8 68.7,-45.5 81.5,-69.4 l -4.4,-22.6 c -2,2.1 -49.4,54.9 -123.9,93.1 z" />
      <circle
         style="fill:#a67c52"
         id="circle102"
         r="6.5"
         cy="667.59998"
         cx="1258.3" />
      <path
         style="fill:#966c48"
         inkscape:connector-curvature="0"
         id="path104"
         d="m 1259.9,661.3 c -0.5,-0.1 -1.1,-0.2 -1.6,-0.2 -3.6,0 -6.5,2.9 -6.5,6.5 0,3.6 2.9,6.5 6.5,6.5 0.6,0 1.1,-0.1 1.6,-0.2 -2.8,-0.7 -4.9,-3.3 -4.9,-6.3 0,-3.1 2.1,-5.6 4.9,-6.3 z" />
      <g
         id="g108">
        <path
           style="fill:#f7a14c"
           inkscape:connector-curvature="0"
           id="path106"
           d="m 1205.2,808.3 c -1.2,0.9 -1.5,2.6 -0.7,3.9 0.9,1.3 2.6,1.6 3.9,0.7 0.3,-0.2 6.9,-4.7 11.3,-0.3 0.5,0.5 1.3,0.8 2,0.8 0.7,0 1.4,-0.3 2,-0.8 1.1,-1.1 1.1,-2.8 0,-3.9 -6.3,-6.3 -14.9,-3 -18.5,-0.4 z" />
      </g>
      <path
         style="fill:#f7a14c"
         inkscape:connector-curvature="0"
         id="path110"
         d="m 1200.1,769.1 c -2.1,0 -3.9,1.7 -3.9,3.9 v 32.8 c 0,2.1 1.7,3.9 3.9,3.9 2.1,0 3.9,-1.7 3.9,-3.9 V 773 c 0,-2.2 -1.8,-3.9 -3.9,-3.9 z" />
      <g
         id="g114">
        <path
           style="fill:#f7a14c"
           inkscape:connector-curvature="0"
           id="path112"
           d="m 1191.1,808.7 c -1.2,0.9 -1.5,2.6 -0.7,3.9 0.9,1.3 2.6,1.6 3.9,0.7 0.3,-0.2 6.9,-4.7 11.3,-0.3 0.5,0.5 1.3,0.8 2,0.8 0.7,0 1.4,-0.3 2,-0.8 1.1,-1.1 1.1,-2.8 0,-3.9 -6.3,-6.3 -14.9,-3 -18.5,-0.4 z" />
      </g>
    </g>
  </g>
</svg>
