<?xml version="1.0" encoding="UTF-8" standalone="no"?>
<svg
   xmlns:dc="http://purl.org/dc/elements/1.1/"
   xmlns:cc="http://creativecommons.org/ns#"
   xmlns:rdf="http://www.w3.org/1999/02/22-rdf-syntax-ns#"
   xmlns:svg="http://www.w3.org/2000/svg"
   xmlns="http://www.w3.org/2000/svg"
   xmlns:sodipodi="http://sodipodi.sourceforge.net/DTD/sodipodi-0.dtd"
   xmlns:inkscape="http://www.inkscape.org/namespaces/inkscape"
   id="svg2"
   viewBox="0 0 804.29 537.14"
   version="1.1"
   sodipodi:docname="bkgd.svg"
   inkscape:version="0.92.4 (5da689c313, 2019-01-14)">
  <defs
     id="defs86" />
  <sodipodi:namedview
     pagecolor="#ffffff"
     bordercolor="#666666"
     borderopacity="1"
     objecttolerance="10"
     gridtolerance="10"
     guidetolerance="10"
     inkscape:pageopacity="0"
     inkscape:pageshadow="2"
     inkscape:window-width="1920"
     inkscape:window-height="1017"
     id="namedview84"
     showgrid="false"
     inkscape:zoom="1.5157166"
     inkscape:cx="402.14499"
     inkscape:cy="268.57001"
     inkscape:window-x="-8"
     inkscape:window-y="-8"
     inkscape:window-maximized="1"
     inkscape:current-layer="svg2" />
  <rect
     style="fill:#000080"
     x="-6.4775279e-14"
     y="-1.4648437e-05"
     width="804.28998"
     height="384.29001"
     ry="2"
     id="rect4040" />
  <path
     style="fill:#ffff92"
     inkscape:connector-curvature="0"
     d="m 404.75,134.54 c -60.32,-55.158 -12.4,-78.761 5.1,-91.445 -76.243,2.5465 -67.498,82.669 -5.1026,91.447 z"
     id="path4045" />
  <path
     style="fill:#ffff92"
     inkscape:connector-curvature="0"
     d="m 435.88,33.557 -1.6506,3.5389 3.3979,1.924 -3.7959,0.91599 0.6143,3.8562 -3.0828,-2.3966 -2.6319,2.8846 -0.0484,-3.9046 -3.8962,-0.25919 3.0226,-2.4723 -2.2266,-3.2078 3.8174,0.8217 1.1197,-3.7409 1.7377,3.4969 z"
     id="path4815" />
  <path
     style="fill:#ffff92;stroke-width:1.06122136"
     inkscape:connector-curvature="0"
     d="m 462.58762,99.148494 -3.01537,2.842546 2.5963,3.22968 -4.10239,-0.58517 -0.90632,4.04355 -2.10025,-3.57216 -3.72648,1.81254 1.48334,-3.86938 -3.74049,-1.78337 3.95009,-1.25276 -0.93785,-4.036374 3.44221,2.307174 2.57104,-3.24992 0.34237,4.12975 z"
     id="path4817" />
  <path
     style="fill:#ffff92;stroke-width:1.09527791"
     inkscape:connector-curvature="0"
     d="m 499.00655,48.391732 -2.9901,3.058047 2.81311,3.221462 -4.25512,-0.431062 -0.76471,4.207945 -2.31597,-3.595487 -3.76672,2.02575 1.36708,-4.05258 -3.93226,-1.681894 4.02083,-1.457883 -1.13677,-4.12304 3.64669,2.234593 2.51478,-3.459473 0.52661,4.24436 z"
     id="path4819" />
  <path
     style="fill:#ffff92;stroke-width:1.44333541"
     inkscape:connector-curvature="0"
     d="m 775.36987,52.758034 -4.94209,2.709471 2.31197,5.139904 -5.19964,-2.174492 -2.57707,5.012267 -1.54181,-5.420919 -5.52556,1.110271 3.27699,-4.585492 -4.31313,-3.627792 5.62828,-0.2969 0.14715,-5.634063 3.74121,4.21517 4.49668,-3.397782 -0.96294,5.553149 z"
     id="path4821" />
  <path
     style="fill:#ffff92;stroke-width:0.72764331"
     inkscape:connector-curvature="0"
     d="m 374.7352,219.2824 -2.52891,1.29539 1.09227,2.62297 -2.5895,-1.1695 -1.36972,2.48937 -0.70017,-2.75367 -2.80029,0.48122 1.71639,-2.26438 -2.12216,-1.88931 2.84053,-0.0699 0.15398,-2.83715 1.82563,2.17721 2.3142,-1.64857 -0.56395,2.78482 z"
     id="path4825" />
  <path
     style="fill:#ffff92;stroke-width:1.17458093"
     inkscape:connector-curvature="0"
     d="m 221.02446,103.28367 -1.688,4.26472 4.11849,2.01842 -4.38667,1.33928 0.98976,4.47846 -3.78207,-2.59457 -2.88431,3.56613 -0.32963,-4.57476 -4.58641,-0.0316 3.37122,-3.11001 -2.83487,-3.60554 4.53333,0.69666 1.05141,-4.46445 2.28184,3.97867 z"
     id="path4827" />
  <path
     style="fill:#ffff92;stroke-width:0.64551252"
     inkscape:connector-curvature="0"
     d="m 684.45142,53.545915 -0.31664,2.5007 2.46795,0.512487 -2.1525,1.311602 1.13806,2.249068 -2.36748,-0.865112 -1.04882,2.292057 -0.79978,-2.390418 -2.44591,0.609059 1.37028,-2.115686 -2.00119,-1.532567 2.50841,-0.247771 -0.0495,-2.520161 1.7577,1.806678 z"
     id="path4829" />
  <path
     style="fill:#aaccff;stroke:#008000;stroke-width:1.01117778"
     inkscape:connector-curvature="0"
     d="m 108.90509,191.71054 -3.68921,1.40742 1.11262,3.78845 -3.40052,-2.00678 -2.26825,3.23194 -0.55121,-3.90977 -3.941085,0.2417 2.713153,-2.86876 -2.646168,-2.93055 3.93453,0.33262 0.64135,-3.89605 2.19304,3.28347 3.44596,-1.92775 -1.19978,3.76181 z"
     id="path4831" />
  <path
     style="fill:#ffff92;stroke-width:0.58396608"
     inkscape:connector-curvature="0"
     d="m 86.289674,202.24264 -1.843944,1.34156 1.192219,1.94377 -2.198531,-0.60518 -0.776381,2.14405 -0.897597,-2.09617 -2.160358,0.7298 1.079217,-2.00878 -1.917522,-1.23401 2.243422,-0.40866 -0.230763,-2.26859 1.71822,1.49915 1.629786,-1.59488 -0.100783,2.27808 z"
     id="path4833" />
  <path
     style="fill:#ffff92;stroke-width:0.94836897"
     inkscape:connector-curvature="0"
     d="m 58.851806,72.479093 -3.702436,-0.07963 -0.370822,3.684582 -2.246161,-2.944278 -3.111949,2.007376 0.901455,-3.591782 -3.50972,-1.181444 3.370299,-1.534735 -1.264566,-3.4806 3.301249,1.678154 1.932821,-3.158808 0.746238,3.627258 3.674789,-0.458359 -2.370637,2.845015 z"
     id="path4837" />
  <path
     style="fill:#ffff92;stroke-width:1.45236564"
     inkscape:connector-curvature="0"
     d="m 166.17729,33.591794 -5.6086,0.841326 0.39721,5.657277 -4.15465,-3.860345 -4.17541,3.83781 0.42774,-5.655022 -5.60388,-0.871633 4.68808,-3.191566 -2.81246,-4.924708 5.41824,1.675435 2.09678,-5.269396 2.06826,5.28066 5.42716,-1.646115 -2.83906,4.909502 z"
     id="path4839" />
  <path
     style="fill:#ffff92;stroke-width:1.10585368"
     inkscape:connector-curvature="0"
     d="m 309.79271,260.51203 -3.30897,-2.77454 -3.02632,3.08021 0.10608,-4.3169 -4.2951,-0.44561 3.44116,-2.60855 -2.32958,-3.63591 4.18512,1.064 1.39019,-4.08825 1.77748,3.93548 4.06312,-1.46208 -1.9686,3.84333 3.67646,2.2651 -4.23227,0.85718 z"
     id="path4841" />
  <path
     style="fill:#ffff92;stroke-width:0.47272578"
     inkscape:connector-curvature="0"
     d="m 591.03974,120.76567 -1.23111,1.37546 1.27425,1.33553 -1.84294,-0.10492 -0.24968,1.82895 -1.06701,-1.50626 -1.5856,0.94513 0.51236,-1.77341 -1.72753,-0.6504 1.70599,-0.70511 -0.5686,-1.75616 1.61491,0.89414 1.01852,-1.53951 0.30781,1.82008 z"
     id="path4843" />
  <path
     style="fill:#ffff92;stroke-width:0.82867736"
     inkscape:connector-curvature="0"
     d="m 540.85779,119.73789 -3.21126,0.39859 0.14456,3.23259 -2.3138,-2.26211 -2.43723,2.12852 0.32595,-3.21935 -3.18374,-0.57839 2.72027,-1.75248 -1.53281,-2.84975 3.06621,1.03418 1.27235,-2.9752 1.10317,3.04199 3.11944,-0.86026 -1.69052,2.75917 z"
     id="path4845" />
  <path
     style="fill:#d7d7f4"
     inkscape:connector-curvature="0"
     d="m 1.9894022,344.54 c 0,0 462.3499978,-77.126 645.9899978,-45.963 183.64,31.163 154.32,45.963 154.32,45.963 1.0995,0.0587 1.9894,0.68332 1.9894,1.5321 v 189.54 c 0,0.84879 -0.88726,1.5321 -1.9894,1.5321 H 1.9894022 c -1.10269998,0.01 -1.9899999787,-0.68 -1.9899999787,-1.53 v -189.54 c 0,-0.84879 0.8872699987,-1.5321 1.9893999787,-1.5321 z"
     id="rect4042" />
  <metadata
     id="metadata81">
    <rdf:RDF>
      <cc:Work>
        <dc:format>image/svg+xml</dc:format>
        <dc:type
           rdf:resource="http://purl.org/dc/dcmitype/StillImage" />
        <cc:license
           rdf:resource="http://creativecommons.org/licenses/publicdomain/" />
        <dc:publisher>
          <cc:Agent
             rdf:about="http://openclipart.org/">
            <dc:title>Openclipart</dc:title>
          </cc:Agent>
        </dc:publisher>
        <dc:title>two santas</dc:title>
        <dc:date>2011-12-14T21:05:58</dc:date>
        <dc:description>Christmas, Santa Claus, cartoon, clip art, clipart, </dc:description>
        <dc:source>http://openclipart.org/detail/166289/two-santas-by-olku</dc:source>
        <dc:creator>
          <cc:Agent>
            <dc:title>OlKu</dc:title>
          </cc:Agent>
        </dc:creator>
        <dc:subject>
          <rdf:Bag>
            <rdf:li>Christmas</rdf:li>
            <rdf:li>Santa Claus</rdf:li>
            <rdf:li>cartoon</rdf:li>
            <rdf:li>clip art</rdf:li>
            <rdf:li>clipart</rdf:li>
          </rdf:Bag>
        </dc:subject>
      </cc:Work>
      <cc:License
         rdf:about="http://creativecommons.org/licenses/publicdomain/">
        <cc:permits
           rdf:resource="http://creativecommons.org/ns#Reproduction" />
        <cc:permits
           rdf:resource="http://creativecommons.org/ns#Distribution" />
        <cc:permits
           rdf:resource="http://creativecommons.org/ns#DerivativeWorks" />
      </cc:License>
    </rdf:RDF>
  </metadata>
</svg>
