<?xml version="1.0" encoding="UTF-8" standalone="no"?>
<!-- Created with Inkscape (http://www.inkscape.org/) -->

<svg
   xmlns:dc="http://purl.org/dc/elements/1.1/"
   xmlns:cc="http://creativecommons.org/ns#"
   xmlns:rdf="http://www.w3.org/1999/02/22-rdf-syntax-ns#"
   xmlns:svg="http://www.w3.org/2000/svg"
   xmlns="http://www.w3.org/2000/svg"
   xmlns:sodipodi="http://sodipodi.sourceforge.net/DTD/sodipodi-0.dtd"
   xmlns:inkscape="http://www.inkscape.org/namespaces/inkscape"
   width="302.04068mm"
   height="266.10144mm"
   viewBox="0 0 302.04068 266.10144"
   version="1.1"
   id="svg4555"
   inkscape:version="0.92.4 (5da689c313, 2019-01-14)"
   sodipodi:docname="bubble2.svg">
  <defs
     id="defs4549" />
  <sodipodi:namedview
     id="base"
     pagecolor="#ffffff"
     bordercolor="#666666"
     borderopacity="1.0"
     inkscape:pageopacity="0.0"
     inkscape:pageshadow="2"
     inkscape:zoom="0.35"
     inkscape:cx="-607.04242"
     inkscape:cy="431.62448"
     inkscape:document-units="mm"
     inkscape:current-layer="layer1"
     showgrid="false"
     fit-margin-top="0"
     fit-margin-left="0"
     fit-margin-right="0"
     fit-margin-bottom="0"
     inkscape:window-width="1920"
     inkscape:window-height="1017"
     inkscape:window-x="-8"
     inkscape:window-y="-8"
     inkscape:window-maximized="1" />
  <metadata
     id="metadata4552">
    <rdf:RDF>
      <cc:Work
         rdf:about="">
        <dc:format>image/svg+xml</dc:format>
        <dc:type
           rdf:resource="http://purl.org/dc/dcmitype/StillImage" />
        <dc:title />
      </cc:Work>
    </rdf:RDF>
  </metadata>
  <g
     inkscape:label="Layer 1"
     inkscape:groupmode="layer"
     id="layer1"
     transform="translate(35.178361,3.0674593)">
    <g
       id="g623"
       transform="matrix(0.26458333,0,0,0.26458333,-582.18147,217.32698)"
       style="fill:#ffffff;fill-opacity:1">
      <path
         inkscape:connector-curvature="0"
         d="m 2493.3301,-174.14894 c -23.0331,135.319299 178.5063,146.835839 190.0229,28.79134 37.4287,126.681899 210.1767,118.044499 233.2098,-43.18701 43.187,86.37402 181.3855,20.15394 115.1654,-54.70355 69.0992,51.82442 221.6933,-37.42874 86.374,-135.3193 89.2532,5.75827 164.1106,-282.15514 -63.3409,-187.14372 109.4071,-132.44016 -112.2862,-236.08899 -184.2646,-100.76969 8.6374,-71.97835 -77.7367,-60.46182 -86.3741,-11.51654 57.5827,-126.6819 -233.2098,-267.75947 -238.9681,5.75827 -60.4618,-138.19844 -236.0889,-57.58269 -166.9898,51.82441 -43.187,-48.94528 -74.8574,14.39567 -48.9452,31.67048 -112.2863,-123.80276 -253.3638,126.6819 -97.8906,161.23151 -169.869,25.91221 -51.8244,184.26458 34.5496,123.80276 -54.7036,40.30788 -5.7583,164.11065 115.1654,95.01143 -51.8244,71.97835 92.1323,123.802769 112.2862,34.54961 z"
         id="path614"
         sodipodi:nodetypes="ccccccccccccccc"
         style="fill:#ffffff;fill-opacity:1;fill-rule:evenodd;stroke:#000000;stroke-width:7.5;stroke-linecap:butt;stroke-linejoin:miter;stroke-dasharray:none;stroke-opacity:1" />
      <path
         inkscape:connector-curvature="0"
         d="m 2337.737,20.210199 c -37.4287,-71.978351 -118.0445,71.978349 -8.6374,71.978349 109.4071,0 51.8244,-106.527958 8.6374,-71.978349 z"
         id="path619"
         style="fill:#ffffff;fill-opacity:1;fill-rule:evenodd;stroke:#000000;stroke-width:5;stroke-linecap:butt;stroke-linejoin:miter;stroke-dasharray:none;stroke-opacity:1" />
      <path
         inkscape:connector-curvature="0"
         d="m 2127.1954,169.4981 c 57.538,-10.42248 39.6465,-65.82793 -0.5542,-71.201238 -40.2005,-5.37334 -67.069,14.256578 -52.9141,38.237748 14.1549,23.98117 28.9623,16.63348 37.862,9.45098 -2.8302,5.68193 -6.7608,28.69585 15.6063,23.51251 z"
         id="path620"
         sodipodi:nodetypes="ccccc"
         style="font-size:12px;fill:#ffffff;fill-opacity:1;fill-rule:evenodd;stroke:#000000;stroke-width:5;stroke-dasharray:none" />
      <path
         inkscape:connector-curvature="0"
         d="m 2228.9882,124.70927 c 57.538,-10.42248 39.6465,-65.827943 -0.5542,-71.201251 -40.2005,-5.37334 -67.069,14.256578 -52.9141,38.237748 14.1549,23.981183 28.9623,16.633483 37.862,9.450983 -2.8302,5.68193 -6.7608,28.69586 15.6063,23.51252 z"
         id="path621"
         sodipodi:nodetypes="ccccc"
         style="font-size:12px;fill:#ffffff;fill-opacity:1;fill-rule:evenodd;stroke:#000000;stroke-width:5;stroke-dasharray:none" />
      <path
         inkscape:connector-curvature="0"
         d="m 2426.1041,-1.0865141 c 53.6656,106.3485841 149.8415,-115.1171159 6.6328,-108.9466659 -143.2088,6.17045 -60.9194,163.442949 -6.6328,108.9466659 z"
         id="path622"
         style="font-size:12px;fill:#ffffff;fill-opacity:1;fill-rule:evenodd;stroke:#000000;stroke-width:7.02858019" />
    </g>
  </g>
</svg>
