<?xml version="1.0" encoding="UTF-8" standalone="no"?>
<!-- Generator: Adobe Illustrator 18.0.0, SVG Export Plug-In . SVG Version: 6.00 Build 0)  -->

<svg
   xmlns:dc="http://purl.org/dc/elements/1.1/"
   xmlns:cc="http://creativecommons.org/ns#"
   xmlns:rdf="http://www.w3.org/1999/02/22-rdf-syntax-ns#"
   xmlns:svg="http://www.w3.org/2000/svg"
   xmlns="http://www.w3.org/2000/svg"
   xmlns:sodipodi="http://sodipodi.sourceforge.net/DTD/sodipodi-0.dtd"
   xmlns:inkscape="http://www.inkscape.org/namespaces/inkscape"
   version="1.1"
   id="Layer_1"
   x="0px"
   y="0px"
   viewBox="0 0 1139.3162 1118.3964"
   enable-background="new 0 0 1700 1400"
   xml:space="preserve"
   sodipodi:docname="cat.svg"
   width="1139.3162"
   height="1118.3964"
   inkscape:version="0.92.4 (5da689c313, 2019-01-14)"><metadata
   id="metadata107"><rdf:RDF><cc:Work
       rdf:about=""><dc:format>image/svg+xml</dc:format><dc:type
         rdf:resource="http://purl.org/dc/dcmitype/StillImage" /><dc:title></dc:title></cc:Work></rdf:RDF></metadata><defs
   id="defs105">
	
	

		
		
	
			
			
		</defs><sodipodi:namedview
   pagecolor="#ffffff"
   bordercolor="#666666"
   borderopacity="1"
   objecttolerance="10"
   gridtolerance="10"
   guidetolerance="10"
   inkscape:pageopacity="0"
   inkscape:pageshadow="2"
   inkscape:window-width="1256"
   inkscape:window-height="663"
   id="namedview103"
   showgrid="false"
   fit-margin-top="0"
   fit-margin-left="0"
   fit-margin-right="0"
   fit-margin-bottom="0"
   inkscape:zoom="0.16857143"
   inkscape:cx="683.70016"
   inkscape:cy="544.24773"
   inkscape:window-x="289"
   inkscape:window-y="86"
   inkscape:window-maximized="0"
   inkscape:current-layer="Layer_1" />
<g
   id="g94"
   transform="translate(-142.57102,-131.78354)">
				<path
   style="fill:#2b3252"
   inkscape:connector-curvature="0"
   id="path8"
   d="m 1281.7,560.8 c -14.6,-53.2 -29.3,-106.7 -58.1,-154.3 0.2,-2.6 0.5,-5.2 0.7,-7.8 1.1,-13.5 1.7,-27 2.1,-40.6 0.8,-27.5 0.6,-55.1 -0.7,-82.6 -2.4,-49.7 -14,-98.2 -39.2,-141.5 -1.9,-3.2 -6,-2.7 -8,0 -13.8,19 -26.5,38.8 -37.8,59.4 -11.5,20.7 -22.6,42.6 -29.8,65.1 -0.2,0.6 -0.2,1.1 -0.2,1.6 -7.6,-4 -15.6,-7.2 -23.8,-9.9 -9.5,-3.1 -19.3,-5.3 -29.2,-6.8 -9.4,-1.4 -19.9,-3.2 -29.3,-2.3 -9.5,-0.9 -19.9,1 -29.3,2.3 -9.9,1.4 -19.7,3.8 -29.2,6.8 -5.9,1.9 -11.7,4.1 -17.3,6.8 -7,-21.4 -17.6,-42.1 -28.3,-61.8 -11.5,-21.2 -24.6,-41.7 -38.8,-61.2 -2,-2.7 -6.1,-3.2 -8,0 -24.8,42.6 -36.6,90.5 -39.1,139.4 -1.4,27.4 -1.6,54.9 -0.9,82.4 0.3,13.5 1,27.1 2,40.6 0.2,2 0.3,4.1 0.5,6.1 -29.3,48.7 -42.8,104 -57.7,158.2 -1.1,4 3.7,8.4 7.5,5.7 8,-5.6 16,-11.3 24,-17 4.2,-3 8.6,-5.9 12.9,-8.9 -2.2,6.4 -4.3,12.8 -6.1,19.2 -5.9,20.3 -11.7,40.8 -16.3,61.5 -0.9,4.2 3.6,8.5 7.6,5.9 6.7,-4.4 14.1,-7.9 21.2,-11.8 1.1,10.3 2.4,20.5 4.5,30.7 2,10 4.1,21.3 9,30.6 -1.8,0.2 -3.7,0.5 -5.5,0.7 -14.6,1.9 -29.2,4.5 -43.6,7.7 -29.2,6.6 -57.5,16.4 -84.7,29 -54,25.1 -104.1,60.8 -144.5,104.6 -11.6,12.6 -23.1,25.9 -32.3,40.4 -3,4.8 2.7,9.1 7.1,7.1 5.9,-2.7 12.3,-4.3 18.5,-6.3 -2.4,5.4 -4.6,10.8 -6.7,16.1 -5.4,13.8 -9.9,27.9 -13.8,42.1 -7.4,27.5 -10.9,56.6 -11.2,85 -0.1,6 7.2,6.9 10.4,2.8 1.7,-2.3 3.4,-4.5 5.1,-6.8 3.3,26 7.6,52 15,77.2 4.3,14.9 9.6,29.6 15.6,44 4.3,10.2 8.6,21.5 14.5,31.4 -22.9,-7.2 -43.5,-23.9 -61,-39.2 -23.6,-20.8 -44.6,-44.4 -66.7,-66.8 -45.3,-45.8 -100.1,-85 -166.3,-90 -32.3,-2.4 -65.6,4.7 -93.4,21.7 -24.6,15 -43.5,38.4 -53.6,65.3 -22.6,60.1 13.4,123 60.1,159.9 36.1,28.5 81.1,45.5 127.1,47.5 24.2,1.1 48.6,-2.8 70.7,-12.9 18.1,-8.4 35.5,-22.4 44.4,-40.5 4.8,3.7 9.8,7 14.6,10.5 2.4,1.7 6.7,-0.5 6.3,-3.6 -1,-7.4 -3,-14.6 -5.9,-21.3 1.1,0.4 2.1,0.8 3.1,1.2 6.2,2.5 13,3.9 19.6,5.2 13.1,2.7 26.4,4 39.8,4.2 12.5,0.2 25.4,-1.1 37.6,-3.9 6.6,-1.5 13.1,-3 19.6,-5.1 3.4,-1.1 6.7,-2.1 9.8,-3.6 -5.5,8.8 -7.6,21.6 4.2,26.2 7.2,2.8 16.1,1.6 23.7,1.7 9.9,0.1 19.9,0.2 29.8,0.3 74.2,1 148.5,1 222.7,1.5 3.8,0 5.9,-3.5 5.2,-6.9 -1.9,-10.7 -4.1,-21.6 -8.1,-31.6 7.6,0 15.4,-1.2 22.7,-1.9 11.4,-1 22.8,-2 34.2,-3 -0.2,12 -0.8,24.1 -1.9,36.2 -0.1,1.5 0.4,2.6 1.3,3.3 0.1,0.1 0.2,0.2 0.3,0.3 5.8,5 13.4,4.3 20.6,4.4 8.4,0.1 16.8,0 25.2,-0.3 16.8,-0.6 33.7,-0.8 50.4,-0.6 4.7,0.1 6.4,-4.7 5.1,-8.1 0.8,-6.1 -1.9,-14.2 -3.2,-18.8 -0.8,-2.9 -1.9,-5.8 -3,-8.6 6.5,0.4 13,0.3 19.4,1.2 2.4,0.3 5.5,-1 5.2,-4 -1.6,-19 -5.5,-40.2 -21.6,-52.5 -6.8,-5.2 -15,-7.7 -23.6,-6.9 -1.1,0.1 -2.3,0.3 -3.5,0.6 2.9,-6.7 5.7,-13.5 8.6,-20.2 0.1,0 0.2,-0.1 0.2,-0.1 7.1,-4.6 12.1,-12.8 17.3,-19.3 5.9,-7.4 11.6,-15 17.2,-22.6 2.5,-3.5 5.1,-7 7.6,-10.5 0.2,0.1 0.4,0.3 0.6,0.4 -4.4,4.6 -7.3,9.9 -9.3,16.2 -0.5,1.5 0.6,3.6 2.2,3.9 3.3,0.6 6.6,1.1 9.8,1.7 -2.4,5.4 -3.4,11.4 -3.4,17.2 0,2 2.3,3.3 4,2.3 1.8,-1.1 3.6,-2.1 5.3,-3.2 -0.6,19.4 0.7,39.1 0.8,58.6 0.1,21.8 0.4,43.7 1.2,65.6 0.1,3.6 3.3,5.1 6,4.7 0.7,0.4 1.5,0.6 2.5,0.6 12.6,-0.9 25.5,-0.2 38.2,-0.2 12.7,-0.1 25.5,-0.6 38.2,-0.7 3,0 4.8,-2.8 4.2,-5.6 -2.5,-11.5 -5.7,-22.8 -10,-33.8 -2.9,-7.3 -7.1,-15.9 -15.3,-18.5 -6.5,-2 -13.6,-0.8 -19.3,2.8 1.8,-16.6 3,-33.4 6.9,-49.6 4.1,-17.3 7.5,-34.8 11.7,-52.1 8.6,-34.8 19.6,-69 31.4,-102.8 11.9,-33.9 24.7,-67.5 37.2,-101.2 12.3,-33.2 24,-66.9 27.2,-102.4 1.9,-20.9 0,-42.9 -7.8,-62.5 6.8,-10 9.2,-23.3 11.6,-35 2.1,-10.2 3.5,-20.4 4.5,-30.7 7.1,3.9 14.5,7.3 21.2,11.7 4,2.7 8.5,-1.7 7.6,-5.9 -4.6,-20.7 -10.4,-41.1 -16.3,-61.5 -1.9,-6.5 -3.9,-12.9 -6.2,-19.3 3.7,2.6 7.4,5.1 11,7.6 8.6,6.1 17.2,12.3 25.9,18.3 4.2,2.6 9,-1.8 7.8,-5.8 z m -680.6,613.1 c -5.7,-0.5 -11,1.4 -16.5,2.6 -6.2,1.3 -12.5,2.7 -18.8,3.3 -12.1,1.3 -24.2,1.9 -36.3,1.8 -12.3,-0.1 -24.6,-1.5 -36.7,-3.9 -6,-1.2 -11.8,-2.9 -17.7,-4.3 -4.8,-1.1 -9.9,-3 -14.8,-3.6 -0.4,-0.7 -0.9,-1.3 -1.3,-2 -3.6,-5.2 -7.8,-9.3 -12.9,-13.1 -2.7,-2 -5.5,-3.6 -8.4,-5.3 2.7,0.3 5.4,0.5 8,0.7 3.7,0.3 5,-4.5 2.8,-6.8 -11.7,-12.6 -26.7,-23.1 -41.2,-32.3 -15.3,-9.6 -31.9,-17.5 -48.9,-23.9 -30.2,-11.3 -85.3,-15.9 -83.4,-59.8 0.1,-2.9 -4,-3.2 -4.8,-0.7 -5.2,16.8 4.7,32.8 17,43.6 14.8,13 35.5,17 54.1,21.5 19,4.7 36.9,11.4 54,21 14.8,8.3 27.5,18.5 40.1,29.5 -3.1,0.1 -6.3,0.4 -9.4,0.8 -2.4,0.4 -2.1,4 0,4.5 11.2,2.7 20.2,15.2 26.5,23.9 0.6,0.9 1.2,1.8 1.8,2.7 0.1,0.8 0.5,1.5 1.2,2.1 0.1,0 0.1,0.1 0.2,0.1 3.3,5.6 5.8,11.6 7.3,17.8 -5.7,-4 -11.6,-7.9 -17.9,-10.7 -2.6,-1.1 -5.3,1.8 -3.1,4.1 1.1,1.1 2.2,2.2 3.3,3.2 -8.3,11.9 -18.3,22.2 -30.6,30.1 -13.8,8.8 -29.7,13.6 -45.8,16 -32.3,4.8 -66.8,-1.5 -97.1,-13 -56.5,-21.5 -112.2,-72.7 -116.4,-136.4 -1.9,-29.5 10.7,-57.9 30.7,-79.1 21.8,-23 51.9,-35.7 83.1,-39.1 33,-3.6 66.2,3.7 96.1,17.7 29.6,13.8 54.9,34.2 78.2,56.9 25.7,25 49.3,52.2 76.2,76 13.6,12 28.2,23.1 43.9,32.1 13.8,7.9 31.1,13.9 47.1,10.7 -2.8,3.8 -5.9,7.5 -9.1,11.2 -0.2,0.1 -0.4,0.1 -0.5,0.1 z m 405.7,-53.2 c 7.2,-0.3 13.5,3.4 18.6,8.1 10.4,9.7 13.2,24.6 15.9,38.3 -6.7,-0.6 -13.4,-1.8 -20.2,-2 -1.6,-2.6 -3.4,-5.2 -5.3,-7.6 -5.1,-6.2 -13.5,-10.3 -21.6,-8.7 -3.8,0.8 -6.8,2.3 -9.7,4.5 0.6,-1.6 1.2,-3.1 1.8,-4.5 1.8,-4.2 3.7,-8.3 5.4,-12.5 1.9,-4.4 3.8,-8.8 5.6,-13.2 2.8,-1.3 5.7,-2.2 9.5,-2.4 z m 248.7,-580.2 c -7.9,-5.7 -15.6,-12.1 -24,-17 -0.1,-0.1 -0.2,-0.1 -0.4,-0.2 -2.6,-7.3 -5.1,-14.7 -8.3,-21.8 -0.7,-1.6 -3.6,-0.9 -3.4,0.9 0.9,8.3 2.8,16.5 4.5,24.7 -0.3,1.2 -0.1,2.4 0.7,3.6 0.1,0.5 0.2,0.9 0.3,1.4 2,10.4 4.3,20.8 7,31 4.5,16.7 9,33.4 14.3,49.9 -5.5,-2.9 -11,-6 -16.7,-8.5 -3,-1.3 -6.4,0.2 -6.6,3.8 -0.5,12.7 -2.3,25.3 -4.9,37.8 -1.9,9 -5.1,18 -6.7,27.2 -1.9,-3.8 -4.1,-7.6 -6.6,-11.2 -0.6,-0.9 -2.2,-0.4 -1.8,0.8 10.6,32.3 12.6,66.3 6.8,99.8 -6.2,35.5 -20,69.3 -32.5,102.9 -25.1,67.1 -50.4,134.5 -65.7,204.7 -3,14 -4.6,28.2 -6.7,42.3 -2.1,14.4 -4,29.1 -4.4,43.7 0,0.9 0.2,1.6 0.6,2.2 -4.2,5.3 -6.4,11.3 -7.9,18.3 -0.3,1.4 1.4,1.9 2.1,0.9 6.6,-8.8 19,-30.5 32.7,-19.5 5.5,4.5 7.4,13.5 9.6,19.9 2.2,6.6 4,13.2 5.6,20 -10.9,0 -21.8,-0.2 -32.7,-0.2 -12.3,0 -24.7,0.9 -37,0.3 -0.6,-19.6 -1.7,-39.3 -2.7,-58.9 -1.2,-21.7 -1.1,-44 -3.5,-65.6 -0.2,-1.9 -2.1,-3.4 -4,-2.3 -1.7,1 -3.4,2 -5.1,3 0.8,-4.7 2.7,-8.7 5.3,-13 1,-1.6 0.1,-4.4 -1.9,-4.7 -3.2,-0.5 -6.4,-1 -9.6,-1.6 2.9,-4.4 6.6,-8.5 10.5,-12 2.1,-1.9 1.3,-5.1 -0.8,-6.5 -1.5,-1 -3,-2 -4.5,-3 7.3,-10.3 14.4,-20.8 21.2,-31.4 10.2,-15.9 19.9,-32 29.2,-48.4 9.4,-16.6 18.7,-33.4 25.5,-51.3 1.1,-2.9 -3.2,-4.3 -4.7,-2 -10.3,15.8 -18.9,32.5 -28.4,48.8 -9.5,16.3 -19.5,32.3 -29.8,48 -10.4,15.7 -21,31.3 -32.2,46.5 -5.1,6.9 -10.2,13.8 -15.4,20.6 10.7,-24.8 21.4,-49.6 32.2,-74.3 14.3,-32.7 28.7,-65.3 43.2,-97.8 7.1,-15.9 14.2,-31.9 21.2,-47.9 7.1,-16 15.6,-32.3 20,-49.4 0.7,-2.8 -3,-4.2 -4.5,-1.9 -9.7,14.2 -16.2,31 -23.4,46.6 -7.3,15.9 -14.4,31.8 -21.5,47.7 -14.5,32.6 -28.8,65.3 -43,98 -14.2,32.7 -28.3,65.5 -42.2,98.3 -5.2,12.2 -10.4,24.5 -15.6,36.8 -0.9,1.2 -1.6,2.5 -2,4 -0.1,0.3 -0.1,0.7 -0.1,1 -0.8,1.8 -1.5,3.6 -2.3,5.4 -3.5,8.4 -6.9,16.8 -10.2,25.3 -3.4,8.4 -4.7,17.4 -7.4,26.1 -0.2,0.8 0.9,1.3 1.3,0.6 1.8,-3.4 4,-6.3 6.1,-9.5 1.4,-2.3 2.5,-4.7 3.7,-7.1 1.6,-1 2.8,-2.2 4.6,-3.4 3.1,-2.2 7,-3.4 10.6,-4.8 8.1,-3.2 14.7,2.4 19,8.7 4.3,6.1 7.2,13.3 9.3,20.3 1.1,3.7 1.9,7.5 2.4,11.4 -15.8,0.1 -31.6,-0.1 -47.3,-0.7 -8.4,-0.3 -16.8,-0.4 -25.2,-0.4 -4.5,0 -9.1,-0.2 -13.3,0.8 2.7,-39.8 0.3,-80.3 -7.3,-119.5 -0.2,-1.3 -1.7,-2.4 -3,-2.3 -2.7,0.3 -5.4,0.6 -8.2,0.9 1.5,-6.7 2.7,-13.4 3.9,-20.2 0.5,-2.9 -2.1,-4.8 -4.7,-3.6 -3.7,1.7 -7.5,2.5 -11.4,2.6 1.7,-7 6.9,-12.7 13.2,-16.2 2,-1.1 2.7,-4.5 0.8,-6 -4.2,-3.3 -8.4,-6.5 -12.7,-9.8 3.9,-0.8 7.8,-0.9 11.8,-0.3 3.3,0.5 6.2,-1.9 5.4,-5.4 -7,-30.6 -16,-60.7 -25.7,-90.6 -4.7,-14.6 -9.8,-29.1 -15.1,-43.5 -5.3,-14.3 -10.4,-29.9 -19.1,-42.5 -0.6,-0.9 -1.9,-0.3 -1.7,0.7 2.4,14.9 8.7,29.5 13.7,43.7 5,14.5 9.9,29 14.4,43.7 8.8,28 16.2,56.5 23.5,84.9 -6.2,0.1 -12.2,1.6 -18,4.3 -3.1,1.4 -2.2,5.5 0,7.1 4.8,3.5 9.7,7.1 14.5,10.6 -6,5.7 -9.5,12.9 -11,21.3 -0.2,1.4 0.4,3.2 2,3.5 4.6,0.7 8.7,0.5 12.9,-0.5 -1.2,6.3 -2.3,12.5 -3.2,18.9 -0.2,1.7 0.7,3.9 2.8,3.7 3.1,-0.2 6.2,-0.5 9.3,-0.7 1.4,9.1 2.6,18.1 3.5,27.2 -9.4,6.9 -17.6,14.9 -27.6,20.9 -10.5,6.3 -21.1,12.2 -32.8,16 -1.4,0.5 -1.2,2.9 0.4,2.7 12.3,-1.6 24.2,-4.6 35.4,-10 8.9,-4.3 18.5,-10.7 25.7,-18.4 1,12.1 1.5,24.2 1.5,36.4 -10.7,1 -21.3,2 -32,3 -9.1,0.9 -19.4,0.9 -28.6,3 -3,-5.5 -6.7,-10.6 -11.6,-15 -6.3,-5.8 -14.6,-10 -23.2,-10.9 -10.9,-1.1 -20.8,3.3 -30.3,8.1 -19.7,9.9 -40.5,15.6 -62.6,16.4 -0.2,0 -0.4,0 -0.7,0 8.1,-3 16.2,-6.3 24.1,-9.5 15.8,-6.4 31.1,-13.9 45.6,-22.8 26.1,-16 49.3,-37.7 63.7,-65 14.4,-27.4 18.2,-61 7.3,-90.2 -5.6,-14.9 -15.5,-27.6 -25.9,-39.5 -11.7,-13.4 -24.2,-26.3 -36.7,-38.9 -13,-13.2 -26.1,-26.8 -40.8,-38.1 -14,-10.7 -29.9,-13.6 -46,-5.9 -8,3.8 -15,9.8 -21.9,15.2 -7.6,5.9 -15,12.2 -22.1,18.7 -7.2,6.5 -14.1,13.2 -20.5,20.5 -6.4,7.3 -11.5,15.7 -17.7,23.2 -0.6,0.8 0.4,1.9 1.1,1.1 5.6,-6.3 11.9,-11.3 18.2,-16.8 6.8,-5.9 13.3,-12 20,-18 12.8,-11.5 26.3,-22.8 40.7,-32.3 6.8,-4.5 14.4,-7.8 22.8,-6.6 8.2,1.2 15.7,6.4 21.9,11.5 13.6,11.1 25.7,24.3 38,36.7 12.5,12.6 24.8,25.5 36.5,38.8 10.9,12.4 20.5,26.1 25.2,42.1 9.3,31.2 -1.6,65.1 -20.2,90.6 -15.8,21.5 -38.1,37.7 -61.3,50.3 -13.1,7.1 -27,13.1 -40.8,18.7 -12.5,5 -25.5,9 -37.8,14.5 -1.5,-0.2 -2.9,-0.4 -4.4,-0.7 -5.1,-0.8 -10.2,-2 -15.2,-3.4 -5.6,-1.6 -11.3,-2.5 -16.8,-4.5 -2.5,-0.9 -3.9,2.9 -1.7,4.1 3.9,2.2 7.7,4.7 11.6,6.8 4.2,2.2 9.3,3.5 13.9,4.9 9.8,2.9 19.9,4.4 30,5 19.9,1.3 40.1,-1.8 58.8,-8.6 9.2,-3.3 17.6,-8.1 26.5,-12.1 9.8,-4.4 19.3,-4.3 28.5,1.2 15.7,9.3 20.5,28.6 23.7,45.8 -67.5,-0.5 -135,-1.3 -202.5,-1.3 -17.6,0 -35.2,0 -52.8,0 -3.4,0 -6.9,0.2 -10.2,-0.5 -4.2,-0.9 -3,-6.5 -1.7,-9.2 3.1,-6.4 9.9,-11.5 14.2,-17.1 16.6,-21.6 27.8,-51.3 21.9,-78.7 -0.8,-3.8 -6,-2.6 -6.4,0.9 -1.4,15.3 -3.4,30.1 -8.6,44.6 -2.3,6.4 -5.3,12.3 -8.8,17.9 -3.9,0.1 -7.8,-0.1 -11.6,-0.6 -4.4,-12.4 -11.8,-24 -17,-36 -6.2,-14.1 -11.4,-28.5 -16,-43.1 -9.1,-29.1 -15.6,-59.1 -16.8,-89.6 -0.1,-4.1 -5.7,-7.2 -8.7,-3.6 -1.1,1.3 -2.2,2.7 -3.3,4 1.7,-22 4.8,-43.7 9.6,-65.4 3,-13.8 6.7,-27.3 11.1,-40.7 4.4,-13.2 10.2,-26.2 13.7,-39.6 0.5,-2 -2,-2.9 -3.2,-1.3 -2.7,3.6 -5.1,7.5 -7.3,11.6 -0.7,-0.3 -1.6,-0.4 -2.6,-0.2 -2.8,0.6 -5.6,1.4 -8.4,2.2 16.1,-18.3 32.4,-36.2 50.7,-52.6 22.3,-20 46.7,-37.6 72.5,-52.9 51.1,-30.3 108.9,-52.3 167.5,-62.4 13.5,-2.3 27.1,-3.7 40.4,-6.5 2,-0.4 1.3,-3.2 -0.5,-3.3 -10.8,-1 -21.7,-0.4 -32.5,0.7 -1.4,-10.1 -5,-20 -7.1,-29.9 -2.7,-12.4 -4.4,-25.1 -4.9,-37.8 -0.1,-3.6 -3.5,-5.1 -6.6,-3.8 -5.7,2.5 -11.2,5.6 -16.7,8.5 5.2,-16.5 9.8,-33.2 14.3,-49.9 2.7,-10.2 5.1,-20.6 7,-31 0.1,-0.5 0.2,-0.9 0.3,-1.4 0.8,-1.1 1,-2.4 0.7,-3.6 1.7,-8.2 3.5,-16.4 4.5,-24.7 0.2,-1.8 -2.7,-2.5 -3.4,-0.9 -3.2,7 -5.7,14.4 -8.3,21.8 -0.1,0.1 -0.2,0.1 -0.4,0.2 -8.4,4.9 -16.1,11.4 -24,17 -4.3,3.1 -8.6,6.2 -12.9,9.3 5.7,-22.8 11.3,-45.6 18.3,-68 7.3,-23.5 17.1,-45.8 27.3,-68.1 0.1,1 0.2,2.1 0.3,3.1 0.4,3.3 0.8,6.5 1.3,9.8 0.5,3.7 2.1,7.1 3,10.8 0.3,1.3 2.4,1 2.4,-0.3 0.1,-6.2 0.5,-11.8 0.1,-18 -0.5,-6.7 -0.9,-13.5 -1.3,-20.2 -0.8,-13.5 -1.2,-27 -1.4,-40.6 -0.4,-26.9 0.2,-53.8 1.9,-80.6 2.8,-45.3 13,-92.2 34.6,-132.5 12.1,17 23.2,34.8 33.1,53.2 11,20.5 19.6,41.9 29,63.1 -0.3,0.2 -0.6,0.3 -0.9,0.5 -7.2,3.9 -17.4,8.6 -21.4,16 -0.4,0.7 0.1,1.8 1,1.7 8,-0.8 15.6,-6.5 22.8,-9.7 8.8,-3.9 17.9,-7 27.1,-9.9 8.9,-2.8 18.1,-4.7 27.3,-6.1 9.6,-1.5 19,-0.9 28.5,-1.6 9.5,0.8 19,0.3 28.5,1.6 9.3,1.3 18.4,3.4 27.3,6.1 9.2,2.7 18.3,6.1 27.1,9.9 7.3,3.1 14.8,8.9 22.8,9.7 0.9,0.1 1.3,-1 1,-1.7 -3.3,-6.1 -10.7,-10.3 -17.2,-13.8 0.7,-0.4 1.2,-1 1.6,-1.8 9.6,-21.5 18.3,-43.2 29.4,-64 9.8,-18.5 20.9,-36.2 33.1,-53.2 21.7,40.4 31.5,87.1 34.6,132.5 1.8,26 2.2,52.2 1.9,78.3 -0.2,13.5 -0.6,27.1 -1.3,40.6 -0.4,6.8 -0.8,13.5 -1.2,20.3 -0.2,3 -0.4,6 -0.6,9 -0.3,3.8 0.5,7.5 0.5,11.2 0,1.4 2,1.7 2.4,0.3 0.7,-3 1.6,-5.7 2.7,-8.5 1.1,-2.8 0.9,-6.8 1.3,-9.8 0.1,-0.5 0.1,-1.1 0.2,-1.6 10,21.8 20,43.5 27.6,66.4 7.2,21.7 12.8,43.9 18.4,66 -4.7,-3.7 -9,-6.8 -13.4,-9.9 z" />
				<path
   style="fill:#bcbec0"
   inkscape:connector-curvature="0"
   id="path10"
   d="m 991.6,1136.4 c -1.8,4.2 -3.6,8.3 -5.4,12.5 -0.6,1.4 -1.2,2.9 -1.8,4.5 2.9,-2.3 5.9,-3.7 9.7,-4.5 8.2,-1.7 16.5,2.4 21.6,8.7 2,2.4 3.7,4.9 5.3,7.6 6.7,0.2 13.4,1.4 20.2,2 -2.6,-13.6 -5.5,-28.5 -15.9,-38.3 -5.1,-4.8 -11.4,-8.5 -18.6,-8.1 -3.8,0.2 -6.7,1.1 -9.5,2.5 -1.8,4.3 -3.7,8.7 -5.6,13.1 z" />
				<path
   style="fill:#d55038"
   inkscape:connector-curvature="0"
   id="path12"
   d="m 1194.9,289.5 c -0.1,-11.2 -1.3,-22.4 -3.4,-33.5 -2.5,-12.7 -5.9,-25.5 -10.4,-37.8 3.5,25.4 1.4,51.7 -2.3,77.4 5.1,6.2 10,12.6 14.4,19.3 0.5,0.7 0.9,1.4 1.4,2.2 -0.2,-9.2 0.4,-18.3 0.3,-27.6 z" />
				<path
   style="fill:#bc3a28"
   inkscape:connector-curvature="0"
   id="path14"
   d="m 1181.1,218.3 c -2.5,-6.9 -5.4,-13.7 -8.6,-20.3 -13.1,19.2 -23,41.7 -26.3,64.7 3.7,3.1 7.1,6.6 10.3,9.5 7,6.5 13.8,13.4 20,20.7 0.7,0.9 1.5,1.8 2.2,2.7 3.8,-25.6 5.8,-51.9 2.4,-77.3 z" />
				<path
   style="fill:#e9dcdc"
   inkscape:connector-curvature="0"
   id="path16"
   d="m 1088.8,336.6 c -24.8,11.8 -37.1,38.8 -37.3,65.4 0.3,28.4 15.6,61 45.5,68.2 25.5,6.1 49.2,-9.6 60.3,-32.1 12.3,-24.9 11.1,-57 -4.7,-80.2 -14,-20.5 -40.2,-32.6 -63.8,-21.3 z" />
				<path
   style="fill:#e9dcdc"
   inkscape:connector-curvature="0"
   id="path18"
   d="m 960,333.7 c -25.5,-6.1 -49.2,9.6 -60.3,32.1 -12.3,24.9 -11.1,57 4.7,80.2 13.9,20.3 40.1,32.5 63.7,21.2 24.8,-11.8 37.1,-38.8 37.3,-65.4 -0.1,-28.3 -15.4,-60.9 -45.4,-68.1 z" />
				<path
   style="fill:#936497"
   inkscape:connector-curvature="0"
   id="path20"
   d="m 969.5,353.2 c -21.8,-5.2 -42.1,8.2 -51.6,27.5 -10.5,21.4 -9.5,48.9 4,68.7 11.9,17.4 34.3,27.8 54.6,18.2 21.3,-10.1 31.8,-33.3 32,-56 -0.3,-24.3 -13.4,-52.3 -39,-58.4 z" />
				<path
   style="fill:#2b3252"
   inkscape:connector-curvature="0"
   id="path22"
   d="m 960.2,456.3 c -9.4,0 -19.7,-6 -26,-15.3 -10.2,-15 -11.4,-36.5 -3,-53.7 6.1,-12.3 17.3,-20.3 28.7,-20.3 2,0 4,0.2 6.1,0.7 9.9,2.4 16.2,9.8 19.7,15.6 4.8,8 7.7,18.3 7.8,28.3 -0.3,23.2 -12.3,37.2 -23.5,42.5 -3.1,1.5 -6.4,2.2 -9.8,2.2 0,0 0,0 0,0 z" />
				<path
   style="fill:#936497"
   inkscape:connector-curvature="0"
   id="path24"
   d="m 1132,353.2 c -21.8,-5.2 -42.1,8.2 -51.6,27.5 -10.5,21.4 -9.5,48.9 4,68.7 11.9,17.4 34.3,27.8 54.6,18.2 21.3,-10.1 31.8,-33.3 32,-56 -0.2,-24.3 -13.3,-52.3 -39,-58.4 z" />
				<path
   style="fill:#2b3252"
   inkscape:connector-curvature="0"
   id="path26"
   d="m 1122.8,456.3 c -9.4,0 -19.7,-6 -26,-15.3 -10.2,-15 -11.4,-36.5 -3,-53.7 6.1,-12.3 17.3,-20.3 28.7,-20.3 2,0 4,0.2 6.1,0.7 9.9,2.4 16.2,9.8 19.7,15.6 4.8,8 7.7,18.3 7.8,28.3 -0.3,23.2 -12.3,37.2 -23.5,42.5 -3.1,1.5 -6.4,2.2 -9.8,2.2 0,0 0,0 0,0 z" />
				<path
   style="fill:#d55038"
   inkscape:connector-curvature="0"
   id="path28"
   d="m 884.5,198 c 0,0 0,0 0,0 -9,18.2 -15.3,38.1 -19,58 -2,11 -3.4,22.2 -3.4,33.5 0,9.3 0.5,18.4 0.4,27.6 0.4,-0.7 0.9,-1.4 1.4,-2.1 5,-7.7 10.6,-15 16.6,-22 2.6,-3.1 5.3,-6.1 8.1,-9 -10.5,-27.5 -11.5,-57.3 -4.1,-86 z" />
				<path
   style="fill:#bc3a28"
   inkscape:connector-curvature="0"
   id="path30"
   d="m 900.4,272.3 c 3.2,-3 6.7,-6.5 10.3,-9.5 -3.2,-23 -13.2,-45.5 -26.2,-64.7 -7.4,28.7 -6.3,58.5 4.1,85.9 3.8,-4 7.7,-8 11.8,-11.7 z" />
				<path
   style="fill:#2b3252"
   inkscape:connector-curvature="0"
   id="path32"
   d="m 1015.9,401.9 c -0.3,-26.5 -11,-52.4 -32.6,-68.5 -19.8,-14.8 -46.7,-14.8 -67.2,-1.6 -45.5,29.1 -46.1,104.4 -4.6,136.9 20.3,15.9 47.7,17.2 69.4,3.3 23.4,-14.9 34.7,-43.2 35,-70.1 z m -47.7,65.4 c -23.7,11.3 -49.8,-0.9 -63.7,-21.2 -15.8,-23.2 -17,-55.3 -4.7,-80.2 11.1,-22.5 34.8,-38.2 60.3,-32.1 29.9,7.1 45.2,39.8 45.5,68.2 -0.3,26.4 -12.6,53.4 -37.4,65.3 z" />
				<path
   style="fill:#2b3252"
   inkscape:connector-curvature="0"
   id="path34"
   d="m 1145.4,335.1 c -20.3,-15.9 -47.7,-17.2 -69.4,-3.3 -23.3,14.9 -34.7,43.3 -35,70.1 0.3,26.5 11,52.4 32.6,68.5 19.8,14.8 46.7,14.8 67.2,1.6 45.5,-29.1 46.2,-104.3 4.6,-136.9 z m 11.8,102.9 c -11.1,22.5 -34.8,38.2 -60.3,32.1 -29.9,-7.1 -45.2,-39.8 -45.5,-68.2 0.3,-26.5 12.5,-53.5 37.3,-65.4 23.7,-11.3 49.8,0.9 63.7,21.2 15.9,23.3 17,55.3 4.8,80.3 z" />
				<path
   style="fill:#2b3252"
   inkscape:connector-curvature="0"
   id="path36"
   d="m 1054.7,568.9 c -6.8,-4.6 -13.9,-8.6 -21.1,-12.5 0,-0.3 0.1,-0.6 0.1,-0.9 -0.1,-8.1 -0.7,-16.3 -1,-24.4 -0.2,-3.5 -0.3,-7.2 -0.5,-10.9 3.8,-0.6 7.5,-2.3 10.6,-5 l 18.2,-15.8 c 6,-5.2 2.3,-15.1 -5.6,-15.1 h -53.6 c -8,0 -11.6,9.9 -5.6,15.1 l 18.2,15.8 c 3,2.6 6.6,4.3 10.3,5 0,3.7 0.1,7.3 0.1,10.9 0,8.1 0,16.3 0.5,24.4 0,0 0,0.1 0,0.1 -7.7,4.2 -15.3,8.4 -22.5,13.3 -6.8,4.5 -14.5,9.3 -18.5,16.7 -0.4,0.8 0.3,1.9 1.2,1.6 7.7,-2.4 13.9,-8.1 20.6,-12.5 7.2,-4.7 14.8,-8.9 22.6,-12.4 7.3,3.2 14.2,7.1 21,11.3 7.3,4.6 14,10.9 22.3,13.5 1,0.3 1.7,-0.8 1.2,-1.6 -4,-7.4 -11.7,-12 -18.5,-16.6 z" />
				<path
   style="fill:#2b3252"
   inkscape:connector-curvature="0"
   id="path38"
   d="m 902.6,277.2 c 6.2,-6.2 14.6,-11.5 19.7,-18.7 0.7,-1 -0.5,-2.5 -1.6,-2.1 -1.5,0.6 -2.9,1.3 -4.3,2.2 -2.1,-11.3 -4.8,-22.3 -9.3,-33 -5.3,-12.5 -12.6,-23.9 -20.5,-34.9 -1.2,-1.7 -4,-2.1 -5.1,0 -10.5,20.3 -17.9,41.2 -21.6,63.7 -3.4,21.2 -5.7,45.3 0.5,66.1 -3.7,6.4 -6.9,13 -10.3,19.6 -0.7,1.4 1.3,2.6 2.1,1.2 8.8,-15.7 20.7,-30.8 32.3,-44.5 5.7,-6.7 11.8,-13.3 18.1,-19.6 z M 863.9,315 c -0.5,0.7 -0.9,1.4 -1.4,2.1 0.1,-9.2 -0.5,-18.4 -0.4,-27.6 0,-11.2 1.4,-22.4 3.4,-33.5 3.7,-19.9 10,-39.8 18.9,-58.1 13.1,19.2 23,41.7 26.3,64.7 -3.7,3.1 -7.1,6.5 -10.3,9.5 -7,6.5 -13.7,13.4 -20,20.7 -5.9,7.2 -11.5,14.5 -16.5,22.2 z" />
				<path
   style="fill:#2b3252"
   inkscape:connector-curvature="0"
   id="path40"
   d="m 1196.5,320.7 c 6.1,-20.3 3.8,-43.4 0.8,-64.1 -3.3,-23.3 -11.1,-45 -21.9,-65.7 -1.1,-2.1 -3.9,-1.7 -5.1,0 -7.6,10.5 -14.4,21.3 -19.8,33.1 -5.1,11.1 -7.9,22.8 -10.1,34.7 -1.4,-0.8 -2.8,-1.6 -4.3,-2.2 -1.1,-0.5 -2.3,1.1 -1.6,2.1 4.7,6.7 12.4,11.8 18.3,17.4 6.5,6.2 12.5,12.9 18.3,19.6 12.2,14 24.5,29.8 33.5,46 0.8,1.4 2.8,0.2 2.1,-1.2 -3.3,-6.7 -6.5,-13.3 -10.2,-19.7 z m -2.1,-3.5 c -0.4,-0.7 -0.9,-1.5 -1.4,-2.2 -5,-7.7 -10.7,-15 -16.6,-22 -6.2,-7.3 -12.9,-14.2 -20,-20.7 -3.2,-3 -6.6,-6.5 -10.3,-9.5 3.2,-23 13.2,-45.5 26.3,-64.7 8.9,18.3 15.1,38.2 18.9,58.1 2.1,11 3.3,22.2 3.4,33.5 0.3,9.1 -0.3,18.2 -0.3,27.5 z" />
				<circle
   style="fill:#ffffff"
   id="circle42"
   r="15"
   cy="367"
   cx="928.29999" />
				<circle
   style="fill:#ffffff"
   id="circle44"
   r="6.5"
   cy="388.39999"
   cx="945.40002" />
				<circle
   style="fill:#ffffff"
   id="circle46"
   r="15"
   cy="367"
   cx="1090.6" />
				<circle
   style="fill:#ffffff"
   id="circle48"
   r="6.5"
   cy="388.39999"
   cx="1107.7" />
				<g
   id="g56">
					<path
   style="fill:#ec9153"
   inkscape:connector-curvature="0"
   id="path50"
   d="m 346.5,1005 c 32.7,16 59.5,41.6 85.2,67.3 25.8,25.7 51.4,52.2 82.8,70.5 25.8,15.1 56.4,24.2 85.7,20.8 -12.9,-0.2 -26,-5.3 -36.9,-11.5 -15.7,-9 -30.3,-20.2 -43.9,-32.1 -27,-23.7 -50.5,-50.9 -76.2,-76 -23.3,-22.6 -48.6,-43.1 -78.2,-56.9 -29.9,-13.9 -63.1,-21.3 -96.1,-17.7 -30.8,3.4 -60.5,15.8 -82.2,38.2 49,-25.4 110.2,-26.9 159.8,-2.6 z" />
					<path
   style="fill:#e0742b"
   inkscape:connector-curvature="0"
   id="path52"
   d="m 600.3,1163.7 c -29.3,3.4 -59.9,-5.7 -85.7,-20.8 -31.4,-18.4 -57.1,-44.9 -82.8,-70.5 -25.8,-25.7 -52.6,-51.3 -85.2,-67.3 -49.6,-24.3 -110.8,-22.8 -159.7,2.7 -0.3,0.3 -0.6,0.6 -0.9,0.9 -20.1,21.2 -32.7,49.5 -30.7,79.1 4.2,63.6 59.8,114.9 116.4,136.4 30.3,11.5 64.8,17.8 97.1,13 16.1,-2.4 32,-7.2 45.8,-16 9,-5.7 16.7,-12.8 23.5,-20.9 -4,-6 -8.7,-11.6 -14.1,-16.4 -17.7,-16.1 -42.1,-24.6 -66,-23 9.2,-8.7 21.2,-14.5 33.8,-16.3 -24.2,-6.9 -48.4,-13.9 -72.6,-20.8 -13.1,-3.8 -26.6,-7.7 -37.3,-16.3 -22.3,-17.8 -32.1,-56.7 -12.5,-77.4 0.2,-1 0.5,-2.1 0.8,-3.1 0.8,-2.6 5,-2.2 4.8,0.7 -1.9,43.9 53.2,48.4 83.4,59.8 16.9,6.3 33.5,14.2 48.9,23.9 14.5,9.1 29.5,19.7 41.2,32.3 2.2,2.4 0.9,7.1 -2.8,6.8 -2.7,-0.2 -5.3,-0.4 -8,-0.7 2.9,1.6 5.8,3.3 8.4,5.3 5.1,3.8 9.2,7.9 12.9,13.1 0.5,0.6 0.9,1.3 1.3,2 4.9,0.6 10,2.5 14.8,3.6 5.9,1.4 11.7,3.1 17.7,4.3 12.1,2.4 24.4,3.8 36.7,3.9 12.2,0.1 24.2,-0.5 36.3,-1.8 6.3,-0.7 12.6,-2 18.8,-3.3 5.5,-1.2 10.8,-3.1 16.5,-2.6 0.1,0 0.2,0 0.3,0.1 3.2,-3.6 6.3,-7.3 9.1,-11.2 -3.3,0.3 -6.7,0.5 -10.2,0.5 z" />
					<path
   style="fill:#ec9153"
   inkscape:connector-curvature="0"
   id="path54"
   d="m 281.9,1107.2 c 10.6,8.5 24.1,12.5 37.3,16.3 24.2,6.9 48.4,13.9 72.6,20.8 -12.6,1.8 -24.5,7.6 -33.8,16.3 23.9,-1.6 48.2,7 66,23 5.4,4.9 10.1,10.4 14.1,16.4 2.5,-3 4.9,-6 7.1,-9.2 -1.1,-1 -2.2,-2.1 -3.3,-3.2 -2.1,-2.3 0.5,-5.2 3.1,-4.1 6.4,2.8 12.2,6.7 17.9,10.7 -1.6,-6.3 -4,-12.3 -7.3,-17.8 -0.1,0 -0.1,-0.1 -0.2,-0.1 -0.7,-0.6 -1.1,-1.3 -1.2,-2.1 -0.6,-0.9 -1.2,-1.8 -1.8,-2.7 -6.3,-8.8 -15.3,-21.2 -26.5,-23.9 -2.1,-0.5 -2.4,-4.2 0,-4.5 3.1,-0.5 6.2,-0.7 9.4,-0.8 -12.6,-10.9 -25.3,-21.1 -40.1,-29.5 -17,-9.6 -35,-16.4 -54,-21 -18.5,-4.6 -39.3,-8.5 -54.1,-21.5 -11.5,-10.1 -20.9,-24.7 -17.8,-40.4 -19.5,20.6 -9.6,59.5 12.6,77.3 z" />
				</g>
				<g
   id="g90">
					<path
   style="fill:none"
   inkscape:connector-curvature="0"
   id="path58"
   d="m 1054.7,568.9 c -6.8,-4.6 -13.9,-8.6 -21.1,-12.5 0,-0.3 0.1,-0.6 0.1,-0.9 -0.1,-8.1 -0.7,-16.3 -1,-24.4 -0.2,-3.5 -0.3,-7.2 -0.5,-10.9 3.8,-0.6 7.5,-2.3 10.6,-5 l 18.2,-15.8 c 6,-5.2 2.3,-15.1 -5.6,-15.1 h -53.6 c -8,0 -11.6,9.9 -5.6,15.1 l 18.2,15.8 c 3,2.6 6.6,4.3 10.3,5 0,3.7 0.1,7.3 0.1,10.9 0,8.1 0,16.3 0.5,24.4 0,0 0,0.1 0,0.1 -7.7,4.2 -15.3,8.4 -22.5,13.3 -6.8,4.5 -14.5,9.3 -18.5,16.7 -0.4,0.8 0.3,1.9 1.2,1.6 7.7,-2.4 13.9,-8.1 20.6,-12.5 7.2,-4.7 14.8,-8.9 22.6,-12.4 7.3,3.2 14.2,7.1 21,11.3 7.3,4.6 14,10.9 22.3,13.5 1,0.3 1.7,-0.8 1.2,-1.6 -4,-7.4 -11.7,-12 -18.5,-16.6 z" />
					<path
   style="fill:none"
   inkscape:connector-curvature="0"
   id="path60"
   d="m 1015.9,401.9 c -0.3,-26.5 -11,-52.4 -32.6,-68.5 -19.8,-14.8 -46.7,-14.8 -67.2,-1.6 -45.5,29.1 -46.1,104.4 -4.6,136.9 20.3,15.9 47.7,17.2 69.4,3.3 23.4,-14.9 34.7,-43.2 35,-70.1 z" />
					<path
   style="fill:none"
   inkscape:connector-curvature="0"
   id="path62"
   d="m 860.4,320.6 c -3.7,6.4 -6.9,13 -10.3,19.6 -0.7,1.4 1.3,2.6 2.1,1.2 8.8,-15.7 20.7,-30.8 32.3,-44.5 5.8,-6.8 11.9,-13.4 18.2,-19.7 0.9,-0.9 1.9,-1.8 2.9,-2.7 5.8,-5.1 12.5,-9.9 16.8,-16 0.7,-1 -0.5,-2.5 -1.6,-2.1 -1.5,0.6 -2.9,1.3 -4.3,2.2 -2.1,-11.3 -4.8,-22.3 -9.3,-33 -5.3,-12.5 -12.6,-23.9 -20.5,-34.9 -1.2,-1.7 -4,-2.1 -5.1,0 -5.2,10 -9.6,20.2 -13.2,30.6 -3.7,10.7 -6.5,21.7 -8.4,33.1 -3.5,21.3 -5.8,45.4 0.4,66.2 z" />
					<path
   style="fill:none"
   inkscape:connector-curvature="0"
   id="path64"
   d="m 1196.5,320.7 c 6.1,-20.3 3.8,-43.4 0.8,-64.1 -3.3,-23.3 -11.1,-45 -21.9,-65.7 -1.1,-2.1 -3.9,-1.7 -5.1,0 -7.6,10.5 -14.4,21.3 -19.8,33.1 -5.1,11.1 -7.9,22.8 -10.1,34.7 -1.4,-0.8 -2.8,-1.6 -4.3,-2.2 -1.1,-0.5 -2.3,1.1 -1.6,2.1 4.7,6.7 12.4,11.8 18.3,17.4 6.5,6.2 12.5,12.9 18.3,19.6 12.2,14 24.5,29.8 33.5,46 0.8,1.4 2.8,0.2 2.1,-1.2 -3.3,-6.7 -6.5,-13.3 -10.2,-19.7 z" />
					<path
   style="fill:none"
   inkscape:connector-curvature="0"
   id="path66"
   d="m 1145.4,335.1 c -20.3,-15.9 -47.7,-17.2 -69.4,-3.3 -23.3,14.9 -34.7,43.3 -35,70.1 0.3,26.5 11,52.4 32.6,68.5 19.8,14.8 46.7,14.8 67.2,1.6 45.5,-29.1 46.2,-104.3 4.6,-136.9 z" />
					<path
   style="fill:#e0742b"
   inkscape:connector-curvature="0"
   id="path68"
   d="m 853.1,459.7 c -2.2,-65.2 16.7,-130.6 52.4,-185.2 -1,0.9 -2,1.8 -2.9,2.7 -6.4,6.3 -12.4,12.9 -18.2,19.7 -11.6,13.7 -23.5,28.8 -32.3,44.5 -0.8,1.4 -2.8,0.2 -2.1,-1.2 3.5,-6.6 6.6,-13.2 10.3,-19.6 -6.2,-20.8 -3.9,-45 -0.5,-66.1 1.9,-11.4 4.7,-22.4 8.4,-33.1 0.1,-19.4 1.7,-38.7 4.8,-57.8 -15.6,35.8 -23.3,75.5 -25.7,114.1 -1.7,26.8 -2.3,53.7 -1.9,80.6 0.2,13.5 0.7,27.1 1.4,40.6 0.4,6.8 0.8,13.5 1.3,20.2 0.4,6.2 0,11.8 -0.1,18 0,1.4 -2,1.7 -2.4,0.3 -0.9,-3.6 -2.5,-7.1 -3,-10.8 -0.4,-3.3 -0.9,-6.5 -1.3,-9.8 -0.1,-1 -0.2,-2.1 -0.3,-3.1 -10.1,22.3 -20,44.6 -27.3,68.1 -7,22.4 -12.6,45.2 -18.3,68 4.3,-3.1 8.6,-6.2 12.9,-9.3 7.9,-5.7 15.6,-12.1 24,-17 0.1,-0.1 0.2,-0.1 0.4,-0.2 1.1,-3 2.1,-6 3.2,-9.1 -7.5,4.4 -15.1,8.8 -22.7,13.4 2,-26.8 17.7,-52.8 39.9,-67.9 z" />
					<path
   style="fill:#ffffff"
   inkscape:connector-curvature="0"
   id="path70"
   d="m 950.7,1133 c -0.4,10.1 -0.8,20.3 -1.2,30.4 -3.6,-5.9 -7.3,-11.9 -10.9,-17.8 0.8,17.5 0.6,35.1 -0.6,52.5 4.2,-1 8.9,-0.7 13.3,-0.8 0.5,0 1.1,0 1.6,0 7.9,0 15.7,0 23.6,0.4 15.7,0.6 31.6,0.9 47.3,0.7 -0.6,-3.8 -1.3,-7.7 -2.4,-11.4 -2.2,-7.1 -5.1,-14.2 -9.3,-20.3 -4.4,-6.2 -10.9,-11.9 -19,-8.7 -3.5,1.4 -7.4,2.6 -10.6,4.8 -1.7,1.2 -3,2.4 -4.6,3.4 -1.2,2.4 -2.3,4.8 -3.7,7.1 -2,3.2 -4.3,6.2 -6.1,9.5 -0.4,0.7 -1.6,0.2 -1.3,-0.6 2.7,-8.6 4,-17.6 7.4,-26.1 2,-5 4,-10 6,-14.9 -5.2,4.6 -10.5,9.2 -15.7,13.8 -4.6,-7.3 -9.2,-14.6 -13.8,-22 z" />
					<path
   style="fill:#ffffff"
   inkscape:connector-curvature="0"
   id="path72"
   d="m 780.4,1185.3 c 5.5,-1.6 11,-3.3 16.5,-4.9 -7.4,5.2 -14.3,11.2 -20.5,17.8 31.4,0.3 62.7,0.6 94.1,0.8 -3.2,-17.2 -7.9,-36.4 -23.7,-45.8 -9.2,-5.5 -18.8,-5.6 -28.5,-1.2 -5.5,2.5 -10.8,5.3 -16.3,7.8 -8.5,7.3 -15.9,15.9 -21.6,25.5 z" />
					<path
   style="fill:#ffffff"
   inkscape:connector-curvature="0"
   id="path74"
   d="m 1094.9,1151.8 c -1.3,-5.6 -2.6,-11.1 -3.9,-16.7 -3,6.8 -6,13.6 -9.1,20.5 -0.1,-0.2 -0.3,-0.3 -0.4,-0.5 1.8,14.7 5.2,29.2 10.2,43.1 6.3,-0.2 12.5,-0.4 18.7,-0.4 10.9,0 21.8,0.2 32.7,0.2 -1.5,-6.7 -3.4,-13.4 -5.6,-20 -2.2,-6.4 -4.1,-15.4 -9.6,-19.9 -13.6,-11 -26,10.7 -32.7,19.5 -0.8,1 -2.4,0.5 -2.1,-0.9 1.5,-7.1 3.6,-13.1 7.9,-18.3 -0.4,-0.5 -0.6,-1.3 -0.6,-2.2 0.1,-4.2 0.3,-8.3 0.7,-12.5 -2.4,2.4 -4.5,5.1 -6.2,8.1 z" />
					<path
   style="fill:#ec9153"
   inkscape:connector-curvature="0"
   id="path76"
   d="m 1222.8,501.5 c 3.2,7 5.7,14.4 8.3,21.8 0.1,0.1 0.2,0.1 0.4,0.2 8.4,4.9 16.1,11.4 24,17 4.3,3.1 8.6,6.3 12.9,9.4 -5.6,-22.2 -11.2,-44.4 -18.4,-66 -7.6,-22.9 -17.6,-44.6 -27.6,-66.4 -0.1,0.5 -0.1,1.1 -0.2,1.6 -0.4,3 -0.2,7 -1.3,9.8 -1.1,2.8 -2,5.6 -2.7,8.5 -0.3,1.3 -2.4,1 -2.4,-0.3 0,-3.8 -0.8,-7.5 -0.5,-11.2 0.2,-3 0.4,-6 0.6,-9 0.4,-6.7 0.9,-13.5 1.2,-20.3 0.7,-13.5 1.2,-27 1.3,-40.6 0.3,-26.1 -0.1,-52.3 -1.9,-78.3 -3.1,-45.4 -12.9,-92.1 -34.6,-132.5 -12.1,17 -23.2,34.7 -33.1,53.2 -11.1,20.8 -19.8,42.5 -29.4,64 -0.4,0.9 -1,1.5 -1.6,1.8 6.5,3.5 13.9,7.6 17.2,13.8 0.4,0.7 -0.1,1.8 -1,1.7 -8,-0.8 -15.5,-6.6 -22.8,-9.7 -8.8,-3.8 -17.9,-7.1 -27.1,-9.9 -9,-2.7 -18.1,-4.8 -27.3,-6.1 -9.6,-1.4 -19,-0.9 -28.5,-1.6 -9.5,0.8 -19,0.2 -28.5,1.6 -9.2,1.4 -18.4,3.3 -27.3,6.1 -9.2,2.8 -18.3,6 -27.1,9.9 -7.2,3.2 -14.8,8.9 -22.8,9.7 -0.9,0.1 -1.3,-1 -1,-1.7 4,-7.5 14.2,-12.1 21.4,-16 0.3,-0.2 0.6,-0.3 0.9,-0.5 -9.4,-21.2 -18,-42.6 -29,-63.1 -9.9,-18.4 -21,-36.2 -33.1,-53.2 -3.2,6 -6.2,12.2 -8.9,18.4 -3.1,19.1 -4.7,38.5 -4.8,57.8 3.6,-10.4 8,-20.6 13.2,-30.6 1.1,-2.1 3.9,-1.7 5.1,0 7.9,10.9 15.2,22.4 20.5,34.9 4.5,10.6 7.2,21.6 9.3,33 1.4,-0.8 2.8,-1.6 4.3,-2.2 1.1,-0.5 2.3,1.1 1.6,2.1 -4.3,6.1 -11,10.9 -16.8,16 -35.8,54.6 -54.7,119.9 -52.4,185.2 -22.2,15.1 -37.9,41.1 -39.7,67.9 7.6,-4.5 15.2,-8.9 22.7,-13.4 1.6,-4.3 3.2,-8.6 5.1,-12.7 0.7,-1.6 3.6,-0.9 3.4,0.9 -0.3,2.5 -0.7,5 -1.1,7.4 4.5,-2.6 8.9,-5.2 13.4,-7.9 -11.6,30 -21.2,61.3 -26.1,93.1 13.3,-5.3 25.1,-14.5 33.5,-26.1 -5.9,35.3 -1.3,72.2 11.3,105.8 3.3,0 6.6,0.2 10,0.5 1.8,0.2 2.5,2.9 0.5,3.3 -12.7,2.7 -25.6,4.1 -38.4,6.2 -92,26.7 -176.2,84.9 -234.8,160.3 11.2,-3.7 22.4,-7.4 33.7,-11.1 -33.6,34 -57.4,80.4 -64.4,127.6 6.2,-5.8 12.4,-11.6 18.7,-17.4 -9.9,55.8 1.2,115 30.4,163.6 0.7,-4.8 1.2,-9.7 1.7,-14.7 0.3,-3.4 5.5,-4.7 6.4,-0.9 5.9,27.4 -5.3,57.1 -21.9,78.7 -4.3,5.6 -11.2,10.7 -14.2,17.1 -1.2,2.6 -2.4,8.2 1.7,9.2 3.3,0.8 6.8,0.5 10.2,0.5 17.6,0 35.2,0.1 52.8,0 36.1,0 72.3,0.2 108.4,0.5 6.3,-6.6 13.1,-12.6 20.5,-17.8 -5.5,1.6 -11,3.3 -16.5,4.9 5.8,-9.6 13.1,-18.2 21.6,-25.5 -3.4,1.6 -6.8,3 -10.3,4.3 -18.7,6.8 -38.9,9.8 -58.8,8.6 -10.2,-0.6 -20.3,-2.1 -30,-5 -4.6,-1.4 -9.6,-2.6 -13.9,-4.9 -4,-2.1 -7.7,-4.6 -11.6,-6.8 -2.2,-1.2 -0.7,-5 1.7,-4.1 5.5,2 11.2,2.9 16.8,4.5 5,1.4 10.1,2.6 15.2,3.4 1.5,0.2 2.9,0.5 4.4,0.7 12.3,-5.6 25.3,-9.5 37.8,-14.5 13.9,-5.6 27.7,-11.5 40.8,-18.7 23.2,-12.6 45.5,-28.8 61.3,-50.3 18.6,-25.5 29.5,-59.3 20.2,-90.6 -4.8,-16 -14.3,-29.7 -25.2,-42.1 -11.7,-13.3 -24,-26.2 -36.5,-38.8 -12.3,-12.4 -24.5,-25.6 -38,-36.7 -6.3,-5.1 -13.7,-10.3 -21.9,-11.5 -8.4,-1.2 -15.9,2.1 -22.8,6.6 -14.4,9.6 -27.9,20.8 -40.7,32.3 -6.7,6 -13.2,12.1 -20,18 -6.3,5.5 -12.6,10.6 -18.2,16.8 -0.7,0.8 -1.8,-0.4 -1.1,-1.1 6.2,-7.5 11.2,-15.9 17.7,-23.2 6.4,-7.3 13.3,-14 20.5,-20.5 7.2,-6.5 14.5,-12.7 22.1,-18.7 6.9,-5.4 14,-11.4 21.9,-15.2 16.1,-7.7 32,-4.8 46,5.9 4.1,3.1 8,6.5 11.9,9.9 20.3,-3.1 41,-3.4 61.4,-0.9 7.4,0.9 15.3,2.6 20.9,7.2 -3.9,-10.5 -7.7,-21.1 -9.4,-32 -0.2,-1 1.1,-1.6 1.7,-0.7 8.7,12.6 13.8,28.2 19.1,42.5 5.4,14.4 10.4,28.9 15.1,43.5 9.7,29.9 18.7,60 25.7,90.6 0.8,3.5 -2.1,5.9 -5.4,5.4 -4,-0.6 -8,-0.5 -11.8,0.3 4.2,3.2 8.5,6.5 12.7,9.8 2,1.5 1.2,4.9 -0.8,6 -6.3,3.5 -11.5,9.2 -13.2,16.2 3.9,-0.1 7.7,-0.8 11.4,-2.6 2.6,-1.2 5.2,0.7 4.7,3.6 -1.2,6.7 -2.4,13.5 -3.9,20.2 2.7,-0.3 5.4,-0.6 8.2,-0.9 1.3,-0.1 2.8,1.1 3,2.3 4.3,22 6.9,44.5 7.9,67 3.6,5.9 7.3,11.9 10.9,17.8 0.4,-10.1 0.8,-20.3 1.2,-30.4 4.6,7.3 9.2,14.7 13.9,22 5.2,-4.6 10.5,-9.2 15.7,-13.8 1.4,-3.4 2.8,-6.9 4.3,-10.3 0.8,-1.8 1.5,-3.6 2.3,-5.4 -0.1,-0.3 0,-0.6 0.1,-1 0.4,-1.5 1.1,-2.8 2,-4 5.2,-12.3 10.3,-24.5 15.6,-36.8 14,-32.8 28,-65.6 42.2,-98.3 14.2,-32.7 28.5,-65.4 43,-98 7.1,-15.9 14.2,-31.9 21.5,-47.7 7.1,-15.6 13.7,-32.4 23.4,-46.6 1.5,-2.3 5.2,-0.9 4.5,1.9 -1.7,6.4 -3.9,12.8 -6.5,19 4.6,29.9 2.4,60.8 -6.4,89.7 0.7,-1.1 1.4,-2.2 2.1,-3.3 1.5,-2.3 5.8,-0.9 4.7,2 -2.1,5.5 -4.4,10.9 -6.9,16.3 3.2,-0.4 6.6,-0.5 9.5,-1.6 -13,36.3 -30,71.3 -50.5,104 7,-2.4 14.7,-4.4 21.7,-6.8 -3.7,16 -12.4,30.8 -24.4,41.9 4.7,-1 9.1,-1.4 13.8,-2.4 -14,31.6 -18.8,67 -14.6,101.2 0.1,0.2 0.3,0.3 0.4,0.5 3,-6.8 6,-13.6 9.1,-20.5 1.3,5.6 2.6,11.1 3.9,16.7 1.7,-2.9 3.8,-5.6 6.2,-8 0.8,-10.4 2.2,-20.8 3.7,-31.2 2,-14.1 3.6,-28.4 6.7,-42.3 15.3,-70.2 40.6,-137.6 65.7,-204.7 12.5,-33.6 26.3,-67.4 32.5,-102.9 5.8,-33.4 3.8,-67.5 -6.8,-99.8 -0.4,-1.1 1.2,-1.7 1.8,-0.8 2.5,3.6 4.6,7.3 6.6,11.2 1.6,-9.1 4.8,-18.1 6.7,-27.2 2.6,-12.5 4.4,-25.1 4.9,-37.8 0.1,-3.6 3.5,-5.1 6.6,-3.8 5.7,2.5 11.2,5.6 16.7,8.5 -5.2,-16.5 -9.8,-33.2 -14.3,-49.9 -2.7,-10.2 -5.1,-20.6 -7,-31 -0.1,-0.5 -0.2,-0.9 -0.3,-1.4 -0.8,-1.1 -1,-2.4 -0.7,-3.6 -1.7,-8.2 -3.5,-16.4 -4.5,-24.7 -0.2,-1.7 2.7,-2.4 3.4,-0.8 z M 911.5,468.7 c -41.5,-32.6 -40.9,-107.8 4.6,-136.9 20.5,-13.1 47.4,-13.1 67.2,1.6 21.6,16.1 32.3,41.9 32.6,68.5 -0.3,26.9 -11.6,55.2 -35,70.1 -21.7,13.9 -49.1,12.6 -69.4,-3.3 z m 160.4,118.4 c -8.3,-2.6 -14.9,-9 -22.3,-13.5 -6.8,-4.2 -13.7,-8.1 -21,-11.3 -7.9,3.5 -15.4,7.7 -22.6,12.4 -6.7,4.4 -12.9,10 -20.6,12.5 -1,0.3 -1.7,-0.8 -1.2,-1.6 3.9,-7.4 11.6,-12.1 18.5,-16.7 7.3,-4.9 14.9,-9.1 22.5,-13.3 0,0 0,-0.1 0,-0.1 -0.5,-8.1 -0.5,-16.3 -0.5,-24.4 0,-3.6 -0.1,-7.2 -0.1,-10.9 -3.7,-0.7 -7.3,-2.3 -10.3,-5 L 996,499.4 c -6,-5.2 -2.3,-15.1 5.6,-15.1 h 53.6 c 8,0 11.6,9.9 5.6,15.1 l -18.2,15.8 c -3.1,2.7 -6.8,4.4 -10.6,5 0.3,3.7 0.4,7.3 0.5,10.9 0.4,8.1 1,16.3 1,24.4 0,0.3 0,0.6 -0.1,0.9 7.2,3.9 14.3,7.9 21.1,12.5 6.8,4.6 14.5,9.2 18.5,16.7 0.6,0.7 -0.1,1.8 -1.1,1.5 z M 1140.8,472 c -20.5,13.1 -47.4,13.1 -67.2,-1.6 -21.6,-16.1 -32.3,-41.9 -32.6,-68.5 0.3,-26.9 11.6,-55.2 35,-70.1 21.7,-13.9 49.1,-12.6 69.4,3.3 41.6,32.6 40.9,107.8 -4.6,136.9 z m 64,-130.5 c -9,-16.2 -21.3,-32 -33.5,-46 -5.9,-6.8 -11.9,-13.4 -18.3,-19.6 -5.9,-5.6 -13.6,-10.7 -18.3,-17.4 -0.7,-1 0.5,-2.5 1.6,-2.1 1.5,0.6 2.9,1.3 4.3,2.2 2.2,-11.9 5,-23.6 10.1,-34.7 5.4,-11.8 12.2,-22.7 19.8,-33.1 1.2,-1.7 4,-2.1 5.1,0 10.8,20.8 18.5,42.5 21.9,65.7 3,20.7 5.3,43.8 -0.8,64.1 3.7,6.4 6.9,13 10.3,19.6 0.6,1.4 -1.5,2.6 -2.2,1.3 z" />
					<path
   style="fill:#e0742b"
   inkscape:connector-curvature="0"
   id="path78"
   d="m 1132.6,814.1 c -4.2,10.3 -9.1,20.3 -13.5,30.3 -7,16 -14.1,31.9 -21.2,47.9 -14.5,32.6 -28.9,65.2 -43.2,97.8 -10.8,24.7 -21.5,49.5 -32.2,74.3 5.2,-6.8 10.3,-13.7 15.4,-20.6 11.1,-15.2 21.8,-30.7 32.2,-46.5 10.4,-15.7 20.4,-31.7 29.8,-48 8.8,-15.2 17,-30.7 26.3,-45.5 8.8,-29 11,-59.9 6.4,-89.7 z" />
					<path
   style="fill:#e0742b"
   inkscape:connector-curvature="0"
   id="path80"
   d="m 791.2,868 c 10.1,8.9 19.5,18.7 28.9,28.2 12.5,12.7 24.9,25.5 36.7,38.9 10.4,11.9 20.3,24.6 25.9,39.5 11,29.2 7.2,62.9 -7.3,90.2 -14.4,27.3 -37.6,48.9 -63.7,65 -14.5,8.9 -29.8,16.4 -45.6,22.8 -7.9,3.2 -15.9,6.5 -24.1,9.5 0.2,0 0.4,0 0.7,0 22.1,-0.8 42.9,-6.5 62.6,-16.4 9.6,-4.8 19.4,-9.2 30.3,-8.1 8.6,0.9 16.9,5.1 23.2,10.9 4.8,4.4 8.6,9.5 11.6,15 9.2,-2.1 19.5,-2.1 28.6,-3 10.7,-1 21.3,-2 32,-3 0,-12.1 -0.5,-24.3 -1.5,-36.4 -7.1,7.6 -16.8,14.1 -25.7,18.4 -11.2,5.4 -23.1,8.3 -35.4,10 -1.6,0.2 -1.8,-2.2 -0.4,-2.7 11.7,-3.8 22.3,-9.7 32.8,-16 10.1,-6 18.3,-14 27.6,-20.9 -0.9,-9.1 -2.1,-18.2 -3.5,-27.2 -3.1,0.2 -6.2,0.5 -9.3,0.7 -2.1,0.2 -3.1,-2 -2.8,-3.7 0.9,-6.3 2,-12.6 3.2,-18.9 -4.2,1 -8.3,1.2 -12.9,0.5 -1.6,-0.3 -2.2,-2.1 -2,-3.5 1.5,-8.4 5,-15.7 11,-21.3 -4.8,-3.5 -9.7,-7 -14.5,-10.6 -2.2,-1.6 -3.1,-5.7 0,-7.1 5.8,-2.7 11.8,-4.2 18,-4.3 -7.3,-28.4 -14.7,-56.9 -23.5,-84.9 -4.6,-14.6 -9.4,-29.2 -14.4,-43.7 -1.4,-3.9 -2.8,-7.8 -4.3,-11.8 -5.5,-4.5 -13.5,-6.3 -20.9,-7.2 -20.3,-2.3 -41,-2 -61.3,1.1 z" />
					<path
   style="fill:#e0742b"
   inkscape:connector-curvature="0"
   id="path82"
   d="m 864.4,569 c -8.5,11.6 -20.2,20.7 -33.5,26.1 4.9,-31.8 14.4,-63.1 26.1,-93.1 -4.5,2.7 -9,5.3 -13.4,7.9 -1,5.8 -2.2,11.5 -3.4,17.2 0.3,1.2 0.1,2.4 -0.7,3.6 -0.1,0.5 -0.2,0.9 -0.3,1.4 -2,10.4 -4.3,20.8 -7,31 -4.5,16.7 -9,33.4 -14.3,49.9 5.5,-2.9 11,-6 16.7,-8.5 3,-1.3 6.4,0.2 6.6,3.8 0.5,12.7 2.2,25.4 4.9,37.8 2.1,9.9 5.7,19.8 7.1,29.9 7.5,-0.8 15,-1.3 22.6,-1.2 C 863.2,641.2 858.5,604.3 864.4,569 Z" />
					<path
   style="fill:#bcbec0"
   inkscape:connector-curvature="0"
   id="path84"
   d="m 1070.9,1142.7 c 1,18.4 2,36.9 2.5,55.4 6.1,0.3 12.2,0.3 18.3,0.1 -5,-13.9 -8.4,-28.4 -10.2,-43.1 -3.5,-4.2 -7.1,-8.3 -10.6,-12.4 z" />
					<path
   style="fill:#e0742b"
   inkscape:connector-curvature="0"
   id="path86"
   d="m 1096.1,1053.8 c -4.7,1 -9.1,1.4 -13.8,2.4 12.1,-11.1 20.7,-25.9 24.4,-41.9 -7,2.4 -14.7,4.4 -21.7,6.8 20.5,-32.7 37.5,-67.6 50.5,-104 -2.9,1 -6.3,1.2 -9.5,1.6 -5.6,12 -12,23.5 -18.6,35 -9.3,16.4 -19,32.6 -29.2,48.4 -6.8,10.6 -13.9,21.1 -21.2,31.4 1.5,1 3,1.9 4.5,3 2.1,1.4 2.9,4.6 0.8,6.5 -3.9,3.5 -7.6,7.5 -10.5,12 3.2,0.5 6.4,1 9.6,1.6 2,0.3 2.9,3.1 1.9,4.7 -2.7,4.3 -4.5,8.4 -5.3,13 1.7,-1 3.4,-2 5.1,-3 1.9,-1.1 3.7,0.4 4,2.3 2.4,21.6 2.4,43.8 3.5,65.6 0.1,1.2 0.1,2.3 0.2,3.5 3.5,4.1 7.1,8.3 10.6,12.4 -4,-34.3 0.8,-69.7 14.7,-101.3 z" />
					<path
   style="fill:#e0742b"
   inkscape:connector-curvature="0"
   id="path88"
   d="m 600.9,944.2 c -6.2,5.8 -12.4,11.6 -18.7,17.4 7,-47.3 30.8,-93.7 64.4,-127.6 -11.2,3.7 -22.4,7.4 -33.7,11.1 58.6,-75.4 142.8,-133.7 234.8,-160.3 -0.7,0.1 -1.4,0.2 -2,0.3 -58.6,10.1 -116.4,32.1 -167.5,62.4 -25.8,15.3 -50.2,32.9 -72.5,52.9 -18.3,16.4 -34.6,34.3 -50.7,52.6 2.8,-0.8 5.6,-1.5 8.4,-2.2 1,-0.2 1.9,-0.1 2.6,0.2 2.2,-4.1 4.6,-8 7.3,-11.6 1.1,-1.5 3.7,-0.7 3.2,1.3 -3.5,13.4 -9.3,26.5 -13.7,39.6 -4.4,13.4 -8.1,26.9 -11.1,40.7 -4.8,21.6 -8,43.4 -9.6,65.4 1.1,-1.3 2.2,-2.7 3.3,-4 3,-3.6 8.6,-0.5 8.7,3.6 1.1,30.5 7.7,60.5 16.8,89.6 4.6,14.6 9.9,29.1 16,43.1 5.3,12 12.6,23.6 17,36 3.8,0.5 7.7,0.7 11.6,0.6 3.5,-5.6 6.5,-11.5 8.8,-17.9 3.5,-9.8 5.6,-19.8 7,-29.9 C 602.1,1059.2 591,1000 600.9,944.2 Z" />
				</g>
				<path
   style="fill:#e0742b"
   inkscape:connector-curvature="0"
   id="path92"
   d="m 1077.7,634.7 c -13.8,15.9 -35.3,24.8 -56.3,23.2 -16.9,-1.3 -33.2,-9.3 -44.8,-21.7 -4.2,-4.5 -2.5,-11.9 3.3,-14.1 30.5,-11.6 64.6,-13.8 96.3,-6.3 4.5,1.1 7.4,5.5 6.5,10 0,0 0,0.1 0,0.1 -0.6,3.3 -2.7,6.2 -5,8.8 z" />
			</g>
</svg>