<?xml version="1.0" encoding="UTF-8" standalone="no"?>
<!-- Generator: Adobe Illustrator 18.0.0, SVG Export Plug-In . SVG Version: 6.00 Build 0)  -->

<svg
   xmlns:dc="http://purl.org/dc/elements/1.1/"
   xmlns:cc="http://creativecommons.org/ns#"
   xmlns:rdf="http://www.w3.org/1999/02/22-rdf-syntax-ns#"
   xmlns:svg="http://www.w3.org/2000/svg"
   xmlns="http://www.w3.org/2000/svg"
   xmlns:sodipodi="http://sodipodi.sourceforge.net/DTD/sodipodi-0.dtd"
   xmlns:inkscape="http://www.inkscape.org/namespaces/inkscape"
   version="1.1"
   id="Layer_1"
   x="0px"
   y="0px"
   viewBox="0 0 964.1521 1135.186"
   enable-background="new 0 0 1700 1400"
   xml:space="preserve"
   sodipodi:docname="dog.svg"
   width="964.1521"
   height="1135.186"
   inkscape:version="0.92.4 (5da689c313, 2019-01-14)"><metadata
   id="metadata153"><rdf:RDF><cc:Work
       rdf:about=""><dc:format>image/svg+xml</dc:format><dc:type
         rdf:resource="http://purl.org/dc/dcmitype/StillImage" /><dc:title></dc:title></cc:Work></rdf:RDF></metadata><defs
   id="defs151">
	
	

		
		
		
	</defs><sodipodi:namedview
   pagecolor="#ffffff"
   bordercolor="#666666"
   borderopacity="1"
   objecttolerance="10"
   gridtolerance="10"
   guidetolerance="10"
   inkscape:pageopacity="0"
   inkscape:pageshadow="2"
   inkscape:window-width="1529"
   inkscape:window-height="941"
   id="namedview149"
   showgrid="false"
   fit-margin-top="0"
   fit-margin-left="0"
   fit-margin-right="0"
   fit-margin-bottom="0"
   inkscape:zoom="0.16857143"
   inkscape:cx="580.61788"
   inkscape:cy="510.01434"
   inkscape:window-x="0"
   inkscape:window-y="0"
   inkscape:window-maximized="0"
   inkscape:current-layer="Layer_1" />
<g
   id="g142"
   transform="translate(-298.52449,-132.51134)">
			<path
   d="m 1256.7,785.5 c -1.3,-2.8 -3,-5.6 -5,-8.1 2.7,-0.6 5.3,-1.5 7.9,-2.8 2.7,-1.3 2.2,-4.8 0.2,-6.3 -3.7,-2.8 -7.4,-5.7 -11.1,-8.5 2.4,-0.5 4.8,-1.2 7.2,-2.1 2.9,-1.1 4.3,-5.2 1.1,-7 -6.4,-3.7 -12.9,-7.4 -19.5,-10.7 -3.1,-1.5 -6.6,-3.8 -10.2,-5.4 -19.6,-13.1 -35.9,-30.3 -47.3,-51.3 -15,-27.6 -16.5,-58.8 -20,-89.4 -3.3,-28.2 -11.2,-54.8 -26.7,-78.9 -0.8,-1.2 -1.6,-2.4 -2.4,-3.6 17,-1.3 34,-2.7 51,-4.5 2.4,-0.3 3.2,-3 3,-4.9 -0.7,-5.3 -3,-10 -6.6,-13.5 11.8,-4.1 22.5,-11.2 30.8,-20.5 2.1,-2.4 1.3,-7.6 -2.8,-7.2 -0.9,0.1 -1.9,0.2 -2.8,0.2 16.7,-12.2 30.8,-27.5 42.1,-45.2 1.7,-2.6 -0.9,-6.7 -4.1,-5.6 -3.3,1.1 -6.7,2.3 -10,3.4 8.3,-12.3 12.9,-27 12.9,-42 0,-3.9 -5.9,-6.4 -7.8,-2.4 -3.3,6.9 -7.7,13 -13.1,18.1 6.6,-33.4 -4.3,-69.7 -28.5,-93.9 -13.6,-13.6 -31.6,-22.5 -50.2,-26.6 -18.2,-4 -40.1,-3.3 -56.8,5.3 -2.4,1.2 -0.9,4.8 1.7,4.3 0.2,0 0.3,-0.1 0.5,-0.1 0.3,0.6 0.9,1 1.6,1.1 4.9,0.8 9.8,1.1 14.6,2.3 5.5,1.4 10.6,3.7 15.5,6.4 9.3,5.3 17.2,13.5 23.1,22.3 13.3,19.7 15.1,43.6 8.6,66.1 -6.6,23.1 -22.1,43.6 -41.8,57.2 -9.6,6.6 -20.4,11.5 -31.6,14.5 -9.4,2.6 -18.6,2.4 -28.1,2.4 -17.4,-6.5 -36.1,-9.7 -54.6,-8.8 -28.3,1.4 -53.8,14.3 -76.6,30.3 -45,31.4 -90.1,82.1 -150.2,73.3 -0.8,-3.3 -1.5,-6.6 -2.1,-9.9 -1.9,-9.8 -2.4,-19.7 -2,-29.7 0.2,-4.8 0.8,-9.6 1.6,-14.3 0.5,-2.7 1.1,-5.4 1.4,-8.2 2.6,-2.7 4.6,-5.9 5.5,-9.6 3.7,1.4 7.8,1.7 9,-1.6 1.3,-3.4 0,-7.4 -2.1,-11.1 0.3,0.2 0.5,0.3 0.7,0.5 1.9,1.2 4,1.6 6.2,1.4 1.6,-0.1 2.7,-0.8 3.3,-2.3 3,-8.1 -3.2,-14.9 -8.4,-20.4 -1.8,-1.9 -3.7,-3.6 -5.7,-5 7.8,-7 11,-17.1 13.6,-27.1 3.2,-12.2 6.6,-23.3 15.2,-32.8 9.4,-10.4 21.7,-14.7 34.9,-18.2 11.5,-3.1 24.3,-7.2 31.8,-17.2 7.9,-10.7 7.1,-23.8 5.6,-36.4 -1.4,-11.6 -3.6,-23.2 -8.5,-33.9 -4.4,-9.5 -11.4,-16.2 -20.4,-20.8 -1.2,-4.3 -3.9,-8.2 -5.4,-12.5 -1.7,-5 -3.1,-10 -5.3,-14.8 -3.5,-7.5 -10.1,-13.5 -17.2,-17.5 -5.9,-3.3 -12.5,-4.4 -19.2,-4.2 -0.2,-0.2 -0.5,-0.3 -0.8,-0.3 -30.7,-2.2 -48.3,33.3 -62.6,54.9 -0.8,1.2 -1.5,2.3 -2.3,3.5 -11.1,-6.1 -22.4,-11.9 -34,-17.1 3.3,-21.6 6.3,-44.9 -1.4,-65.8 -7.3,-19.7 -24.1,-33.2 -44.1,-38.4 -26.9,-6.9 -53.1,3.9 -70,23.5 -10,-0.4 -19.3,4.8 -26.1,12.3 -9.8,10.8 -13.6,25.6 -16.2,39.5 -2.9,15.3 -5.7,30.9 -7.3,46.4 -1.2,11.6 5.9,23 18.8,20.5 14,-2.7 22.3,-18.5 30.2,-28.9 8.6,-11.2 17.1,-22.5 25.5,-33.8 1.3,2.7 2.9,5.2 4.2,7.8 1.5,3.1 2.5,6.4 3.6,9.7 -2.3,0.1 -4.5,0.3 -6.8,0.6 -4.1,0.5 -14,3.2 -10.5,9.6 2,3.6 6.9,2.7 10.4,3.3 2,0.3 3.9,0.8 5.8,1.4 -7.5,2.7 -14.8,6.1 -21.8,10 -8,4.5 -19.7,10.6 -20.7,20.8 -0.2,2.7 2.9,4.3 5.2,3.2 4.5,-2.4 9.3,-4 14.1,-4.9 -9.8,8.1 -18.2,17.7 -25,28.7 -3.9,6.3 -6.6,17.1 -14.6,19.1 -6.8,1.7 -13.9,1.3 -20.8,1.8 -12,-0.1 -24,1.3 -35.9,3.6 -13.6,2.7 -33.7,9.9 -36.5,25.5 -0.3,1.8 0.3,4.2 2.4,4.6 2.2,0.4 4.4,0.9 6.6,1.3 -3.4,4 -5.8,8.7 -7.2,13.9 -0.6,2.1 0.9,5 3.4,4.8 3.9,-0.3 7.6,-1.1 11.1,-2.5 -0.6,7.6 1.2,15.8 3.2,22.9 2.9,10.4 8.2,19.9 14.2,28.8 5.3,7.8 11.4,17.8 19.2,23.3 8.8,6.1 21.1,5.4 31.4,6.3 0.5,0 0.9,0 1.3,-0.1 1.1,11.5 7.2,21.5 15.4,29.6 -2.3,1.7 -3.6,5.2 -4.7,7.6 -2.2,4.5 -3.4,9.5 -4.3,14.4 -1,5 -1.3,10 -1.2,15.1 0.1,3.2 0.1,6.7 1.2,9.7 -4.2,9.6 -7.3,19.7 -9.3,29.5 -5.3,25.9 -3.5,54.7 8.5,78.5 11.1,21.8 35.3,36.9 59.9,28.9 4.7,-1.5 8.6,-3.8 11.8,-6.5 -5.8,26.7 -10.6,53.6 -17.9,79.9 -7.5,27.2 -16.9,54.1 -27.8,80.1 C 559,876.8 529.9,926.2 495,971 c -24.9,32 -53.2,60.5 -83.4,87.5 -7.4,-6.5 -19.7,-8.5 -28.8,-6.5 -5,1.1 -9.6,3.2 -13.7,6.1 -2,-2.4 -5,-4.3 -7.8,-5.3 -6.4,-2.3 -13.3,-1.9 -19.5,0.7 -15.7,6.7 -22.9,22.9 -29.6,37.6 -3.8,8.2 -7.3,16.4 -10.2,24.9 -2.7,7.9 -4.7,16.1 -2.6,24.4 2.8,11.4 15.7,18 25.1,12.2 0.3,0.9 0.6,1.8 1,2.7 8.5,18.2 32,16.2 47.6,8.5 5.5,9.6 16.4,12.3 27,11.7 14.4,-0.8 28.5,-3.7 42.2,-8.2 27.5,-9.2 51.3,-26.1 70.2,-48 14.5,-16.7 26,-35.8 36.6,-55.1 12,-21.9 23.4,-44.1 35.4,-66 12.4,-22.7 24.7,-45.3 37.5,-67.8 6.4,-11.2 12.6,-22.5 19.2,-33.6 6.8,-11.3 14.1,-22.2 20.5,-33.7 2.6,3.7 5.5,7.2 8.1,10.8 1.6,2.2 4.8,0.3 4.9,-1.9 0.3,-3.5 0.5,-7.1 0.8,-10.6 3.9,4.7 8.8,8.3 14.7,10.7 2.4,1 4.5,-1.6 4.1,-3.9 -1.7,-8.6 -3.5,-17.2 -5.7,-25.6 -1,-3.7 -2.3,-7.3 -3.7,-10.9 3.9,3.6 8,7 12.3,10.2 2.7,2 6,-1.1 5.4,-3.9 -0.6,-3 -1.2,-6 -1.7,-9 34.6,20.4 77.1,24 114.9,10.4 0.3,30 -2.4,59.9 -6.5,89.5 -2.2,15.3 -4.8,30.5 -7.7,45.6 -5,0.7 -10.3,4.8 -13.4,7.7 -6.9,6.2 -10.6,16.3 -12.9,25 -2.1,8 -2,16.5 3.5,23.2 2,2.4 6.1,4.7 10.1,5.3 -6.3,27.9 -14.3,56.2 -31.7,79.3 -7.8,10.4 -17.9,19.2 -29.1,25.6 -10,5.7 -20.4,8.1 -31.4,9.6 -5.4,0 -10.8,0.9 -15.7,2.9 -2.1,0.8 -4,1.9 -5.9,3.1 -3.2,-0.8 -6.5,-1.6 -9.8,-2.6 -7,-2.1 -14.1,-3 -21.1,-0.4 -14.1,5.3 -23,20.9 -30.2,33.2 -7.6,12.9 -18.3,30.3 -10.5,45.3 6.5,12.6 23.2,15.1 36.5,13.7 0.5,1.9 1.2,3.7 2.2,5.6 3.6,6.9 11.7,10.9 19.1,12.1 8.8,1.4 21.3,-0.2 28.7,-5.5 6.7,10.4 21,11.9 32,8.4 13.3,-4.2 25.2,-14.9 35.9,-23.6 46.1,-37.7 81.5,-87.6 106.2,-141.5 18.3,-39.9 31,-82.3 38.9,-125.4 2.9,1.9 6.1,3.5 9.4,4.9 3.7,1.4 6,-2.9 4.8,-5.8 -2.2,-5.2 -4.2,-10.3 -6.3,-15.5 1.2,0.7 2.4,1.4 3.5,2.1 3.1,1.9 7.9,-1 6.6,-4.8 -3.9,-11.6 -7.6,-23 -10.6,-34.6 14.6,-25.8 28.2,-52.2 41.2,-78.8 6.7,-13.7 13.1,-27.4 19.4,-41.2 3.3,-7.3 6.6,-14.8 9.5,-22.3 1.4,-3.6 3.9,-8.1 5.2,-12.5 2.8,2.8 5.8,5.5 8.7,8.2 2.7,2.5 6.5,0.3 5.9,-3.2 -0.6,-4.1 -1.2,-8.1 -1.9,-12.2 2.8,0.6 5.8,0.2 8.9,-1 1.6,-0.7 2.4,-3.3 1.4,-4.8 -6.5,-9 -10.8,-18.6 -14.7,-29 -0.2,-0.5 -0.4,-0.9 -0.7,-1.2 11.3,-16.7 23.8,-32.5 42.1,-41.5 6.9,17.3 14.6,34.1 25.8,49.1 8,10.7 18,19.7 29.7,26.3 13.2,7.4 28,11.3 42.3,15.9 13.7,4.4 27.6,9.9 38.5,19.5 11.2,9.9 16.2,23.8 18.1,38.2 2.1,15.6 0.7,32 -1.1,47.5 -1.9,16.4 -5.5,32.8 -10.7,48.4 -4,12.1 -10.7,25.1 -23.5,29.6 -6.9,2.5 -14.7,1.8 -21.9,2.2 -6.9,0.4 -13.4,1.9 -19.8,4.5 -21.3,8.7 -33.1,31.6 -31.8,53.9 0.6,9.6 3.7,19.2 10.8,26 8.6,8.2 21.5,9.6 32.1,4.8 0.4,-0.2 0.9,-0.4 1.3,-0.7 2,1 4.3,1.6 6.7,2 7.9,1.2 20.9,-1.5 26.8,-7.7 0.9,1 1.9,1.9 3,2.8 10.3,7.9 24,2.3 34.4,-2.3 12.3,-5.5 23.1,-14.6 31.7,-24.9 20.2,-24 22,-55.2 24.8,-85.2 3.2,-34.8 6.8,-69.6 9.7,-104.4 0.9,-14.6 0.6,-29.1 -5.6,-42.3 z M 1080.5,455.1 c 12.8,-2.3 24.9,-7.8 35.7,-15 22.8,-14.9 39.6,-38.2 47.1,-64.3 7.1,-24.6 4.3,-52.1 -10.8,-73.3 -7,-9.8 -16,-17.4 -26.5,-23.2 -4.5,-2.5 -9.7,-4.7 -15,-6.2 10.3,-0.9 20.6,-0.6 31.2,2 17.4,4.1 33.2,12.1 46.1,24.6 25.7,24.8 33.9,64.1 23.1,97.7 -1.2,3.7 3.1,7.5 6.5,5.3 6.2,-3.8 11.5,-8.4 16,-13.7 -2.8,11.1 -8.5,21.3 -16.7,29.8 -2.5,2.6 -0.3,8 3.6,6.6 4,-1.4 8.1,-2.9 12.1,-4.3 -12.5,17 -28.7,31.1 -47.1,41.6 -3.3,1.9 -2.5,8.1 1.9,7.8 2.4,-0.2 4.7,-0.3 7.1,-0.5 -7.9,6.3 -17.1,10.6 -27.2,12.9 -4.2,1 -3.9,6.6 -0.2,8 4,1.5 7.2,4.5 8.7,8.4 -17.1,1 -34.1,2.5 -51.1,4 -12.9,-16.8 -29,-31.1 -47.2,-42.1 -2.7,-1.6 -5.5,-3.2 -8.3,-4.6 3.8,-0.4 7.4,-0.9 11,-1.5 z M 597.8,220 c -10.6,13.7 -20.4,28.3 -31.6,41.5 -3.9,4.6 -11.8,10.7 -17.8,5.6 -5,-4.3 -1.6,-15.5 -0.7,-20.9 2.6,-16.1 4.3,-32.7 8.4,-48.5 3.7,-14.6 11.9,-27.3 25.8,-33.8 0.5,-0.3 1.1,-0.5 1.6,-0.7 -7.2,10 -12.2,21.7 -13.9,34.3 -0.2,1.7 2.5,2.1 2.9,0.5 11,-36.2 44.7,-66 84.1,-55.6 18.8,4.9 33.1,18.7 38.8,37.2 5.6,18.2 3.5,37.5 0.7,56.1 -2.4,-1 -4.7,-2 -7.1,-3 -0.1,0 -0.1,0 -0.2,-0.1 0.1,-0.3 0.2,-0.6 0.3,-0.9 2.5,-14.9 1.5,-29.8 -3.2,-44.2 -3.7,-11.3 -10.6,-24.4 -23.8,-25.9 -14.2,-1.6 -24.9,7.7 -33.3,18 -10.6,13 -20.6,26.9 -31,40.4 z m 44,9.5 c 1.6,1.3 3.3,2.5 5,3.8 -2.2,-0.4 -4.5,-0.7 -6.7,-1 -1,-11.5 -6.7,-26.2 -16.5,-32.7 3.3,-4.4 6.7,-8.9 10.1,-13.3 4.8,-6.2 10,-12 17.3,-15.4 17.7,-8.3 26,12.1 29.3,25.5 2.7,10.6 2.9,21.9 1,32.7 0,0.1 0,0.2 0,0.3 -6.1,-2.4 -12.4,-4.6 -18.7,-6.6 -6.6,-2 -15.9,-5.2 -21.3,1 -1.7,1.9 -1.4,4.1 0.5,5.7 z m -26.3,-19.3 c 1.1,-1.5 2.2,-2.9 3.3,-4.4 0.7,-1 1.5,-2 2.2,-3 2.7,4.1 5.7,7.8 8,12.2 2.8,5.3 4.2,10.9 5.1,16.6 -2.5,-0.2 -4.9,-0.3 -7.4,-0.3 -0.8,-3.7 -2.5,-7.5 -4.2,-10.8 -1.6,-3.5 -3.8,-7.6 -7,-10.3 z m -70.7,219.9 c -1.7,-10 -2.4,-20.4 -2.5,-30.6 0,-4.9 0.7,-9.6 4.4,-13.1 3.7,-3.4 9.7,-3.3 14.2,-2.3 9.4,2.1 18.4,9.4 26,15.1 8,6 15.5,12.9 22,20.5 6.4,7.5 11.2,20.4 1.4,27.4 -7.4,5.3 -18.7,5 -27.4,5.2 -10.6,0.2 -20.9,-1.2 -31.2,-3 -4.1,-5.5 -5.8,-12.6 -6.9,-19.2 z m 10.5,28.2 c 11,2 22.4,2.5 33.5,1.9 10.7,-0.5 23.1,-1.8 30.5,-10.6 7.4,-8.9 4.8,-21.3 -0.9,-30.2 -6.8,-10.5 -17.6,-19 -27.4,-26.4 -9.6,-7.2 -20.3,-14.6 -32.4,-16.4 -10.7,-1.7 -20.4,5.2 -22.7,15.5 -1.3,5.9 -0.6,12.3 -0.2,18.3 0.4,6.7 1.1,13.3 2.1,20 1,6.8 2.9,13.6 6.9,18.7 -8.1,-0.4 -18.1,-0.2 -24.2,-5.2 -6.7,-5.5 -12,-14.2 -16.8,-21.4 -5.3,-7.8 -9.5,-16.2 -12.4,-25.2 -2.9,-9.2 -2.6,-18.7 -4.9,-27.9 -0.3,-1.1 -1.1,-1.7 -2,-1.9 -0.9,-0.4 -1.9,-0.4 -3.1,0.2 -2.3,1.3 -4.6,2.3 -7,3 1.8,-3.8 4.3,-7 7.6,-9.9 2,-1.7 1.2,-5.5 -1.4,-6.1 -2.9,-0.6 -5.9,-1.3 -8.8,-1.9 5.8,-11.5 24.1,-15.3 35.2,-17.6 8,-1.6 16.1,-2.8 24.2,-3.9 2.9,0.1 5.7,0 8.7,-0.1 5.3,-0.2 10.6,0 15.9,-0.5 8.7,-0.8 13.2,-6.6 16.9,-13.8 8.8,-17.1 21.3,-31.8 37.3,-42.6 3,-2 2.2,-6.7 -1.7,-6.9 -6.6,-0.3 -13,0.4 -19.1,2.3 1.3,-1 2.6,-1.8 3.7,-2.6 3.4,-2.5 7.1,-4.8 10.8,-6.8 8.3,-4.6 17.2,-7.9 26.3,-10.4 2.5,-0.7 3.7,-4.7 1,-6 -5,-2.3 -10.1,-4.1 -15.5,-5.3 2.8,-0.3 5.7,-0.3 8.4,-0.4 14.4,-0.5 28.8,2.4 42.2,7.6 3.8,1.5 6.3,-4.3 2.9,-6.3 -6.3,-3.7 -12.3,-7.8 -18.1,-12.1 5.4,0 13,3.4 16.5,4.5 8.3,2.7 16.3,6 24.3,9.5 1.4,0.6 2.8,1.3 4.2,1.9 0.6,0.8 1.7,1.3 2.8,1.3 11.6,5.4 23.1,11.3 34.2,17.6 -7.1,10.6 -14.2,21.3 -20.6,32.2 -5.8,10 -6.3,23.4 5.8,28.5 5.4,2.2 12.3,0.3 17.5,-1.4 8.3,-2.7 16.5,-6 24.8,-8.9 4.7,-1.7 9.4,-3.6 14.1,-5.4 1.6,5.1 4.6,10 6.8,14.8 1.3,2.8 4.8,1.2 5.2,-1.2 0.9,-5.9 3.1,1.1 3.6,3.1 0.7,3.2 0.6,6.5 0.2,9.7 -0.2,1.4 1.3,3.1 2.7,2.9 1.5,-0.1 2.2,-0.2 3.5,-1.1 3.8,-2.7 3.2,2.5 2.6,5.6 -5.4,3.5 -10.3,7.8 -14.5,13.2 -2.5,3.2 2.9,7.7 5.5,4.5 9.1,-10.8 21.6,-16.8 35.2,-20 10.4,-2.5 25.2,-0.9 32.4,-10.4 8,-10.7 0.3,-23.3 -8.5,-30.4 -9.8,-7.9 -23.5,-9.9 -35.7,-9.2 -15.1,0.8 -29.3,6.7 -43.4,11.9 -7.4,2.8 -14.8,5.6 -22.1,8.5 -7.7,3 -15.9,7.5 -24.3,7.9 -10.5,0.6 -9.8,-10.9 -6.6,-17.5 3.7,-7.5 9,-14.5 13.6,-21.5 3.1,-4.8 6.2,-9.5 9.3,-14.2 1,-0.7 1.6,-1.7 1.8,-2.8 5.6,-8.5 11.1,-16.9 16.8,-25.3 7,-10.4 15,-20.9 25.3,-27.7 1.2,-0.6 2.5,-1.2 3.7,-1.8 4,-1.9 8.5,-2.6 12.9,-2.9 8,-0.6 15.6,2.2 22.1,6.7 7.2,4.9 11.1,12.5 13.7,20.5 1.2,3.7 2.3,8.1 4,12.1 -10.6,-3.8 -21.7,-7.4 -26.2,-18.9 -0.2,-0.6 -1.2,-0.3 -1.2,0.3 0.7,10.4 9.3,17.1 17.9,21.5 11.4,5.8 23,8.9 30.4,20.3 6.2,9.6 8.2,21.5 9.7,32.6 1.8,13 3.3,27.7 -7.1,37.6 -9.6,9.1 -24.5,10.4 -36.5,14.3 -11.1,3.6 -20.9,10.2 -28.4,19 -7.4,8.7 -11.3,18.9 -14.1,29.8 -2.7,10.6 -4.8,22.1 -13.8,29.3 -0.3,0.3 -0.5,0.5 -0.7,0.8 -3.1,-0.9 -6.5,-1.2 -10,-0.6 -1.4,0.2 -1.8,2.5 -0.5,3.2 5.8,2.9 11.7,3.9 16.7,8.4 3.6,3.2 9.4,8.6 9.7,13.9 -2.1,-0.7 -4.3,-2.5 -6.1,-3.3 -2.5,-1.1 -5.1,-0.7 -7.4,0.4 -1.7,0.8 -2.2,3.4 -0.8,4.7 2.9,2.7 4.9,5.6 6.1,9.4 0.8,2.5 0.6,0.7 -1.4,0 -2.3,-0.8 -3.6,-1.6 -6,-1.5 -1.8,0 -2.8,1.8 -2.2,3.3 -0.5,2.4 -1.4,4.4 -2.5,6.2 -0.2,0.1 -0.3,0.3 -0.5,0.5 -0.5,0.6 -0.9,1.2 -1.3,1.9 -7.1,8 -20.5,9 -31.1,9.6 -15.5,0.9 -28.2,5 -38.9,16.6 -10.8,11.7 -16.1,26.8 -24.3,40.2 -4.4,7.3 -8.8,14 -15.3,19.7 -0.7,0.6 -1.5,1.2 -2.2,1.8 -4.7,2.8 -9.8,4.2 -15,5.5 -0.3,-7.6 -0.1,-15.3 1.1,-22.8 0.9,0 1.8,-0.2 2.7,-0.9 11.6,-9.3 19.7,-23.8 27.2,-36.3 4.7,-7.7 9.3,-15.5 13.9,-23.2 1.6,-2.7 3.1,-5.5 4.6,-8.3 3.1,-2.9 6.1,-5.9 8.7,-9.2 3.5,-4.5 7.6,-10.3 9.4,-16.4 4.5,4.7 11.2,10.1 15.8,6.3 2.8,-2.4 3,-5.6 2.2,-9 0,-0.3 0,-0.5 0,-0.7 0.9,0.7 1.7,1.4 2.6,2.1 1.6,1.3 3.6,3.2 5.7,3.3 10.2,0.3 6.4,-10.9 3.7,-16.4 -4.6,-9.3 -12.6,-15.1 -22,-18.9 -1,-0.4 -1.8,1 -1.1,1.8 5.2,5.1 11.3,9.5 15.5,15.6 2,2.9 3.6,6.2 4.8,9.6 1.8,4.8 -3.6,0 -4.2,-0.6 -1.1,-0.9 -2.2,-1.9 -3.3,-2.7 -3.5,-2.6 -7.2,-0.7 -8.4,3.2 -0.6,1.9 3.1,9.4 -1.1,6.9 -3.7,-2.2 -6.6,-5.7 -9.1,-9.1 -0.4,-0.5 -0.8,-0.8 -1.2,-1 -1.2,-0.9 -3.3,-0.8 -4.1,0.7 -1.8,3.3 -2.6,7 -4.3,10.4 -1.8,3.6 -4.3,7 -7,10 -5.4,6.1 -11.9,11.5 -18.5,16.2 -14.1,10 -30.7,17.3 -48.1,19 -29.8,2.5 -56.1,-13.9 -67.4,-40.4 z M 790.7,312.6 c -3.1,-2 -5.6,-0.8 -7.2,1.3 -1.4,-2.9 -2.8,-5.8 -4.6,-8.4 8.9,-3.4 18,-6.6 27.4,-8.4 13.3,-2.4 27.7,-1 38.8,7.2 5.6,4.1 11,12.2 6.9,19 -3.2,5.2 -12.4,5.5 -17.7,6.1 -10.1,1.1 -19.9,3.6 -28.7,8 -0.1,-2.1 -0.8,-4.2 -2.2,-6.1 -1,-1.3 -3.5,-2.6 -5.1,-2.5 -0.7,0.1 -1.4,0.1 -2.1,0.3 0.1,-6.1 -0.9,-13.7 -5.5,-16.5 z M 640.5,535.7 c 0.1,-0.3 0.2,-0.5 0.2,-0.8 5,-16.3 14.5,-31.7 27,-43.4 2.4,-1.5 4.7,-3 6.9,-4.5 0.8,-0.6 1.6,-1.1 2.4,-1.7 -3.7,5.9 -7.5,11.7 -11.2,17.6 -4.2,6.8 -8.5,13.6 -13.1,20 -3.5,4.9 -7.7,8.9 -12.2,12.8 z m -78.2,-26.4 c 0.8,-4.7 2.2,-9.3 3.6,-13.8 0.5,-1.8 1.5,-3.6 1.8,-5.4 1.1,1 2.3,2 3.4,2.9 2.6,2 5.3,3.9 8.1,5.5 -7.1,6.9 -13,15 -17.9,23.8 -0.1,-4.4 0.3,-8.8 1,-13 z m 45,154.8 c -12.6,2.7 -25.8,-2.4 -34.9,-11.1 -20.1,-19.3 -23.2,-52.4 -20.1,-78.5 1.7,-14.5 6.2,-28.9 12.5,-42 5.4,-11.3 12.8,-21.2 20.5,-30.9 6,2.6 12.4,4.4 18.9,5.3 -2.8,4.7 -5.1,9.8 -7.3,14.7 -3.4,7.6 -6.3,15.3 -8.6,23.3 -4.2,14.4 -7.6,32 -2.8,46.6 0.1,0.3 0.6,0.4 0.7,0 1.4,-7.1 1.6,-14.2 2.4,-21.3 0.9,-8.1 2.3,-16 4.5,-23.8 2.1,-7.8 5.2,-15.3 8.8,-22.5 2.9,-5.8 6.9,-10.9 10.5,-16.2 2.7,0.1 5.4,0.1 8.1,-0.1 9,-0.5 17.8,-2.6 26.2,-5.7 -8.9,12.5 -14.8,27.9 -17.4,41.8 -5.6,30.7 5.8,61.9 1.8,92.7 -1.7,13.7 -9.9,24.7 -23.8,27.7 z m -279.2,460.3 c -1.9,5.3 -3.9,11.4 -4.5,17.4 -0.7,0.2 -1.4,0.5 -1.9,1.2 -3.3,3.8 -7.9,3 -11.2,-0.5 -4.4,-4.7 -3,-12.6 -1.6,-18.2 3.2,-12.3 8.9,-24.1 14.2,-35.6 4.7,-10.1 10.1,-20.3 20,-26.2 4.4,-2.6 9.3,-3.3 14.2,-2.5 2.2,0.4 4.2,1.3 6.1,2.3 -9.2,8.5 -16.1,20.4 -21.6,30.5 -5.4,10.2 -9.9,20.8 -13.7,31.6 z M 685.9,862.9 c -4.2,-2.5 -7.6,-6 -10.2,-10.3 -1.3,-2.2 -4.4,-1.3 -4.7,1.1 -0.4,3.6 -0.8,7.1 -1.2,10.7 -3,-3.9 -6,-7.9 -9.4,-11.4 -1.7,-1.8 -4.8,0.4 -3.5,2.6 0.4,0.6 0.8,1.3 1.2,1.9 -0.4,0.2 -0.7,0.6 -1,1 -9.6,14 -17.8,28.9 -26.5,43.5 -8.7,14.6 -17.8,28.9 -26.3,43.6 -17.1,29.2 -33.6,58.8 -49.4,88.7 -13.8,25.9 -27.4,52.1 -45.9,75.1 -18.8,23.3 -43.5,40.8 -72.1,50 -7.8,2.5 -15.7,4.3 -23.8,5.5 -7.3,1.1 -16.2,2.8 -23.4,0.8 -6.1,-1.7 -9.9,-7.4 -11,-13.4 -1.5,-7.9 5.3,-17 8.9,-23.6 4.3,-7.8 9,-15.3 14.2,-22.6 5.1,-7.1 10.5,-14.4 18.5,-18.5 18.1,-9.4 34.3,12.4 44.5,23.8 1.6,1.8 4.4,-0.4 3.3,-2.4 -6.8,-12.8 -15.1,-23.9 -29,-29.4 -13.2,-5.2 -25.9,0.6 -35.1,10.2 -10.4,10.8 -18.8,24.3 -25.9,37.3 -5,9.2 -9.5,17.9 -8,27.6 -6.7,2.3 -12.9,5.4 -20.3,5.5 -7.6,0.1 -14.8,-4 -16.7,-11.6 -2,-8 2.6,-17.9 5.3,-25.3 3.2,-8.8 7.1,-17.3 11.5,-25.6 7.3,-13.8 16.2,-28.6 30.9,-35.5 12.2,-5.7 25.8,0 32.3,11.1 1.3,2.3 5.3,1.6 5.2,-1.2 0,-2.4 -0.5,-4.6 -1.3,-6.6 42.6,-35.4 79.5,-78.6 110.5,-124.3 31.7,-46.7 57,-97.6 75.4,-150.9 7.2,-20.8 12.9,-42.3 17.7,-63.8 0.7,-3.1 1.4,-6.2 2,-9.4 0.3,37.3 8.8,74.1 32.5,103.3 2.2,2.7 5.8,0.4 6.3,-2.4 0.6,-4.1 1.2,-8.1 1.8,-12.2 3.3,5 6.9,9.8 10.9,14.4 0,0.3 0,0.6 0.1,0.9 2.1,7.8 3.6,15.7 6.1,23.4 1.7,6.2 3.7,12.3 5.6,18.4 z m 97.5,158.2 c -2.2,-5.7 0.2,-12.7 2,-18.2 1.9,-6 5.1,-11.3 9.4,-15.9 1.4,-1.5 3.1,-2.6 4.8,-3.6 -2.8,14.4 -5.9,28.7 -9,43.1 -0.6,0 -1.2,0 -1.8,-0.1 -2.5,-0.6 -4.5,-2.9 -5.4,-5.3 z m -143.5,204.7 c -0.6,3.2 -1.1,6.5 -1.2,9.7 -11.5,0.2 -27.3,0.3 -28.4,-14 -0.6,-6.9 3.4,-14 6.3,-19.9 3.1,-6.3 6.7,-12.4 10.4,-18.3 6.2,-9.7 14.1,-22.1 26.9,-22.4 3.9,-0.1 8.4,1.2 12.9,2.3 -8.5,9.6 -14.2,23.1 -18.5,33.8 -3.7,9.3 -6.5,18.9 -8.4,28.8 z M 999.3,752.6 c -1.1,-0.3 -2.1,-0.9 -3.1,-1.8 -2.7,-2.6 -6.6,-0.2 -6.1,3.3 0.5,3.2 1,6.4 1.5,9.6 -1.8,-1.5 -3.7,-2.9 -5.6,-4.3 0,-0.1 0,-0.3 -0.1,-0.4 -0.2,-1 -1.4,-1.5 -2.3,-1 -5.1,3 -7.2,10.9 -9.7,16 -3.5,7.3 -6.9,14.6 -10.3,21.9 -6.6,14 -13.1,28.1 -19.9,42 -11.7,23.8 -24,47.2 -36.8,70.4 -0.9,-4.5 -1.8,-9.1 -2.4,-13.7 -3.2,-21.7 -3.5,-43.9 -1.6,-65.8 0.5,-6.6 1.3,-13.1 2.4,-19.6 27.6,-10.9 50.6,-32.8 67.9,-56.5 5.1,-6.9 9.8,-14.3 14.7,-21.7 2.9,7.8 6.9,14.9 11.4,21.6 z m 252.4,99.3 c -3.6,34.6 -6.8,69.2 -11,103.7 -1.9,15.6 -5.3,31.3 -13.3,44.9 -7,11.9 -17.3,21.8 -29,29 -9.3,5.8 -26.6,15.8 -35.2,3.9 -4.1,-5.7 -3.4,-15 -3.3,-21.7 0.1,-7.6 1.7,-14.7 4.3,-21.8 1.7,-4.5 4.5,-8.3 8,-11.6 3,-2.8 -1.2,-7.2 -4.3,-4.6 -10.2,8.7 -15.1,20.6 -16.6,33.7 -1,8.8 -1.1,18.7 2.5,26.8 -3.1,0.8 -5.8,2.7 -8.9,3.8 -3.6,1.3 -7.4,2 -11.1,2.1 -2.5,0.1 -4.5,-0.5 -6.1,-1.5 -0.4,-0.5 -0.9,-0.9 -1.5,-1.2 -2.7,-2.8 -3.6,-7.4 -3.9,-11.9 -1,-14.8 3.6,-30 9.7,-43.3 0.4,-0.9 -0.9,-1.6 -1.6,-1 -13.4,13.5 -19.1,34.3 -15.5,53 0.4,2.1 1.1,3.9 2,5.6 -9.1,2.5 -18.1,-1.4 -22.6,-10.4 -4.2,-8.4 -3.7,-19.2 -1.6,-28 2.8,-11.6 10.5,-21 20.7,-27.1 12.9,-7.6 27.4,-5.2 41.5,-8.6 27.2,-6.7 34,-42.6 38.6,-65.6 3.2,-16.2 4.9,-32.7 5.2,-49.2 0.3,-13.6 -0.8,-27.9 -5.8,-40.7 -10.3,-26.3 -35.7,-37.4 -60.9,-45.4 -14.3,-4.5 -28.8,-8.7 -41.8,-16.6 -11.3,-6.9 -20.3,-17 -27.7,-27.8 -29.1,-42.8 -32.8,-102.3 -78,-133.5 -0.9,-0.6 -2,0.8 -1.2,1.5 21.6,18.1 33.4,45.1 43.3,70.8 2,5.2 3.9,10.4 5.9,15.6 -28.5,11.7 -44.4,41.5 -60.9,65.8 -9.4,13.9 -20,26.4 -32.5,37.6 -9.9,8.9 -21,16.3 -32.2,23.5 2.4,-12.5 5.6,-24.9 9.6,-36.9 6.8,-20.7 16.5,-39.9 25.5,-59.7 0.5,-1.1 -1.3,-2.2 -2.1,-1.3 -14,16.5 -23.4,36.7 -30.6,56.9 -7.6,21.5 -12.4,43.9 -14.9,66.5 -2.4,22.2 -1.8,44.4 1,66.5 1.2,9.2 2.8,18.5 4.9,27.7 -0.5,1.7 0,3.3 1,4.4 1.9,7.5 4.1,15 6.7,22.2 -1.1,-0.6 -2.1,-1.2 -3.2,-1.7 -3.9,-2 -7.5,1.7 -5.9,5.5 2.1,5.1 4.3,10.2 6.4,15.4 -0.9,-0.7 -1.8,-1.5 -2.7,-2.3 -0.2,-0.2 -0.4,-0.4 -0.7,-0.6 -2.2,-2.1 -4.1,-4.5 -5.8,-7.1 -2.9,-4.5 -10.4,-0.6 -7.4,4 1.7,2.6 3.6,5 5.6,7.2 -11.9,61.9 -31.8,122.3 -65,176.2 -15.5,25.2 -33.9,48.5 -54.9,69.4 -10.4,10.3 -21.5,20 -33.2,28.9 -10.4,7.9 -25.5,20.4 -39.2,13 -11.1,-6 -7.3,-25.3 -5.4,-35.1 2.8,-14.2 8.5,-27.3 15.5,-39.8 1.3,-2.3 -1.8,-5.3 -3.8,-3.1 -9.8,10.8 -16.6,24.3 -20.3,38.4 -2.8,10.5 -4.8,22.8 -1.8,33.5 -6.9,0.5 -13.4,3.6 -20.5,3.7 -7.1,0 -14.2,-3.5 -16.4,-10.6 -2.1,-6.7 0.3,-14.7 1.8,-21.2 1.8,-7.9 4.4,-15.6 7.5,-23.2 4.8,-11.9 11.4,-26.4 22.5,-34 1.9,-0.5 3.7,-1.4 5.3,-2.9 2,-0.8 4,-1.3 6,-1.5 3.1,0.4 6.3,0.5 9.4,0.3 9.1,1.5 18.2,5.7 26.8,7.4 3.5,0.7 5.4,-3.4 2.6,-5.6 -3.1,-2.4 -6.6,-4.5 -10.3,-6.3 15.1,-6 28.9,-17.1 38.7,-28.1 19.8,-22.2 29.5,-51.2 36.4,-79.6 7.8,-32.4 14.2,-65.4 19.6,-98.3 5.5,-33.5 9.1,-67.3 8.9,-101.3 -0.2,-39 -4.9,-81.5 -22,-117 -0.6,-1.3 -2.6,-0.4 -2.2,0.9 7.5,32 13.9,63.5 15.1,96.5 0,0.5 0,1 0,1.6 -38.3,15.2 -83.6,10.2 -118,-12.2 -2.8,-1.9 -6.3,0.9 -5.6,4.1 0.6,2.6 1.1,5.3 1.6,7.9 -11.7,-9.8 -21.6,-21.5 -29.4,-34.8 -1.8,-3 -5.7,-1.6 -6.2,1.5 -0.7,4.2 -1.5,8.4 -2.3,12.6 -13.8,-19.9 -21.2,-43.2 -24.4,-67.3 -3.7,-29 0,-58.2 2.8,-87.1 8.2,-15 6.9,-36.4 5.6,-52.8 -0.6,-7.6 -1.4,-15.3 -2,-23.1 12.8,-2.4 24,-13.5 31.8,-23.3 4.6,-5.8 8.2,-12.4 11.2,-19 0.6,-1.2 1.1,-2.4 1.6,-3.7 4.4,-8.7 8.8,-17.4 15.2,-24.9 5.7,-6.6 12.7,-11.5 21.2,-13.8 9,-2.4 18.8,-1.6 28.1,-2.6 4.2,-0.5 8.7,-1.7 12.9,-3.6 -1.1,5.9 -1.2,12.2 -1.5,17.4 -0.5,11.3 0.6,22.8 3.1,33.8 0.4,1.7 0.8,3.4 1.3,5 -0.1,0.6 0,1.3 0.5,1.7 2.3,7.7 5.7,14.9 10.6,21.6 3.8,5.2 14.1,14.7 21.2,11.3 0.4,-0.2 0.4,-0.6 0.1,-0.9 -2,-2.5 -5.5,-3.6 -8.2,-5.4 -4.2,-2.9 -7.4,-7.4 -9.8,-11.8 -2,-3.7 -3.5,-7.7 -4.8,-11.9 26.3,6.1 53.5,-2.2 76.9,-15.1 27.1,-15 49.6,-36.8 74.7,-54.7 25.2,-18 53.1,-31.2 84.7,-30.1 29.7,1 58.2,13.7 81.4,31.7 19.3,15 34.8,34.8 45.5,56.7 12.6,25.6 15.4,53.8 18.9,81.7 3.5,27.6 9.5,54.1 24.6,77.8 13.3,20.9 32.2,38.8 54.5,49.7 0.7,0.4 1.4,0.4 2.1,0.4 3.3,2 6.6,4 9.9,5.9 -1.9,0.4 -3.9,0.6 -5.9,0.7 -3.8,0.2 -5.2,4.7 -2.1,7 4.3,3.3 8.7,6.5 13,9.8 -1.7,0.3 -3.4,0.5 -5.2,0.5 -3.9,-2.9 -8.5,-4.9 -13.4,-5.2 -2.3,-0.1 -3.4,3.3 -1.3,4.4 12.7,6.7 20.6,16.5 23.5,30.8 3.3,15.9 -0.4,34 -2.1,50.6 z"
   id="path8"
   inkscape:connector-curvature="0"
   style="fill:#231f20" />
			<path
   d="m 677.4,393.6 c 6,0.1 11.2,-5.4 14.5,-9.7 4,-5.3 7.1,-11.4 8.3,-18 0.9,-4.8 -1.3,-11.9 -7.4,-11.8 -2.6,0.1 -4.8,0.9 -6.6,2.1 -5.4,2.6 -9.4,7.4 -12.9,12.2 -3.3,4.5 -6.8,10.4 -6.3,16.2 0.5,5.6 5,8.9 10.4,9 z"
   id="path10"
   inkscape:connector-curvature="0"
   style="fill:#231f20" />
			<path
   d="m 604.5,303.9 c -0.5,0.2 -0.9,0.5 -1.4,0.7 -0.5,0 -1.1,0.1 -1.6,0.3 -8.7,3.9 -24.9,20.1 -14.8,29.6 1.6,1.5 3.5,1.7 5.5,0.9 11.4,-4.5 18.3,-14.9 20,-26.8 0.6,-4.2 -4.5,-6.2 -7.7,-4.7 z"
   id="path12"
   inkscape:connector-curvature="0"
   style="fill:#231f20" />
			<path
   d="m 545.8,258.4 c 4.7,-2 9.2,-4.5 12.2,-8.7 5.5,-7.8 3.2,-19.4 -3.5,-26.2 -0.9,-0.9 -1.9,-1.8 -2.9,-2.5 -1.3,8.4 -2.4,16.9 -3.8,25.2 -0.5,3 -1.8,7.8 -2,12.2 z"
   id="path14"
   inkscape:connector-curvature="0"
   style="fill:#54293a" />
			<path
   d="m 630.7,157.6 c 11.1,-1.9 21.6,-6.9 30.3,-14 -1.4,-0.5 -2.8,-0.9 -4.3,-1.3 -21.4,-5.6 -41,0.6 -56.3,13.1 9.8,3.1 20.3,4 30.3,2.2 z"
   id="path16"
   inkscape:connector-curvature="0"
   style="fill:#54293a" />
			<path
   d="m 558,249.8 c -2.9,4.1 -7.4,6.7 -12.2,8.7 -0.1,3.5 0.4,6.7 2.7,8.7 5.9,5.1 13.8,-1 17.8,-5.6 11.2,-13.2 21,-27.8 31.6,-41.5 10.4,-13.5 20.4,-27.4 31.1,-40.5 8.4,-10.3 19.1,-19.6 33.3,-18 13.2,1.5 20.1,14.6 23.8,25.9 4.7,14.4 5.7,29.3 3.2,44.2 -0.1,0.3 -0.1,0.7 -0.3,0.9 0.1,0 0.1,0 0.2,0.1 2.4,1 4.7,2 7.1,3 2.8,-18.6 4.9,-37.9 -0.7,-56.1 -5.3,-17.1 -17.8,-30.1 -34.5,-35.9 -8.7,7.2 -19.2,12.1 -30.3,14 -10.1,1.7 -20.5,0.9 -30.3,-2.2 -13,10.7 -22.8,25.9 -27.8,42.5 -0.5,1.6 -3.2,1.2 -2.9,-0.5 1.8,-12.6 6.7,-24.3 13.9,-34.3 -0.6,0.2 -1.1,0.4 -1.6,0.7 -13.9,6.6 -22.1,19.2 -25.8,33.8 -2,7.6 -3.4,15.5 -4.6,23.3 1,0.8 2,1.6 2.9,2.5 6.6,6.8 8.9,18.4 3.4,26.3 z"
   id="path18"
   inkscape:connector-curvature="0"
   style="fill:#9e5626" />
			<path
   d="m 631.6,188.9 c -2.7,3.6 -5.4,7.1 -8.1,10.7 9.9,6.5 15.5,21.2 16.5,32.7 2.2,0.3 4.5,0.6 6.7,1 -1.7,-1.2 -3.3,-2.5 -5,-3.8 -2,-1.5 -2.2,-3.8 -0.6,-5.7 5.3,-6.2 14.7,-3 21.3,-1 3,0.9 6.1,1.9 9.1,3 -3.7,-9.8 -8.4,-19.3 -16,-26.6 -6.3,-6.2 -15.1,-10.3 -23.9,-10.3 z"
   id="path20"
   inkscape:connector-curvature="0"
   style="fill:#f57a46" />
			<path
   d="m 681.2,229.1 c 1.9,-10.8 1.6,-22.1 -1,-32.7 -3.4,-13.3 -11.6,-33.8 -29.3,-25.5 -7.2,3.4 -12.5,9.2 -17.3,15.4 -0.6,0.8 -1.3,1.7 -1.9,2.5 8.7,0 17.6,4.2 24,10.3 7.5,7.2 12.3,16.7 16,26.6 3.2,1.1 6.4,2.3 9.6,3.6 -0.1,-0.1 -0.1,-0.1 -0.1,-0.2 z"
   id="path22"
   inkscape:connector-curvature="0"
   style="fill:#d65e34" />
			<path
   d="m 618.8,205.8 c -1.1,1.5 -2.2,2.9 -3.3,4.4 3.2,2.7 5.3,6.8 7.1,10.4 1.6,3.3 3.4,7 4.2,10.8 2.5,0 4.9,0.1 7.4,0.3 -1,-5.8 -2.4,-11.4 -5.1,-16.6 -2.3,-4.3 -5.4,-8.1 -8,-12.2 -0.8,1 -1.6,2 -2.3,2.9 z"
   id="path24"
   inkscape:connector-curvature="0"
   style="fill:#9e5626" />
			<path
   d="m 610.3,447.1 c 9.8,-7 5,-19.9 -1.4,-27.4 -6.5,-7.6 -14,-14.5 -22,-20.5 -7.6,-5.7 -16.6,-12.9 -26,-15.1 -4.5,-1 -10.5,-1.2 -14.2,2.3 -3.7,3.5 -4.5,8.2 -4.4,13.1 0.1,10.2 0.8,20.6 2.5,30.6 1.1,6.6 2.8,13.7 7,19.1 10.3,1.8 20.6,3.2 31.2,3 8.7,-0.1 19.9,0.2 27.3,-5.1 z"
   id="path26"
   inkscape:connector-curvature="0"
   style="fill:#54293a" />
			<path
   d="m 729.7,340.1 c 7.1,3.8 15.8,3.1 23.7,1.4 7.9,-1.8 15.6,-4.6 23.7,-4.8 6.8,-0.2 14.1,2 18.5,6.9 1.2,-0.9 2.3,-1.7 3.5,-2.5 0.6,-3.1 1.2,-8.3 -2.6,-5.6 -1.2,0.9 -2,1 -3.5,1.1 -1.5,0.1 -2.9,-1.5 -2.7,-2.9 0.3,-3.2 0.5,-6.5 -0.2,-9.7 -0.5,-2 -2.6,-9.1 -3.6,-3.1 -0.4,2.4 -3.9,4 -5.2,1.2 -2.2,-4.7 -5.2,-9.6 -6.8,-14.8 -4.7,1.8 -9.4,3.7 -14.1,5.4 -8.2,3 -16.4,6.2 -24.8,8.9 -4.4,1.4 -9.9,3 -14.7,2.2 -1.1,6.2 2.9,13.2 8.8,16.3 z"
   id="path28"
   inkscape:connector-curvature="0"
   style="fill:#7a3915" />
			<path
   d="m 528.8,343.9 c 3.7,4.1 12,-2.4 15.5,1.9 1.3,1.6 1.1,4 2.1,5.7 1.8,3 6,2.9 9.4,3.1 7.8,0.5 15.1,4.3 21,9.4 5.9,5.1 10.6,11.4 15.3,17.7 21.6,-5.4 46.8,8.2 56.6,28.2 2,4.2 3.5,8.6 6,12.5 2.6,3.9 6.6,7.2 11.2,7.3 2.7,-2.8 5.4,-5.6 8,-8.4 2.3,3 4.7,6 7.9,8 3.2,2 7.5,2.7 10.7,0.9 2.3,-1.3 3.8,-3.7 5.8,-5.5 3.5,-3.4 8.6,-4.6 13.4,-4 -0.1,-0.1 -0.3,-0.2 -0.4,-0.4 -0.7,-0.7 0.1,-2.2 1.1,-1.8 9.4,3.8 17.4,9.6 22,18.9 2.7,5.5 6.5,16.7 -3.7,16.4 -2.2,-0.1 -4.2,-2 -5.7,-3.3 -0.9,-0.7 -1.7,-1.4 -2.6,-2.1 0,0.2 0,0.5 0,0.7 0.9,3.4 0.6,6.6 -2.2,9 -4.6,3.9 -11.3,-1.5 -15.8,-6.3 -1.7,6.1 -5.8,11.9 -9.4,16.4 -2.6,3.3 -5.6,6.4 -8.7,9.2 -1.5,2.8 -3,5.6 -4.6,8.3 -4.6,7.8 -9.2,15.5 -13.9,23.2 -7.6,12.5 -15.6,27.1 -27.2,36.3 -0.9,0.7 -1.8,0.9 -2.7,0.9 -1.2,7.5 -1.4,15.1 -1.1,22.8 5.2,-1.3 10.3,-2.7 15,-5.5 0.8,-0.6 1.5,-1.2 2.2,-1.8 6.4,-5.7 10.8,-12.4 15.3,-19.7 8.1,-13.4 13.5,-28.5 24.3,-40.2 10.7,-11.6 23.4,-15.8 38.9,-16.6 10.6,-0.6 24,-1.5 31.1,-9.6 0.4,-0.7 0.8,-1.3 1.3,-1.9 0.2,-0.2 0.3,-0.4 0.5,-0.5 1.1,-1.8 2,-3.8 2.5,-6.2 -0.7,-1.5 0.4,-3.3 2.2,-3.3 2.4,0 3.8,0.7 6,1.5 2,0.7 2.2,2.5 1.4,0 -1.2,-3.8 -3.2,-6.7 -6.1,-9.4 -1.4,-1.3 -0.9,-3.9 0.8,-4.7 2.3,-1.2 4.9,-1.5 7.4,-0.4 1.8,0.8 4,2.6 6.1,3.3 -0.3,-5.3 -6.1,-10.7 -9.7,-13.9 -4.9,-4.4 -10.9,-5.5 -16.7,-8.4 -1.3,-0.7 -0.9,-2.9 0.5,-3.2 3.6,-0.6 6.9,-0.3 10,0.6 0.2,-0.3 0.4,-0.5 0.7,-0.8 8.9,-7.3 11.1,-18.7 13.8,-29.3 2.8,-10.9 6.7,-21.1 14.1,-29.8 7.5,-8.9 17.3,-15.4 28.4,-19 12,-3.9 26.9,-5.3 36.5,-14.3 10.4,-9.9 9,-24.6 7.1,-37.6 -1.6,-11.1 -3.6,-23 -9.7,-32.6 -2.2,-3.4 -4.7,-6 -7.5,-8.2 -2.8,0.4 -5.7,0.7 -8.5,0.8 -10.6,0.4 -20.8,-2.3 -31.2,-4.1 -1,7.9 -6.4,15.2 -13.8,18.3 -0.7,-5.2 -1.9,-9.4 -0.4,-14.4 -4.2,7.5 -12.4,12.5 -20.9,12.7 1.9,-6.8 5.6,-13.3 12,-16.3 -9.8,-3.1 -20,-6.3 -27.4,-13.4 -1.8,-1.7 -3.3,-3.5 -4.7,-5.5 0,0 0,0 0,0 -5.6,8.4 -11.2,16.8 -16.8,25.3 -0.2,1.1 -0.9,2.2 -1.8,2.8 -3.1,4.7 -6.2,9.5 -9.3,14.2 -4.5,7 -9.9,14 -13.6,21.5 -3.2,6.5 -3.9,18 6.6,17.5 8.4,-0.5 16.6,-4.9 24.3,-7.9 7.4,-2.9 14.7,-5.7 22.1,-8.5 14,-5.2 28.2,-11.2 43.4,-11.9 12.2,-0.6 25.9,1.3 35.7,9.2 8.8,7.1 16.6,19.7 8.5,30.4 -7.2,9.5 -22,8 -32.4,10.4 -13.5,3.2 -26.1,9.2 -35.2,20 -2.6,3.1 -8.1,-1.3 -5.5,-4.5 3.3,-4.2 7,-7.7 11,-10.7 -4.4,-4.9 -11.7,-7 -18.5,-6.9 -8.1,0.2 -15.8,3 -23.7,4.8 -7.9,1.8 -16.5,2.4 -23.7,-1.4 -5.8,-3.1 -9.8,-10.1 -8.8,-16.4 -0.9,-0.2 -1.9,-0.4 -2.7,-0.8 -12.1,-5.1 -11.6,-18.5 -5.8,-28.5 6.4,-11 13.5,-21.6 20.6,-32.2 -11.2,-6.3 -22.6,-12.2 -34.2,-17.6 -1.1,0 -2.2,-0.4 -2.8,-1.3 -1.4,-0.6 -2.8,-1.3 -4.2,-1.9 -8,-3.5 -16,-6.8 -24.3,-9.5 -3.5,-1.1 -11.1,-4.5 -16.5,-4.5 5.8,4.4 11.9,8.4 18.1,12.1 3.4,2 0.9,7.8 -2.9,6.3 -13.4,-5.2 -27.8,-8.1 -42.2,-7.6 -2.7,0.1 -5.6,0.1 -8.4,0.4 5.4,1.2 10.5,3 15.5,5.3 2.7,1.3 1.5,5.3 -1,6 -9.1,2.4 -18,5.8 -26.3,10.4 -3.7,2.1 -7.3,4.3 -10.8,6.8 -1.1,0.8 -2.4,1.7 -3.7,2.6 6.1,-1.9 12.5,-2.7 19.1,-2.3 3.9,0.2 4.6,4.9 1.7,6.9 -16,10.8 -28.5,25.4 -37.3,42.6 -3.7,7.3 -8.3,13.1 -16.9,13.8 -5.2,0.5 -10.6,0.3 -15.9,0.5 -2.9,0.1 -5.7,0.2 -8.4,0.1 -0.9,1.6 -1.7,3.2 -2.5,4.8 -0.9,2.8 -1.8,6 0,8.1 z m 147.7,-13.7 c 1.9,-1.5 4.3,-2.2 6.6,-2.6 3.7,-0.6 7.4,-0.6 11.1,-0.3 3.6,0.3 7.3,0.9 10,3.3 2.7,2.4 3.5,7.1 0.9,9.5 -5.3,3.8 -12.3,3.7 -18.8,3.5 -2.7,-0.1 -5.5,-0.2 -7.9,-1.3 -2.5,-1 -4.7,-3.2 -4.9,-5.9 -0.3,-2.4 1.1,-4.7 3,-6.2 z m -3.2,38.2 c 3.5,-4.7 7.5,-9.6 12.9,-12.2 1.8,-1.3 3.9,-2.1 6.6,-2.1 6.1,-0.2 8.3,7 7.4,11.8 -1.2,6.6 -4.3,12.7 -8.3,18 -3.3,4.3 -8.5,9.8 -14.5,9.7 -5.3,-0.1 -9.9,-3.3 -10.4,-8.9 -0.5,-5.8 3,-11.8 6.3,-16.3 z m -47.8,-84.9 c 1.2,-2.5 3,-5.1 5.6,-6 4.5,-1.6 9.4,2.3 10.7,6.9 1.3,4.6 0,9.4 -1.4,14 -1,3.2 -2,6.6 -4.2,9.2 -2.2,2.6 -5.9,4.2 -9,3 -3.9,-1.5 -5.3,-6.3 -5.4,-10.5 -0.1,-5.8 1.2,-11.5 3.7,-16.6 z m -24,21.4 c 0.6,-0.2 1.1,-0.3 1.6,-0.3 0.5,-0.3 1,-0.5 1.4,-0.7 3.2,-1.5 8.3,0.5 7.7,4.7 -1.7,11.9 -8.6,22.3 -20,26.8 -2,0.8 -3.9,0.7 -5.5,-0.9 -10.1,-9.5 6.1,-25.7 14.8,-29.6 z"
   id="path30"
   inkscape:connector-curvature="0"
   style="fill:#9e5626" />
			<path
   d="m 790.7,254.6 c -6.3,3 -10.1,9.5 -12,16.3 8.5,-0.3 16.8,-5.3 20.9,-12.7 -1.5,5 -0.3,9.3 0.4,14.4 7.3,-3.2 12.8,-10.4 13.8,-18.3 10.5,1.8 20.6,4.5 31.2,4.1 2.8,-0.1 5.7,-0.4 8.5,-0.8 -6.7,-5.3 -14.8,-8 -22.9,-12.1 -8.6,-4.4 -17.2,-11.1 -17.9,-21.5 0,-0.6 1,-0.9 1.2,-0.3 4.5,11.5 15.6,15.1 26.2,18.9 -1.7,-4 -2.8,-8.4 -4,-12.1 -2.6,-8.1 -6.5,-15.6 -13.7,-20.5 -6.5,-4.4 -14.1,-7.2 -22.1,-6.7 -4.4,0.3 -8.9,1 -12.9,2.9 -1.2,0.6 -2.4,1.2 -3.7,1.8 -10.3,6.8 -18.3,17.2 -25.3,27.6 1.4,2 2.9,3.8 4.7,5.5 7.7,7.2 17.8,10.5 27.6,13.5 z"
   id="path32"
   inkscape:connector-curvature="0"
   style="fill:#54293a" />
			<path
   d="m 652.7,522.8 c 4.7,-6.5 8.9,-13.3 13.1,-20 3.7,-5.9 7.4,-11.8 11.2,-17.6 -0.8,0.6 -1.6,1.1 -2.4,1.7 -2.3,1.6 -4.6,3.1 -6.9,4.5 -12.5,11.8 -22,27.1 -27,43.4 -0.1,0.3 -0.2,0.5 -0.2,0.8 4.5,-3.8 8.7,-7.8 12.2,-12.8 z"
   id="path34"
   inkscape:connector-curvature="0"
   style="fill:#54293a" />
			<path
   d="m 571.1,493 c -1.2,-0.9 -2.3,-1.9 -3.4,-2.9 -0.4,1.8 -1.3,3.6 -1.8,5.4 -1.4,4.5 -2.8,9.1 -3.6,13.8 -0.7,4.2 -1.1,8.6 -1,12.9 4.9,-8.8 10.9,-16.9 17.9,-23.8 -2.8,-1.6 -5.5,-3.4 -8.1,-5.4 z"
   id="path36"
   inkscape:connector-curvature="0"
   style="fill:#7a3915" />
			<path
   d="m 590.3,538.4 c 1.9,-5.7 4.2,-11.4 6.6,-16.9 2.2,-4.9 4.4,-10 7.3,-14.7 -6.5,-0.9 -12.9,-2.7 -18.9,-5.3 -7.7,9.7 -15.1,19.6 -20.5,30.9 -4.2,8.7 -7.6,17.9 -9.9,27.3 9.8,-9.9 22.1,-17.1 35.4,-21.3 z"
   id="path38"
   inkscape:connector-curvature="0"
   style="fill:#d65e34" />
			<path
   d="m 596,536.8 c -1.2,3.1 -2.2,6.2 -3.1,9.4 -2.1,7.8 -3.6,15.7 -4.5,23.8 -0.8,7.2 -1,14.2 -2.4,21.3 -0.1,0.4 -0.6,0.3 -0.7,0 -4.8,-14.6 -1.4,-32.1 2.8,-46.6 0.6,-2.1 1.3,-4.3 2,-6.4 -13.3,4.2 -25.6,11.4 -35.3,21.3 -1.2,4.9 -2.1,9.8 -2.7,14.7 -3.1,26.1 0,59.3 20.1,78.5 9.1,8.7 22.3,13.9 34.9,11.1 13.9,-3 22.1,-13.9 23.9,-27.8 3.9,-30.8 -7.5,-61.9 -1.8,-92.7 0.5,-2.6 1.1,-5.2 1.8,-7.8 -11.5,-2 -23.5,-1.6 -35,1.2 z"
   id="path40"
   inkscape:connector-curvature="0"
   style="fill:#f57a46" />
			<path
   d="m 620.4,507.5 c -2.7,0.2 -5.4,0.2 -8.1,0.1 -3.6,5.3 -7.6,10.4 -10.5,16.2 -2.2,4.3 -4.1,8.6 -5.8,13.1 11.5,-2.8 23.4,-3.2 35,-1 3.1,-11.7 8.3,-23.8 15.6,-34 -8.4,3 -17.2,5 -26.2,5.6 z"
   id="path42"
   inkscape:connector-curvature="0"
   style="fill:#d65e34" />
			<path
   d="m 642.3,881.9 c -19.6,-27.8 -33,-60 -39,-93.5 -0.2,0.6 -0.4,1.3 -0.6,1.9 -18.5,53.3 -43.8,104.2 -75.4,150.9 -2,3 -4.1,5.9 -6.1,8.9 5.8,11.8 9.7,24.6 11.4,37.7 2,-5.2 4.1,-10.5 6.1,-15.7 7.1,10.9 7.7,25.7 1.7,37.2 3,-4.4 4.7,-7.7 7.7,-12.1 0.7,11.8 -1.4,23.7 -6.1,34.6 2.4,3.6 4.3,9.1 5.9,15.5 2.3,-4.3 4.6,-8.6 6.8,-12.9 15.9,-29.9 32.4,-59.5 49.4,-88.7 8.6,-14.7 17.6,-29 26.3,-43.6 4.1,-6.8 7.9,-13.5 11.9,-20.2 z"
   id="path44"
   inkscape:connector-curvature="0"
   style="fill:#9e5626" />
			<path
   d="m 657,858.5 c 0.3,-0.4 0.6,-0.8 1,-1 -0.4,-0.6 -0.8,-1.3 -1.2,-1.9 -1.3,-2.2 1.8,-4.3 3.5,-2.6 3.4,3.5 6.4,7.5 9.4,11.4 0.4,-3.6 0.8,-7.1 1.2,-10.7 0.3,-2.5 3.4,-3.4 4.7,-1.1 2.6,4.3 6.1,7.8 10.2,10.3 -1.9,-6.1 -4,-12.2 -5.9,-18.3 -2.5,-7.7 -4,-15.6 -6.1,-23.4 -0.1,-0.3 -0.1,-0.6 -0.1,-0.9 -3.9,-4.5 -7.5,-9.4 -10.9,-14.4 -0.6,4.1 -1.2,8.1 -1.8,12.2 -0.4,2.8 -4,5.1 -6.3,2.4 -23.8,-29.1 -32.2,-66 -32.5,-103.3 -0.6,3.1 -1.3,6.2 -2,9.4 -4.6,20.8 -10.1,41.6 -17,61.9 6,33.5 19.4,65.7 39,93.5 4.8,-8 9.6,-15.9 14.8,-23.5 z"
   id="path46"
   inkscape:connector-curvature="0"
   style="fill:#7a3915" />
			<path
   d="m 788.9,1026.3 c 0.6,0.1 1.2,0.1 1.8,0.1 3.1,-14.3 6.2,-28.7 9,-43.1 -1.8,1 -3.5,2.1 -4.8,3.6 -4.3,4.6 -7.4,9.9 -9.4,15.9 -1.8,5.5 -4.2,12.5 -2,18.2 0.8,2.5 2.8,4.8 5.4,5.3 z"
   id="path48"
   inkscape:connector-curvature="0"
   style="fill:#e2a468" />
			<path
   d="m 996.2,750.8 c 0.9,0.9 2,1.5 3.1,1.8 -4.6,-6.7 -8.6,-13.8 -11.3,-21.4 -4.9,7.4 -9.6,14.8 -14.7,21.7 -17.3,23.6 -40.3,45.6 -67.9,56.5 -1,6.5 -1.8,13 -2.4,19.6 -0.7,8.4 -1.1,16.9 -1.1,25.3 15.3,-5.6 30.1,-12.6 44.2,-20.8 6,-12.4 11.8,-24.9 17.7,-37.4 3.4,-7.3 6.8,-14.6 10.3,-21.9 2.5,-5.1 4.6,-13 9.7,-16 0.9,-0.5 2,0 2.3,1 0,0.1 0,0.3 0.1,0.4 1.9,1.4 3.7,2.8 5.6,4.3 -0.6,-3.2 -1.1,-6.4 -1.5,-9.6 -0.6,-3.7 3.2,-6 5.9,-3.5 z"
   id="path50"
   inkscape:connector-curvature="0"
   style="fill:#7a3915" />
			<path
   d="m 904.6,894.7 c 0.7,4.6 1.5,9.2 2.4,13.7 12.7,-23.2 25.1,-46.6 36.8,-70.4 0.7,-1.5 1.5,-3.1 2.2,-4.6 -14.1,8.2 -28.9,15.2 -44.2,20.8 0,13.6 0.9,27.2 2.8,40.5 z"
   id="path52"
   inkscape:connector-curvature="0"
   style="fill:#9e5626" />
			<path
   d="m 838.3,897.7 c -1.1,-10.9 -6.3,-21.5 -14.1,-29.2 -1,27.2 -4.2,54.3 -8.6,81.2 -0.1,0.6 -0.2,1.2 -0.3,1.8 0,0 0,0 0,0 15.2,-13.5 25.1,-33.7 23,-53.8 z"
   id="path54"
   inkscape:connector-curvature="0"
   style="fill:#54293a" />
			<path
   d="m 1207.7,895.7 c 5.4,3.9 9.9,9.2 12.8,15.3 1.6,-6.5 6.5,-12.1 12.7,-14.7 -0.9,4.9 -1.8,9.8 -2.6,14.7 4.8,-3.4 10.2,-5.9 15.8,-7.3 1.8,-17.3 3.5,-34.6 5.3,-51.8 1.7,-16.5 5.4,-34.6 2.1,-51.2 -2.9,-14.2 -10.7,-24.1 -23.5,-30.8 -2.1,-1.1 -1,-4.5 1.3,-4.4 5,0.3 9.5,2.3 13.4,5.2 1.8,0 3.5,-0.1 5.2,-0.5 -4.3,-3.3 -8.7,-6.5 -13,-9.8 -3.1,-2.3 -1.7,-6.8 2.1,-7 2,-0.1 4,-0.4 5.9,-0.7 -3.3,-1.9 -6.6,-3.9 -9.9,-5.9 -0.7,0.1 -1.4,0 -2.1,-0.4 -22.3,-10.9 -41.2,-28.7 -54.5,-49.7 -4,-6.2 -7.3,-12.7 -10.1,-19.3 -13.9,-2.9 -26.8,-10.2 -35.4,-21.4 -15.6,-20.4 -14.3,-50 -3.4,-73.2 3.8,-8.2 8.7,-15.8 14.1,-23 -2.2,-7.7 -5,-15.3 -8.6,-22.6 -10.7,-21.9 -26.2,-41.7 -45.5,-56.7 -23.2,-18 -51.8,-30.7 -81.4,-31.7 -7.8,-0.3 -15.4,0.3 -22.8,1.7 7.4,14.4 11.2,30.6 10.1,46.8 -4.5,-5.4 -8.9,-10.7 -13.4,-16.1 6.5,24.7 4.2,51.7 -6.4,75 -1.6,-5.3 -2.5,-11.6 -4.2,-16.9 0.1,17.3 -10.2,34.2 -25.6,42 -1.6,-9.9 0.7,-19.2 7.3,-26.6 -25.3,24.3 -63,34.8 -97.2,27.1 -20.8,-4.7 -40,-16.1 -54.6,-31.7 -9.8,1.2 -19.8,1 -29.6,-1.3 1.3,4.2 2.8,8.2 4.8,11.9 2.4,4.4 5.6,8.9 9.8,11.8 2.7,1.8 6.1,2.8 8.2,5.4 0.2,0.3 0.2,0.7 -0.1,0.9 -7.1,3.5 -17.4,-6.1 -21.2,-11.3 -4.9,-6.7 -8.2,-13.9 -10.6,-21.6 -0.5,-0.5 -0.6,-1.1 -0.5,-1.7 -0.5,-1.6 -0.9,-3.3 -1.3,-5 -2.5,-11 -3.7,-22.5 -3.1,-33.8 0,0 0,-0.1 0,-0.1 -18.6,8.4 -36,18.9 -49,34.4 -12.6,14.9 -20.2,33.3 -30.4,50 -9.2,15 -21.7,29.4 -38.1,35.3 -0.3,10.6 -1.8,21.3 -6.5,29.9 -0.9,9.7 -2,19.5 -2.8,29.3 6.4,-10.3 17.7,-17.5 29.8,-18.5 -3,-4.7 -8.2,-8 -13.8,-8.5 9.1,-3 19.5,-1.4 27.3,4.1 -1.3,-4.2 -0.8,-8.9 1.4,-12.8 1.5,4.4 3.1,8.9 4.6,13.3 4.7,-12.5 15,-22.7 27.5,-27.3 -3,10.1 -6,20.1 -8.9,30.2 5.7,-9 15.6,-15.1 26.2,-16.2 -4.2,7.1 -8.4,14.2 -12.7,21.2 22.7,1.5 40.3,20.2 53.3,38.8 11.8,16.9 22.7,35.6 39.6,47 -1.6,-7.7 -3.4,-15.5 -5.2,-23.2 -0.3,-1.3 1.6,-2.1 2.2,-0.9 17.1,35.6 21.8,78 22,117 0,6.7 -0.1,13.4 -0.3,20.1 7.7,7.8 12.9,18.3 14.1,29.2 2.1,20.1 -7.8,40.3 -22.9,53.8 0,0 0,0 0,0 -5.3,32.3 -11.6,64.7 -19.3,96.5 -3.4,14.2 -7.6,28.5 -13.3,42.1 9.4,-2.6 19.3,-3.5 29,-2.6 -5.5,-6.2 -10.9,-12.3 -16.4,-18.5 10.2,1.2 20,5.5 27.6,12.3 -6.6,-8.6 -6.8,-21.6 -0.6,-30.5 5.4,8.7 8.7,18.6 9.5,28.8 2.5,-7.5 7.9,-14 14.7,-18 -0.7,4.4 -1.5,8.7 -2.2,13.1 8,-5.9 16.5,-11.1 25.4,-15.6 10.6,-29.5 18.5,-60 24.5,-90.9 -2.1,-2.2 -3.9,-4.6 -5.6,-7.2 -3,-4.6 4.5,-8.6 7.4,-4 1.7,2.6 3.6,4.9 5.8,7.1 0.2,0.2 0.5,0.4 0.7,0.6 0.9,0.8 1.8,1.6 2.7,2.3 -2.1,-5.1 -4.2,-10.3 -6.4,-15.4 -1.6,-3.9 2,-7.6 5.9,-5.5 1.1,0.6 2.1,1.1 3.2,1.7 -2.6,-7.2 -4.9,-14.7 -6.7,-22.2 -1,-1.1 -1.6,-2.7 -1,-4.4 -2.1,-9.2 -3.7,-18.6 -4.9,-27.7 -2.9,-22.1 -3.4,-44.3 -1,-66.5 2.4,-22.6 7.2,-45.1 14.9,-66.5 7.2,-20.2 16.6,-40.5 30.6,-56.9 0.8,-0.9 2.6,0.2 2.1,1.3 -5.1,11.1 -10.4,22.1 -15.2,33.2 12.2,-6.3 20.8,-18.5 28.1,-30.5 8.3,-13.7 16.4,-28.6 30.1,-37 -5.1,0.4 -10.3,0.8 -15.4,1.2 5.8,-6.3 14.1,-10.2 22.6,-10.7 -4.8,-1.5 -8.8,-5.2 -10.7,-9.9 5.1,1.2 9.9,3.5 14.1,6.7 6.4,-7.4 14.7,-13.1 23.9,-16.6 -8.6,-19.9 -19.4,-39.1 -36.1,-53 -0.8,-0.7 0.3,-2.1 1.2,-1.5 45.1,31.3 48.9,90.7 78,133.5 7.4,10.8 16.4,20.9 27.7,27.8 12.9,7.9 27.4,12 41.8,16.6 25.2,8 50.7,19.1 60.9,45.4 5,12.8 6.1,27 5.8,40.7 -0.3,15 -1.8,29.9 -4.4,44.6 5.5,4.3 10.8,8.7 16,13.4 -1.1,-4.4 -1.9,-8.8 -2.7,-13.1 z"
   id="path56"
   inkscape:connector-curvature="0"
   style="fill:#9e5626" />
			<path
   d="m 856.1,581.9 c 34.2,7.7 71.9,-2.8 97.2,-27.1 -6.6,7.5 -8.9,16.8 -7.3,26.6 15.4,-7.8 25.7,-24.8 25.6,-42 1.6,5.3 2.5,11.6 4.2,16.9 10.6,-23.3 13,-50.2 6.4,-75 4.5,5.4 8.9,10.7 13.4,16.1 1,-16.1 -2.7,-32.4 -10.1,-46.8 -22.4,4.1 -42.9,14.9 -61.9,28.4 -25.1,17.9 -47.6,39.7 -74.7,54.7 -14.6,8.1 -30.8,14.4 -47.3,16.4 14.6,15.7 33.7,27.1 54.5,31.8 z"
   id="path58"
   inkscape:connector-curvature="0"
   style="fill:#54293a" />
			<path
   d="m 1133.2,656.2 c 8.6,11.2 21.5,18.5 35.4,21.4 -7.9,-18.5 -11.9,-38.2 -14.4,-58.6 -2.5,-19.9 -4.7,-40 -10.3,-59.1 -5.4,7.2 -10.3,14.8 -14.1,23 -10.9,23.4 -12.2,52.9 3.4,73.3 z"
   id="path60"
   inkscape:connector-curvature="0"
   style="fill:#54293a" />
			<path
   d="m 678.6,589.6 c 10.2,-16.7 17.8,-35.1 30.4,-50 13.1,-15.4 30.4,-25.9 49,-34.4 0.3,-5.2 0.5,-11.4 1.5,-17.2 -4.2,1.9 -8.7,3.1 -12.9,3.6 -9.2,1 -19,0.2 -28.1,2.6 -8.5,2.3 -15.5,7.2 -21.2,13.8 -6.4,7.5 -10.8,16.2 -15.2,24.9 -0.5,1.2 -1,2.4 -1.6,3.7 -3,6.7 -6.6,13.3 -11.2,19 -7.8,9.7 -18.9,20.9 -31.8,23.3 0.6,7.7 1.4,15.5 2,23.1 0.6,7 1.1,15 0.9,23 16.5,-5.9 29,-20.3 38.2,-35.4 z"
   id="path62"
   inkscape:connector-curvature="0"
   style="fill:#7a3915" />
			<path
   d="m 627.2,310.5 c 3.2,1.2 6.8,-0.4 9,-3 2.2,-2.6 3.2,-5.9 4.2,-9.2 1.3,-4.5 2.6,-9.4 1.4,-14 -1.2,-4.6 -6.2,-8.5 -10.7,-6.9 -2.7,0.9 -4.4,3.5 -5.6,6 -2.5,5.1 -3.8,10.8 -3.7,16.5 0.1,4.2 1.5,9.1 5.4,10.6 z"
   id="path64"
   inkscape:connector-curvature="0"
   style="fill:#f1d994" />
			<path
   d="m 678.4,342.3 c 2.5,1 5.2,1.2 7.9,1.3 6.5,0.3 13.5,0.4 18.8,-3.5 2.6,-2.4 1.8,-7.1 -0.9,-9.5 -2.7,-2.4 -6.4,-3 -10,-3.3 -3.7,-0.3 -7.5,-0.3 -11.1,0.3 -2.4,0.4 -4.7,1.1 -6.6,2.6 -1.9,1.5 -3.3,3.8 -3,6.2 0.2,2.7 2.4,4.9 4.9,5.9 z"
   id="path66"
   inkscape:connector-curvature="0"
   style="fill:#f1d994" />
			<g
   id="g72">
				<path
   d="m 1134.3,472.6 c -9.7,-9.5 -20.6,-18 -32.4,-24.5 -6.8,3.2 -14,5.6 -21.4,6.9 -3.5,0.6 -7.2,1.1 -10.9,1.4 2.8,1.5 5.6,3 8.3,4.6 18.1,11 34.2,25.3 47.2,42.1 11.2,-1 22.4,-1.9 33.6,-2.8 -7.6,-9.7 -15.6,-19.1 -24.4,-27.7 z"
   id="path68"
   inkscape:connector-curvature="0"
   style="fill:#7a3915" />
				<path
   d="m 1217.2,418.8 c 8.2,-8.5 13.9,-18.7 16.7,-29.8 -4.5,5.3 -9.9,9.9 -16,13.7 -3.5,2.1 -7.7,-1.7 -6.5,-5.3 7.5,-23.2 5.8,-49.2 -4.4,-71.3 3.6,21.3 -1,43.9 -12.6,62.2 0.5,-6.4 0.9,-12.8 1.4,-19.2 -11.7,20.7 -30.7,36.8 -52.6,45.9 -7.6,9.7 -16.7,18.2 -27,25 -4.6,3 -9.4,5.7 -14.3,8 11.9,6.5 22.7,15 32.4,24.5 8.8,8.6 16.8,18 24.3,27.8 5.8,-0.4 11.6,-0.8 17.5,-1.2 -1.5,-3.9 -4.8,-6.9 -8.7,-8.4 -3.7,-1.4 -4,-7 0.2,-8 10.1,-2.3 19.3,-6.6 27.2,-12.9 -2.4,0.2 -4.7,0.4 -7.1,0.5 -4.3,0.3 -5.2,-5.9 -1.9,-7.8 18.4,-10.4 34.6,-24.6 47.1,-41.6 -4,1.4 -8.1,2.9 -12.1,4.3 -3.9,1.6 -6.1,-3.8 -3.6,-6.4 z"
   id="path70"
   inkscape:connector-curvature="0"
   style="fill:#9e5626" />
			</g>
			<g
   id="g78">
				<path
   d="m 820.2,314.7 c 9.2,1.5 17.8,6.4 24.2,13.2 3.2,-0.8 6,-2.2 7.6,-4.7 4.1,-6.8 -1.3,-14.9 -6.9,-19 -11.1,-8.1 -25.5,-9.6 -38.8,-7.2 -9.4,1.7 -18.5,4.9 -27.4,8.4 1.8,2.6 3.2,5.5 4.6,8.4 1.7,-2.2 4.1,-3.3 7.2,-1.3 2,1.2 3.3,3.3 4.1,5.8 7.9,-3.6 16.9,-5 25.4,-3.6 z"
   id="path74"
   inkscape:connector-curvature="0"
   style="fill:#d65e34" />
				<path
   d="m 820.2,314.7 c -8.6,-1.4 -17.5,0 -25.4,3.7 1.1,3.3 1.4,7.2 1.4,10.6 0.7,-0.2 1.4,-0.2 2.1,-0.3 1.6,-0.1 4.1,1.2 5.1,2.5 1.5,1.9 2.2,4 2.2,6.1 8.8,-4.4 18.6,-6.9 28.7,-8 2.8,-0.3 6.6,-0.5 10.1,-1.4 -6.4,-6.8 -14.9,-11.6 -24.2,-13.2 z"
   id="path76"
   inkscape:connector-curvature="0"
   style="fill:#f57a46" />
			</g>
			<g
   id="g88">
				<path
   d="m 988.9,694 c 10.5,-13.6 22.8,-26.7 37.2,-35.9 -2.2,-5.6 -4.4,-11.3 -6.8,-16.9 -9.1,3.5 -17.4,9.2 -23.9,16.6 -4.2,-3.2 -9,-5.5 -14.1,-6.7 1.9,4.7 5.9,8.4 10.7,9.9 -8.5,0.5 -16.8,4.4 -22.6,10.7 5.1,-0.4 10.3,-0.8 15.4,-1.2 -13.7,8.4 -21.8,23.3 -30.1,37 -7.2,12 -15.9,24.2 -28.1,30.5 -3.8,8.6 -7.3,17.4 -10.3,26.4 -1.3,4 -2.6,8.1 -3.7,12.2 9,-5.1 17.5,-11.1 25.2,-18 20.3,-18.4 34.3,-42.8 51.1,-64.6 z"
   id="path80"
   inkscape:connector-curvature="0"
   style="fill:#f1d994" />
				<path
   d="m 1026.1,658.1 c -14.4,9.1 -26.7,22.2 -37.2,35.9 -16.8,21.8 -30.7,46.2 -51.1,64.7 -7.7,7 -16.1,13 -25.2,18 -2.3,8.2 -4.3,16.4 -5.8,24.7 11.2,-7.2 22.3,-14.6 32.2,-23.5 12.5,-11.2 23.1,-23.7 32.5,-37.6 16.4,-24.2 32.4,-54.1 60.9,-65.8 -2,-5.2 -4,-10.4 -5.9,-15.6 -0.2,-0.2 -0.3,-0.5 -0.4,-0.8 z"
   id="path82"
   inkscape:connector-curvature="0"
   style="fill:#e2a468" />
				<path
   d="m 739.9,773.3 c 2.1,5.3 2.6,11.2 1.3,16.8 -6.8,-9.7 -16.6,-17.2 -27.6,-21.4 1.9,6 5.3,12.2 7.2,18.1 -36.1,-10 -68.3,-32.6 -91,-62.3 0.2,5.8 0.7,11.6 1.4,17.4 3.1,24.1 10.5,47.4 24.4,67.3 0.8,-4.2 1.6,-8.4 2.3,-12.6 0.5,-3.1 4.4,-4.5 6.2,-1.5 7.8,13.2 17.7,25 29.4,34.8 -0.5,-2.6 -1.1,-5.3 -1.6,-7.9 -0.7,-3.1 2.8,-5.9 5.6,-4.1 34.5,22.5 79.7,27.4 118,12.2 0,-0.5 0,-1 0,-1.6 -0.4,-10 -1.2,-19.8 -2.4,-29.6 -20.4,-0.9 -41,-4.1 -61.1,-6.7 -2.1,-7.2 -6.3,-13.9 -12.1,-18.9 z"
   id="path84"
   inkscape:connector-curvature="0"
   style="fill:#e2a468" />
				<path
   d="m 765.9,708.4 c -13,-18.7 -30.6,-37.3 -53.3,-38.8 4.2,-7.1 8.4,-14.2 12.7,-21.2 -10.6,1 -20.5,7.2 -26.2,16.2 3,-10.1 6,-20.1 8.9,-30.2 -12.5,4.6 -22.8,14.9 -27.5,27.3 -1.5,-4.4 -3.1,-8.9 -4.6,-13.3 -2.1,3.8 -2.6,8.6 -1.4,12.8 -7.8,-5.5 -18.3,-7.1 -27.3,-4.1 5.6,0.5 10.8,3.8 13.8,8.5 -12.1,1 -23.4,8.3 -29.8,18.5 -1.2,13.5 -1.9,27 -1.4,40.5 22.7,29.8 54.9,52.3 91,62.3 -1.9,-6 -5.3,-12.2 -7.2,-18.1 11.1,4.2 20.8,11.8 27.6,21.4 1.2,-5.6 0.7,-11.5 -1.3,-16.8 5.8,4.9 10,11.7 12,19 20,2.6 40.6,5.8 61.1,6.7 -1.8,-14.7 -4.4,-29.2 -7.5,-43.7 -16.8,-11.4 -27.8,-30.1 -39.6,-47 z"
   id="path86"
   inkscape:connector-curvature="0"
   style="fill:#f1d994" />
			</g>
			<g
   id="g96">
				<path
   d="m 500.2,359 c -3.4,1.8 -6.8,3.6 -10.2,5.4 1.2,-5.8 4.6,-11.1 9.3,-14.7 -4,1.1 -8,2.2 -12.1,3.3 2.7,-6.2 6.9,-11.7 12,-16.1 -10.5,2.5 -22.8,6.8 -27.4,15.8 2.9,0.7 5.9,1.3 8.8,1.9 2.6,0.6 3.4,4.4 1.4,6.1 -3.3,2.9 -5.9,6.1 -7.6,9.9 2.4,-0.7 4.7,-1.7 7,-3 1.1,-0.7 2.2,-0.6 3.1,-0.2 0.9,0.2 1.7,0.8 2,1.9 2.3,9.2 2,18.8 4.9,27.9 2.9,9 7.2,17.4 12.4,25.2 4.8,7.1 10.1,15.8 16.8,21.4 6.1,5 16.1,4.8 24.2,5.2 -4,-5.2 -5.9,-12 -6.9,-18.7 -0.4,-2.4 -0.7,-4.8 -1,-7.3 -23,-12.1 -38.1,-38.1 -36.7,-64 z"
   id="path90"
   inkscape:connector-curvature="0"
   style="fill:#e2a468" />
				<path
   d="m 731.8,445.4 c -1.2,-3.3 -2.8,-6.7 -4.8,-9.6 -4.1,-5.9 -10,-10.2 -15.1,-15.2 -4.8,-0.7 -9.9,0.6 -13.4,4 -1.9,1.9 -3.4,4.2 -5.8,5.5 -3.3,1.8 -7.5,1.1 -10.7,-0.9 -3.2,-2 -5.6,-5 -7.9,-8 -2.7,2.8 -5.4,5.6 -8,8.4 -4.6,-0.1 -8.6,-3.4 -11.2,-7.3 -2.6,-3.9 -4,-8.3 -6,-12.5 -9.8,-20 -35,-33.6 -56.6,-28.2 -4.7,-6.3 -9.4,-12.6 -15.3,-17.7 -5.9,-5.1 -13.2,-9 -21,-9.4 -3.5,-0.2 -7.7,-0.1 -9.4,-3.1 -1.1,-1.8 -0.8,-4.1 -2.1,-5.7 -3.5,-4.2 -11.8,2.2 -15.5,-1.9 -1.8,-2 -0.9,-5.3 0.2,-7.7 0.8,-1.6 1.6,-3.3 2.5,-4.8 -0.1,0 -0.2,0 -0.3,0 -8.1,1 -16.2,2.2 -24.2,3.9 -2.3,0.5 -5,1 -7.8,1.7 -5.1,4.4 -9.3,9.9 -12,16.1 4,-1.1 8,-2.2 12.1,-3.3 -4.7,3.6 -8.1,8.9 -9.3,14.7 3.4,-1.8 6.8,-3.6 10.2,-5.4 -1.4,26 13.7,51.9 36.6,64 -0.5,-4.2 -0.9,-8.5 -1.2,-12.7 -0.4,-6 -1.1,-12.4 0.2,-18.3 2.3,-10.3 12,-17.2 22.7,-15.5 12,1.9 22.8,9.2 32.4,16.4 9.9,7.4 20.7,15.9 27.4,26.4 5.7,8.9 8.4,21.4 0.9,30.2 -6.6,7.8 -17.2,9.7 -27,10.4 14.2,12.6 35,16.5 53.9,13.3 18.9,-3.3 36,-12.8 51.6,-24.1 0.8,-2.2 1.5,-4.4 2.6,-6.4 0.8,-1.5 2.9,-1.6 4.1,-0.7 0.4,0.2 0.9,0.5 1.2,1 2.5,3.4 5.4,6.9 9.1,9.1 4.2,2.5 0.5,-4.9 1.1,-6.9 1.2,-3.9 4.9,-5.9 8.4,-3.2 1.1,0.9 2.2,1.8 3.3,2.7 0.4,0.6 5.8,5.5 4.1,0.7 z"
   id="path92"
   inkscape:connector-curvature="0"
   style="fill:#f1d994" />
				<path
   d="m 592.2,460 c -1.2,0.1 -2.3,0.2 -3.4,0.2 -11.1,0.6 -22.5,0.1 -33.5,-1.9 11.3,26.6 37.6,42.9 67.2,40 17.3,-1.7 34,-9 48.1,-19 6.6,-4.7 13.2,-10 18.5,-16.2 2.7,-3.1 5.2,-6.4 7,-10 0.6,-1.3 1.2,-2.6 1.6,-4 -15.5,11.3 -32.7,20.8 -51.6,24.1 -18.8,3.3 -39.7,-0.6 -53.9,-13.2 z"
   id="path94"
   inkscape:connector-curvature="0"
   style="fill:#e2a468" />
			</g>
			<g
   id="g102">
				<path
   d="m 1207,326.2 c -4.6,-9.8 -10.8,-18.8 -18.7,-26.5 -11.9,-11.5 -26.4,-19.3 -42.2,-23.6 5.2,4.7 9.8,9.9 13.6,15.7 14.4,21.7 18.2,50.1 9.9,74.8 -2.4,7.3 -5.9,14.2 -10.2,20.5 -4.1,10 -9.5,19.4 -16.2,27.9 21.9,-9 40.9,-25.2 52.6,-45.9 -0.5,6.4 -0.9,12.8 -1.4,19.2 11.6,-18.2 16.1,-40.8 12.6,-62.1 z"
   id="path98"
   inkscape:connector-curvature="0"
   style="fill:#f1d994" />
				<path
   d="m 1159.6,291.8 c -3.9,-5.8 -8.5,-11.1 -13.6,-15.7 -1.3,-0.3 -2.6,-0.7 -3.8,-1 -10.6,-2.5 -20.9,-2.9 -31.2,-2 5.4,1.5 10.6,3.7 15,6.2 10.5,5.8 19.5,13.4 26.5,23.2 15.1,21.1 17.9,48.6 10.8,73.3 -1.1,3.9 -2.4,7.6 -3.9,11.3 4.3,-6.3 7.8,-13.2 10.2,-20.5 8.2,-24.7 4.5,-53.1 -10,-74.8 z"
   id="path100"
   inkscape:connector-curvature="0"
   style="fill:#e2a468" />
			</g>
			<g
   id="g112">
				<path
   d="m 1091.6,1021.8 c 0.5,2.6 1.3,5.1 2.5,7.5 4.5,9 13.6,12.9 22.6,10.4 -0.9,-1.6 -1.6,-3.5 -2,-5.6 -0.7,-3.7 -1,-7.5 -1,-11.3 -7.1,2.2 -15.1,1.7 -22.1,-1 z"
   id="path104"
   inkscape:connector-curvature="0"
   style="fill:#e2a468" />
				<path
   d="m 1246.4,903.7 c -5.7,1.4 -11.1,3.9 -15.8,7.3 0.9,-4.9 1.8,-9.8 2.6,-14.7 -6.2,2.5 -11.1,8.2 -12.7,14.7 -2.9,-6 -7.3,-11.4 -12.8,-15.3 0.8,4.3 1.5,8.7 2.3,13 -5.2,-4.6 -10.5,-9.1 -16,-13.4 -0.3,1.5 -0.5,3 -0.8,4.6 -4.5,23.1 -11.4,58.9 -38.6,65.6 -14,3.5 -28.5,1 -41.5,8.6 -10.2,6 -17.9,15.5 -20.7,27.1 -1.5,6.4 -2.2,13.8 -0.9,20.6 7,2.7 14.9,3.2 22.1,1 0,-15.4 5.8,-30.8 16.6,-41.7 0.6,-0.6 2,0.1 1.6,1 -6,13.1 -10.5,27.9 -9.7,42.5 4.6,2.6 10.6,2.9 16,1.3 4.6,-1.3 8.7,-3.7 12.6,-6.4 -0.2,-4.1 0.1,-8.3 0.5,-12.2 1.5,-13.1 6.4,-25 16.6,-33.7 3.1,-2.6 7.3,1.8 4.3,4.6 -3.4,3.3 -6.3,7.1 -8,11.6 -2.7,7 -4.3,14.2 -4.3,21.8 0,1.6 -0.1,3.3 -0.1,5.1 8.4,5.5 18.3,5 28.5,2.3 14.3,-3.9 27.8,-10.6 39.7,-19.5 7.7,-13.4 10.9,-28.8 12.8,-44 2.1,-17.2 4,-34.5 5.7,-51.8 z"
   id="path106"
   inkscape:connector-curvature="0"
   style="fill:#f1d994" />
				<path
   d="m 1159.8,1016.7 c -0.1,5.8 0.3,12.3 3.4,16.6 8.6,11.9 25.8,1.9 35.2,-3.9 11.7,-7.2 22,-17.1 29,-29 0.2,-0.3 0.4,-0.6 0.5,-1 -11.9,8.9 -25.4,15.6 -39.7,19.5 -10.1,2.8 -20,3.3 -28.4,-2.2 z"
   id="path108"
   inkscape:connector-curvature="0"
   style="fill:#e2a468" />
				<path
   d="m 1122.2,1024.6 c 0,0.3 0,0.5 0,0.8 0.3,4.5 1.2,9.1 3.9,11.9 0.6,0.3 1.1,0.7 1.5,1.2 1.6,1 3.5,1.6 6.1,1.5 3.8,-0.1 7.6,-0.8 11.1,-2.1 3,-1.1 5.8,-3 8.9,-3.8 -1.9,-4.5 -2.8,-9.5 -3,-14.6 -3.9,2.7 -8,5.1 -12.6,6.4 -5.3,1.6 -11.3,1.3 -15.9,-1.3 z"
   id="path110"
   inkscape:connector-curvature="0"
   style="fill:#e2a468" />
			</g>
			<g
   id="g124">
				<path
   d="m 620.1,1195 c -1.2,2.2 -2.4,4.4 -3.5,6.6 -2.9,5.9 -6.9,13 -6.3,19.9 1.2,14.3 16.9,14.2 28.4,14 0.1,-3.2 0.6,-6.5 1.2,-9.7 0.9,-4.7 2,-9.3 3.3,-13.9 -5.3,-0.9 -10.4,-3.1 -14.6,-6.4 -3.5,-2.9 -6.4,-6.4 -8.5,-10.5 z"
   id="path114"
   inkscape:connector-curvature="0"
   style="fill:#e2a468" />
				<path
   d="m 666.8,1163.2 c -4.5,-1.1 -9,-2.4 -12.9,-2.3 -12.9,0.3 -20.7,12.7 -26.9,22.4 -2.4,3.8 -4.8,7.7 -6.9,11.7 2.1,4 5,7.6 8.6,10.4 4.2,3.3 9.3,5.5 14.6,6.4 1.4,-5 3.1,-10 5.1,-14.8 4.2,-10.6 9.9,-24.1 18.4,-33.8 z"
   id="path116"
   inkscape:connector-curvature="0"
   style="fill:#f1d994" />
				<path
   d="m 669.5,1226.1 c -6.7,-1.6 -12.3,-6 -16.5,-11.5 -0.6,2.2 -1.2,4.5 -1.8,6.8 -1.5,6.5 -3.9,14.6 -1.8,21.2 2.2,7 9.3,10.6 16.4,10.6 7.1,0 13.6,-3.2 20.5,-3.7 -2.1,-7.6 -1.7,-16 -0.3,-24 -5.3,1.7 -11.1,1.9 -16.5,0.6 z"
   id="path118"
   inkscape:connector-curvature="0"
   style="fill:#e2a468" />
				<path
   d="m 829.2,1144.4 c 16.7,-27 29.9,-55.6 40.6,-85.2 -8.9,4.5 -17.3,9.7 -25.4,15.6 0.7,-4.4 1.5,-8.7 2.2,-13.1 -6.8,4 -12.2,10.5 -14.7,18 -0.8,-10.2 -4.1,-20.1 -9.5,-28.8 -6.2,8.9 -6,21.8 0.6,30.5 -7.7,-6.8 -17.5,-11.2 -27.6,-12.3 5.5,6.2 10.9,12.3 16.4,18.5 -9.7,-0.9 -19.6,0 -29,2.6 -5.8,13.6 -13.1,26.4 -23.1,37.5 -9.9,11.1 -23.7,22.1 -38.7,28.1 3.7,1.8 7.2,3.9 10.3,6.3 2.8,2.2 1,6.3 -2.6,5.6 -8.6,-1.7 -17.7,-5.9 -26.8,-7.4 -3.1,0.2 -6.3,0.1 -9.4,-0.3 -2,0.3 -4,0.7 -6,1.5 -1.6,1.5 -3.4,2.4 -5.3,2.9 -11.1,7.5 -17.7,22.1 -22.5,34 -2.2,5.4 -4.1,10.8 -5.7,16.4 4.2,5.5 9.8,9.9 16.5,11.5 5.4,1.3 11.1,1.1 16.5,-0.5 0.6,-3.3 1.3,-6.5 2.1,-9.6 3.7,-14.1 10.5,-27.5 20.3,-38.4 2,-2.2 5.1,0.8 3.8,3.1 -7,12.5 -12.7,25.6 -15.5,39.8 -0.2,1 -0.4,2.1 -0.6,3.3 21,5.8 42.7,7 63.7,3.6 5,-4.4 9.9,-9 14.7,-13.7 20.8,-21 39.2,-44.3 54.7,-69.5 z"
   id="path120"
   inkscape:connector-curvature="0"
   style="fill:#f1d994" />
				<path
   d="m 696,1223.8 c -1.9,10.3 -3.9,26.4 6,31.8 13.7,7.4 28.8,-5 39.2,-13 6.3,-4.8 12.5,-9.9 18.5,-15.2 -21,3.4 -42.7,2.2 -63.7,-3.6 z"
   id="path122"
   inkscape:connector-curvature="0"
   style="fill:#e2a468" />
			</g>
			<g
   id="g136">
				<path
   d="m 315.9,1104.6 c -2.8,6.4 -5.3,13 -7,19.7 -1.4,5.5 -2.8,13.4 1.6,18.2 3.3,3.5 7.9,4.3 11.2,0.5 0.6,-0.7 1.2,-1 1.9,-1.2 0.6,-6 2.7,-12.1 4.5,-17.4 1,-2.8 2,-5.5 3,-8.2 -6.2,-1.7 -11.9,-6 -15.2,-11.6 z"
   id="path126"
   inkscape:connector-curvature="0"
   style="fill:#e2a468" />
				<path
   d="m 363.5,1062.4 c -1.9,-1 -3.8,-2 -6.1,-2.3 -4.9,-0.8 -9.9,-0.1 -14.2,2.5 -9.9,5.9 -15.3,16.1 -20,26.2 -2.4,5.2 -4.9,10.5 -7.2,15.8 3.3,5.6 8.9,9.9 15.3,11.5 3.1,-7.9 6.6,-15.7 10.7,-23.2 5.4,-10.1 12.3,-22 21.5,-30.5 z"
   id="path128"
   inkscape:connector-curvature="0"
   style="fill:#f1d994" />
				<path
   d="m 508.8,1109.4 c 15.5,-19.2 27.5,-40.6 39.1,-62.2 -1.6,-6.4 -3.5,-11.9 -5.9,-15.5 4.6,-10.9 6.7,-22.8 6.1,-34.6 -3,4.4 -4.7,7.7 -7.7,12.1 6,-11.5 5.4,-26.3 -1.7,-37.2 -2,5.2 -4.1,10.5 -6.1,15.7 -1.7,-13.1 -5.6,-25.8 -11.4,-37.7 -29.7,42.4 -64.6,82.4 -104.4,115.5 0.8,2 1.3,4.2 1.3,6.6 0,2.9 -3.9,3.5 -5.2,1.2 -6.5,-11.1 -20,-16.9 -32.3,-11.1 -14.6,6.9 -23.6,21.7 -30.9,35.5 -3.8,7.1 -7.2,14.4 -10.1,21.8 9.9,8.3 24.5,12.1 37.2,9.6 0.4,-0.7 0.7,-1.3 1.1,-2 7.1,-13.1 15.5,-26.6 25.9,-37.3 9.2,-9.6 21.9,-15.4 35.1,-10.2 13.9,5.4 22.3,16.6 29,29.4 1.1,2.1 -1.7,4.2 -3.3,2.4 -10.2,-11.5 -26.4,-33.3 -44.5,-23.8 -7.9,4.1 -13.4,11.4 -18.5,18.5 -5.1,7.3 -9.9,14.8 -14.2,22.6 -0.4,0.7 -0.8,1.5 -1.3,2.3 17.4,15.3 41.1,21.5 64.3,18.8 4.7,-0.6 9.4,-1.4 14,-2.6 17,-9.6 32,-22.4 44.4,-37.8 z"
   id="path130"
   inkscape:connector-curvature="0"
   style="fill:#f1d994" />
				<path
   d="m 386.1,1131 c -3.7,6.3 -8.9,14.3 -7.6,21.3 1.1,6 4.9,11.7 11,13.4 7.2,2 16.2,0.3 23.4,-0.8 8,-1.3 16,-3 23.8,-5.5 9.7,-3.1 19,-7.2 27.7,-12.2 -4.6,1.1 -9.3,2 -14,2.6 -23.2,2.7 -46.8,-3.5 -64.3,-18.8 z"
   id="path132"
   inkscape:connector-curvature="0"
   style="fill:#e2a468" />
				<path
   d="m 339.6,1119.7 c -0.5,1.2 -0.9,2.5 -1.4,3.7 -2.7,7.4 -7.3,17.3 -5.3,25.3 1.9,7.6 9.1,11.7 16.7,11.6 7.4,-0.1 13.6,-3.1 20.3,-5.5 -1.4,-9 2.4,-17.2 6.9,-25.6 -12.7,2.5 -27.3,-1.2 -37.2,-9.5 z"
   id="path134"
   inkscape:connector-curvature="0"
   style="fill:#e2a468" />
			</g>
			
				<ellipse
   transform="matrix(0.7071,0.7071,-0.7071,0.7071,396.663,-333.7196)"
   cx="601.20001"
   cy="312"
   rx="3.2"
   ry="5.6999998"
   id="ellipse138"
   style="fill:#ffffff" />
			
				<ellipse
   transform="matrix(0.7071,0.7071,-0.7071,0.7071,458.0035,-379.142)"
   cx="686.70001"
   cy="363.29999"
   rx="3.2"
   ry="5.6999998"
   id="ellipse140"
   style="fill:#ffffff" />
		</g>
</svg>